<svg id="Moeen" xmlns="http://www.w3.org/2000/svg" width="87.177" height="40.256" viewBox="0 0 87.177 40.256">
  <rect id="Rectangle_90" data-name="Rectangle 90" width="7.405" height="7.405" fill="#c1922d"/>
  <path id="Path_4250" data-name="Path 4250" d="M46.087,0V7.407H46.1v16.4H38.711V0H31.318V23.808H25.535V0h-7.4V23.808H7.405V9.027H0V31.211H64.985v-7.4H53.493V7.407h4.09V19.644h7.4V0Z" fill="#136936"/>
  <path id="Path_4251" data-name="Path 4251" d="M452.306,7.405h4.982v4.846h-4.982ZM444.9,0V31.214h7.407V19.659H464.7V0Z" transform="translate(-377.519)" fill="#c1922d"/>
  <rect id="Rectangle_91" data-name="Rectangle 91" width="7.405" height="7.405" transform="translate(36.136 32.85)" fill="#c1922d"/>
  <rect id="Rectangle_92" data-name="Rectangle 92" width="7.405" height="7.405" transform="translate(28.018 32.85)" fill="#c1922d"/>
  <path id="Path_4252" data-name="Path 4252" d="M495.366,13.5v1.651H493.7V16.8h4.982V13.5Zm2.5,1.651h-1.651v-.818h1.651Z" transform="translate(-418.928 -11.455)" fill="#fff"/>
  <path id="Path_4253" data-name="Path 4253" d="M127.4,16.8h4.982V13.5H127.4Zm3.317-.833h-1.651V14.333h1.651Z" transform="translate(-108.105 -11.455)" fill="#fff"/>
  <rect id="Rectangle_93" data-name="Rectangle 93" width="7.407" height="1.651" transform="matrix(0.883, -0.469, 0.469, 0.883, 56.858, 28.793)" fill="#fff"/>
</svg>
