<svg xmlns="http://www.w3.org/2000/svg" width="97.414" height="112.556" viewBox="0 0 97.414 112.556">
  <g id="awardsLogo" transform="translate(0)">
    <path id="Path_119" data-name="Path 119" d="M575.484,49.728c.138-1.628,1.661-2.508,1.488-3.257a1.805,1.805,0,0,0-.831-.065,1.9,1.9,0,0,0-.069.619h.45s-.069.13-.277.489a5.831,5.831,0,0,0-1.107,2.28,2.047,2.047,0,0,0,1.938,2.573c1.142-.1,1.9-1.3,1.523-3.061a.558.558,0,0,0,.485-.163c-.069.977.657.977.8.977a1.2,1.2,0,0,0,.692,1.433,2.6,2.6,0,0,0,2.042-.521.526.526,0,0,0,.519.228,2.913,2.913,0,0,0,1-.391c.242.228.831,0,1.038-.326,1.523.228,3.737-2.8,4.222-2.931,0-.586-.1-.717-.139-.749-.38.065-.484.326-.726.651-.069.065-.311.1-.277-.13.865-2.573-.45-4.885-1.246-4.983a12.007,12.007,0,0,0,.484,3.094c.035.033.069.1.1-.065a7.6,7.6,0,0,1-.277-1.954c1.177,1.889.727,2.8.692,4.755a1.8,1.8,0,0,1-.519.489c0-.261.035-.684-.484-.684-.588.163-.727.944-.692,1.335-.034.1-.45.261-.623.293a1.38,1.38,0,0,1-.035-.358c-.242,0-.173-.033-.242.065a.529.529,0,0,1-.1.326.986.986,0,0,1-.8.261V49.5a.307.307,0,0,0-.208.1.957.957,0,0,1-1.073.814h-.1c-.069-.065.138-.391.1-.521-.346-.1-1.349.944-2.422.944a.693.693,0,0,1-.657-.684.282.282,0,0,1,.034-.163,4.649,4.649,0,0,0,2.388-1.107,1.954,1.954,0,0,0,.519-1.628c-.069-.033-1.8-1.27-3.114,2.019-.1,0-.865.163-.554-1.5-.45,0-.381.586-.727.717-.381.13-.554-.391-.865-.326,0,.1-.173.716-.173.749a4.314,4.314,0,0,0,.415.261,1.805,1.805,0,0,1-1.211,2.443C576.28,51.715,575.346,51,575.484,49.728Zm11.073-.619a.473.473,0,0,1,.242-.326.333.333,0,0,1,.346.2c.034.1-.208.228-.381.228-.1,0-.173,0-.208-.1Zm-4.879-1.172c.45-.326.692-.1.692-.1s.035.814-1.765,1.433a4.859,4.859,0,0,1,1.073-1.335Z" transform="translate(-552.004 -28.591)" fill="#231f20"/>
    <path id="Path_120" data-name="Path 120" d="M597.7,70.368h.1c.312-.13,1.973-.977,2.146-1.042V69A10.647,10.647,0,0,0,597.7,70.368Z" transform="translate(-566.779 -46.528)" fill="#231f20"/>
    <path id="Path_121" data-name="Path 121" d="M584.3,70.261a2.136,2.136,0,0,0-.1.651c.381-.065.8-.13,1.177-.228a4.8,4.8,0,0,1,.138-.684A5.377,5.377,0,0,0,584.3,70.261Z" transform="translate(-557.951 -47.202)" fill="#231f20"/>
    <path id="Path_122" data-name="Path 122" d="M681,52.142v.1c.727.2,3.253.163,3.322-2.215l.485-.1c.069.586.277.977.692,1.042.589.13,1.315-.521,1.419-.619a.424.424,0,0,0,.415.228,1.562,1.562,0,0,0,1.211-.814.6.6,0,0,0,.8-.2c.035-.033.035-.1.07-.13,1.453-.065,1.8-3.192,1-3.355-.554-.1-1.038.944-.8,1.3.173.163.381.13.9,0a2.218,2.218,0,0,1-1,1.238c-.035-.1-.069-.293-.1-.358-.1,0-.173,0-.173.1a.6.6,0,0,1-.484.716h-.1c0-.13,0-.391-.1-.391s-.1,0-.173.1c-.1.717-.761.977-.969.847-.035-.1.069-.261-.069-.358-.173-.065-.8.619-1.28.847-.45.2-.831-.065-.8-.456,2.457-.782,3.149-2.443,2.664-2.9a1.408,1.408,0,0,0-1.834.228,2.952,2.952,0,0,0,.208-1.694,5.334,5.334,0,0,0-1.592-2.7c-.035,0-.035.065-.035.065.554,2.573.589,2.931.692,2.931.208,0-.312-1.889-.277-1.922.346.456.658.944.969,1.4.242.716-.519,2.247-.554,2.28s.035.13.069.1a1.066,1.066,0,0,1,.277-.13,4.955,4.955,0,0,0-.969,1.824,1.161,1.161,0,0,1-.484.1c0-.065-.277-.749-.727-.684a1.12,1.12,0,0,0-.554,1.205c.242.391.554.293.865.261A3.949,3.949,0,0,1,681,52.142Zm5.4-4.82a.929.929,0,0,1,1.038.065c0,.489-1.661,1.628-2.18,1.726a3.16,3.16,0,0,1,1.142-1.791Zm-2.976,2.019c0-.033-.034-.163.208-.2a.355.355,0,0,1,.242.13c-.069.13-.415.1-.45.065Z" transform="translate(-621.254 -28.726)" fill="#231f20"/>
    <path id="Path_123" data-name="Path 123" d="M697.757,67.061c-.035-.065.069-.2.035-.261-.692.423-1.419.847-2.145,1.238a4.219,4.219,0,0,0-.346.489C695.335,68.559,697.757,67.093,697.757,67.061Z" transform="translate(-630.605 -45.044)" fill="#231f20"/>
    <path id="Path_124" data-name="Path 124" d="M711.4,63.345v-.065c2.837-.619,2.837-2.768,2.837-2.768s-.588.2-.8-.2c-.242-.423.381-1.042.45-1.042a.371.371,0,0,1,.312.065C714.791,59.925,715.31,63.605,711.4,63.345Z" transform="translate(-641.134 -39.961)" fill="#231f20"/>
    <path id="Path_125" data-name="Path 125" d="M705.037,48.666a8.06,8.06,0,0,0-.069,2.149c-.346.261-.277-3.322-.277-3.615h.173a9.553,9.553,0,0,1,1.107,2.671c.588,2.964-.762,4.787-2.042,5.146a5.225,5.225,0,0,1-2.63.1v-.1c.1,0,3.53-.554,4.187-2.377A7.333,7.333,0,0,0,705.037,48.666Z" transform="translate(-634.529 -31.828)" fill="#231f20"/>
    <path id="Path_126" data-name="Path 126" d="M620.869,69.5c-.035.2-.035.391-.069.586a1.465,1.465,0,0,1,.519.1c.173,0,.242-.619.173-.651A3.783,3.783,0,0,0,620.869,69.5Z" transform="translate(-581.886 -46.865)" fill="#231f20"/>
    <path id="Path_127" data-name="Path 127" d="M673.1,55.867a.115.115,0,0,0,.035.1c.658.2,3.634.1,4.152-2.182a5.416,5.416,0,0,0-1.314-4.983c0,.065-.1.065-.1.13a30.284,30.284,0,0,0,.484,3.159c.173,0-.208-2.247-.034-2.312,1.107,2.9.553,4.136.553,4.136S675.973,55.216,673.1,55.867Z" transform="translate(-616.088 -32.907)" fill="#231f20"/>
    <path id="Path_128" data-name="Path 128" d="M610.453,46.578h.208c0-.1-.1-2.345-.1-2.573.1,0,1.107,2.768,1.142,2.8,0,.2-2.6,2.215-1.9,3.908a8.993,8.993,0,0,1-2.6.912c0,.033,0,.1.1.1a5.339,5.339,0,0,0,2.907-.489,1.5,1.5,0,0,0,1.523.065c1.072-.456,1.834-2.084,2.18-1.987.034.1,0,.326.034.423a2.108,2.108,0,0,0,1.627-1.14,4,4,0,0,0,.45-1.987,8.359,8.359,0,0,0-1.142.456,1.44,1.44,0,0,1,1.7-1.27,4.514,4.514,0,0,0,.035-.684,1.2,1.2,0,0,0-1.315.065,3.63,3.63,0,0,0-1.038,2.833c.1,0,.519-.358,1.281-.651.069.651-.8,1.466-1.384,1.628a1.377,1.377,0,0,0-.173-.489c-.727-.1-1.869,2.768-3.184,2.28.173-.2,1.661-.977,1.281-3.843.519-.782.692-1.368.554-1.5a10.687,10.687,0,0,1-.692,1.01,17.019,17.019,0,0,0-1.592-3.648h-.311C610.072,43.028,610.418,46.155,610.453,46.578Zm-.277,3.973c-.416-1.01,1.419-3.127,1.592-3.192a4.282,4.282,0,0,1-1.592,3.192Z" transform="translate(-572.992 -28.861)" fill="#231f20"/>
    <path id="Path_129" data-name="Path 129" d="M677.5,64.2c.1.13.45-.1.554,0s-.658.391-.658.423c.138.13.761-.1.831-.391.1-.261,0-.489-.173-.521-.035-.033-.346.2-.381,0s.346-.326.381-.326c.069-.065.034-.391,0-.586l-.1.1a3.6,3.6,0,0,1-.311.358C677.642,63.321,677.227,63.972,677.5,64.2Z" transform="translate(-618.9 -42.347)" fill="#231f20"/>
    <path id="Path_130" data-name="Path 130" d="M667.5,51.628v.2c.1,0,2.353.358,3.6-1.042,1.176-1.107.588-5.276-1.246-6.481a19.751,19.751,0,0,0,.8,3.452l.1-.1c-.069-.554-.519-2.117-.415-2.117s1.453,2.736.934,3.745A4.893,4.893,0,0,1,667.5,51.628Z" transform="translate(-612.425 -29.872)" fill="#231f20"/>
    <path id="Path_131" data-name="Path 131" d="M666.811,44.871c.45,1.628-1.523,2.671-1.972,4.364-.381,1.466.588,1.922,1.35,1.791,1.592-.2,1.488-2.345,1.453-2.377-.138-.554-.484-.619-.969-.749a1.5,1.5,0,0,0-.242.651c.8.065,1.107.423.969.847a1.925,1.925,0,0,1-1.211.977s-1.211.2-1.038-1.14c.208-1.563,2.457-2.605,1.7-4.462C666.88,44.806,666.742,44.676,666.811,44.871Z" transform="translate(-610.629 -30.183)" fill="#231f20"/>
    <path id="Path_132" data-name="Path 132" d="M633.7,60.354V61a12.646,12.646,0,0,0,1.211-.586c-.035-.033,0-.619-.035-.619A4.277,4.277,0,0,0,633.7,60.354Z" transform="translate(-590.322 -40.324)" fill="#231f20"/>
    <path id="Path_133" data-name="Path 133" d="M667.79,58.051a2.358,2.358,0,0,0,.692.1,1.051,1.051,0,0,0,.1-.651l-.692-.1C667.893,57.661,667.755,57.856,667.79,58.051Z" transform="translate(-612.611 -38.706)" fill="#231f20"/>
    <path id="Path_134" data-name="Path 134" d="M589.85,48.284A7.205,7.205,0,0,0,588.6,46.2c-.069,0-.035.033-.1.1.069.586.346,2.312.381,2.573l.1.1c0-.456-.138-1.075-.1-1.5a3.215,3.215,0,0,1,.519,3h.173A3.666,3.666,0,0,0,589.85,48.284Z" transform="translate(-560.763 -31.154)" fill="#231f20"/>
    <path id="Path_135" data-name="Path 135" d="M639.643,34.185c-.311,1.172-1.177.489-1.177.489-1.972-1.856,1.142-5.6,2.492-8.012a3.737,3.737,0,0,0,.519-1.694s-.1-.326-.173,0c-.415,2.475-3.045,4.266-3.668,6.579-.969,2.9,1.177,4.462,2.145,3.843.623-.423.519-2.8,1.177-2.671.035.033.45.814,1.177.814a2.5,2.5,0,0,0,2.63,1.27c2.6-.423,2.249-3,2.249-3.387-.1-2.41-2.941-4.56-3.564-5.862-.139-.261-.312-.749-.381-.814s0,0-.277,0c0,1.172,0,3.973.035,4.136a3.144,3.144,0,0,0-1.142,1.27,3.566,3.566,0,0,0,.1,2.671,2.154,2.154,0,0,1-.588-.782C640.127,31.156,639.643,34.185,639.643,34.185Zm3.7-1.726a1.517,1.517,0,0,0,2.215-1.759c-.658-2.312-2.492-1.889-2.492-1.889V25.88c.658,1.3,2.353,3.029,2.872,3.941a2.89,2.89,0,0,1-1,4.071,2.259,2.259,0,0,1-2.491-.423C643.242,33.371,643.346,32.459,643.346,32.459Zm-1.246.391c-.588-.554-.484-2.9,1-3.322,1.834-.2,2.353,1.824,1.834,2.215a1.137,1.137,0,0,1-1.349.163,12.7,12.7,0,0,1-.485-2.084c-.069,0-.38.423-.38.456A7.251,7.251,0,0,1,643.138,32a1.146,1.146,0,0,1-1.038.847Z" transform="translate(-592.735 -16.663)" fill="#231f20"/>
    <path id="Path_136" data-name="Path 136" d="M605.808,53.786a3.392,3.392,0,0,0-.069-.586,1.944,1.944,0,0,0-1.038.326,2.29,2.29,0,0,0,.07.684A4.648,4.648,0,0,0,605.808,53.786Z" transform="translate(-571.357 -35.874)" fill="#231f20"/>
    <path id="Path_137" data-name="Path 137" d="M584.461,47.954c.069.326-.484.554-.623.716.553-.1,1.142-.391.761-1.27a1.107,1.107,0,0,0-.9.456,1.392,1.392,0,0,0,.1.521A7.428,7.428,0,0,1,584.461,47.954Z" transform="translate(-557.625 -31.963)" fill="#231f20"/>
    <path id="Path_138" data-name="Path 138" d="M623.139,44.637c.034,0,1.8-.554,1.834-2.084,0-.033-.1-.489-.416-.456a.75.75,0,0,0-.312.717c.069.13.173.1.277.163-.1.586-1.419,1.466-1.523,1.5C623.035,44.637,623.035,44.637,623.139,44.637Z" transform="translate(-583.325 -28.385)" fill="#231f20"/>
    <path id="Path_139" data-name="Path 139" d="M666.268,47.042c.138.2.485.065.485-.033.346.2.519-.228.519-.261A1,1,0,0,0,666.96,46l-.1.293c.207.065.311.391.1.391-.1-.033-.069-.228-.1-.293a.192.192,0,0,0-.173.1c0,.13.035.293-.1.391-.1,0-.1,0-.1-.554h-.208A.98.98,0,0,0,666.268,47.042Z" transform="translate(-611.574 -31.019)" fill="#231f20"/>
    <path id="Path_140" data-name="Path 140" d="M668.122,41.291a1.547,1.547,0,0,0,.069-.391c-.035.033-1.453,1.14-1.523,1.14.035.065-.069.293-.069.358A11.216,11.216,0,0,0,668.122,41.291Z" transform="translate(-611.837 -27.58)" fill="#231f20"/>
    <path id="Path_141" data-name="Path 141" d="M649.332,33.29a.073.073,0,0,0-.069.065c-.035.065-.035.423-.1.489a.134.134,0,0,1-.207,0,2.608,2.608,0,0,1,0-.521c-.139-.033-.277.619-.1.814.242.228.554-.1.623-.2.1.065.519-.1.312-1.042-.069-.065-.1-.065-.208,0-.035.13.173.619-.069.619C649.332,33.518,649.367,33.322,649.332,33.29Z" transform="translate(-600.175 -22.151)" fill="#231f20"/>
    <path id="Path_142" data-name="Path 142" d="M649,29.161a1.417,1.417,0,0,1,.346,1.042c0,.065.034.1.069.1a1.639,1.639,0,0,0-.139-1.4A.678.678,0,0,0,649,29.161Z" transform="translate(-600.327 -19.488)" fill="#231f20"/>
    <path id="Path_143" data-name="Path 143" d="M705.769,50.351l-.969.521v-.684l.935-.489Z" transform="translate(-636.818 -33.514)" fill="#231f20"/>
    <path id="Path_144" data-name="Path 144" d="M607.407,291.429l-.312-.228-.034-.033V291.1l.069-.2.069-.13.069-.13-.208.1-.138.1h-.138v-.033l-.311-.391-.1-.1-.069-.065c.138-.13.277-.228.38-.326a3.1,3.1,0,0,1,.346-.2,1.6,1.6,0,0,0,.173-.033h.588l.035-.065.034-.1c.034,0,.1-.065.277-.13a.575.575,0,0,0,.208-.1h0v.033c-.035.032-.1.228-.277.488l-.381.586a.115.115,0,0,0-.034.1v.065l.208.163Zm.035-1.042c.035-.065.069-.1.1-.163l.1-.2h-.035l-.069.032-.1.033h-.277v.033l.035.1.1.1Zm1.176-1.14-.242.033-.277.032-.069-.163a.96.96,0,0,1-.069-.26l-.208.033-.139.033-.069-.163a.9.9,0,0,1-.069-.293.856.856,0,0,1,.277-.065L608,288.4c0,.1.035.2.035.293l.035.163.242-.033.138-.033a.9.9,0,0,0,.069.293Z" transform="translate(-572.404 -194.473)" fill="#231f20"/>
    <path id="Path_145" data-name="Path 145" d="M609.177,296.678l-.208.065-.277.065-.07-.163c-.034-.1-.069-.163-.1-.26l-.207.065-.139.033-.069-.163-.1-.293c.1-.032.173-.065.277-.1l.242-.065a.9.9,0,0,0,.07.293l.069.163.138-.033.1-.033.138-.032a.9.9,0,0,0,.069.293Zm.865-1.5-.138.163-.139.163-.034.033H609.7l-.035.033-.069.033-.069.065-.173.1-.173.1-.692-.456.45-.619.588.391s.035,0,.035-.033v-.553c.034-.033.069-.065.1-.065l.1-.065.1-.033a.886.886,0,0,1,.242-.13.633.633,0,0,1,0,.358l-.035.13-.035.13a.341.341,0,0,1,0,.261Z" transform="translate(-573.516 -198.452)" fill="#231f20"/>
    <path id="Path_146" data-name="Path 146" d="M614.962,297.233l-.035.065c0,.033-.034.033-.034.065l-.069.065-.1.1-.1.1a.067.067,0,0,1-.1,0l-.761-.456c-.034,0-.034-.033,0-.033l.069-.1.035-.033.035-.032.138-.163c.035-.033.069-.1.1-.13l.035-.033.1-.1.657.391a.755.755,0,0,0,.035-.391.945.945,0,0,0-.138-.326,1.424,1.424,0,0,1,.242-.228l.138-.13.069-.065a.628.628,0,0,1,.138.423,1.384,1.384,0,0,1-.138.651l-.069.13-.069.13v.1Z" transform="translate(-577.259 -199.463)" fill="#231f20"/>
    <path id="Path_147" data-name="Path 147" d="M617.938,300.541l-.38-.2a.787.787,0,0,1-.243.228c-.034.033-.069.065-.1.065l-.069.033-.069.033H617c-.035,0-.069.033-.1.033h-.139l-.1-.033a2.628,2.628,0,0,1-.381-.26,2.156,2.156,0,0,1-.277-.293v-.032a2.128,2.128,0,0,0,.277.13,1.067,1.067,0,0,0,.311.065,1.245,1.245,0,0,0,.346-.033l.1-.033.069-.033.1-.032.1-.065h-.069l-.1-.033-.034-.033a.4.4,0,0,1-.173-.163.455.455,0,0,1-.035-.228l.035-.065.034-.065.208-.293.1-.1.1-.1c.069-.065.173-.13.242-.2l.208-.1a.233.233,0,0,1,.208,0c.069.033.1.065.1.13v.2a.9.9,0,0,1-.069.293l-.069.163a.243.243,0,0,1-.069.13l.312.163Zm-.277-.977V299.3l-.035-.033h-.069c-.035,0-.069,0-.069.033v.1c0,.033.035.065.069.1l.035.033.069.033Z" transform="translate(-578.747 -201.436)" fill="#231f20"/>
    <path id="Path_148" data-name="Path 148" d="M622.746,302.182l-.484-.2v-.293l-.208.228-.554-.228.311-.684.485.2v-.163l-.035-.033-.069-.065-.069-.033-.1-.032-.069-.033.208-.2.208-.2a.826.826,0,0,1,.485.032.408.408,0,0,1,.242.228.6.6,0,0,1,.034.423.4.4,0,0,1-.173.163l-.1.1.242.1Z" transform="translate(-582.344 -202.588)" fill="#231f20"/>
    <path id="Path_149" data-name="Path 149" d="M626.976,304.191l-.346-.13s-.035,0-.035-.033v-.1l-.069.065c-.035.032-.035.032-.069.032l-.45-.163c-.034,0-.034-.033-.069-.13l-.069.033H625.8l-.485-.163-.035-.033-.034-.1-.069.033h-.069l-.208-.065.277-.684.242.1s.035,0,.07-.065l.035-.065.173-.163.069-.065.1-.065a.278.278,0,0,1,.1-.033h0v.13a.111.111,0,0,1-.035.065l-.034.065-.1.1-.173.228.415.13.035-.033.069-.065.035-.1.138-.13.208-.163h.1c0,.033,0,.033-.035.065l-.034.065-.035.1-.069.1a1,1,0,0,1-.173.228l.277.1.1-.261c.035-.032.1-.032.139-.1l.138-.1.035-.033h.035l-.035.163-.035.163-.035.1c0,.033-.034.065-.034.13,0,.033,0,.033.034.065l.243.1Z" transform="translate(-584.567 -203.914)" fill="#231f20"/>
    <path id="Path_150" data-name="Path 150" d="M632.327,301.849l-.415.326-.034.163-.035.1-.034.13-.069.228-.035.1-.034.065-.138.26-.1.2a.107.107,0,0,1-.138.033l-.588-.163.208-.717.519.13h.035c.034-.163.069-.326.1-.488a1.506,1.506,0,0,0,.034-.391v-.1c0-.032-.034-.1-.034-.13.034-.065.1-.13.173-.228a2.2,2.2,0,0,1,.311-.261l.035.033v.163l.173.293Z" transform="translate(-588.36 -203.037)" fill="#231f20"/>
    <path id="Path_151" data-name="Path 151" d="M636.019,303.663c-.035.1-.069.228-.1.326l-.1.2-.277.293-.034-.033c.034-.2.07-.358.1-.554l.1-.684.035-.326.035-.228.208-.228.277-.326.034.033v.065l-.034.1-.035.163-.069.326v.13l-.034.163-.035.1-.035.1Z" transform="translate(-591.499 -203.712)" fill="#231f20"/>
    <path id="Path_152" data-name="Path 152" d="M644.026,304.633l-.381-.033h-.035a.033.033,0,0,0-.035-.033l-.069-.2-.035-.13v-.163l-.1.2-.069.13c0,.032-.035.032-.069.032h-.1a4.375,4.375,0,0,0-.484-.163l-.138-.033-.1-.032c.035-.163.1-.326.139-.456a1,1,0,0,1,.173-.326c.035-.032.1-.065.139-.13l.242-.13.277-.163v-.13c0-.033.069-.1.173-.261a1.9,1.9,0,0,1,.138-.2h0a5.7,5.7,0,0,1,.035.586l.035.684a.116.116,0,0,0,.034.1c0,.033.035.033.035.033l.242.032Zm-.208-2.443-.173.163-.208.2-.138-.1-.208-.2-.138.13-.1.1-.173-.13c-.07-.065-.173-.13-.242-.2l.208-.2.173-.163c.069.065.139.163.208.228l.1.1.173-.163.1-.1a1.448,1.448,0,0,0,.207.228Zm-.346,1.6v-.2l-.035-.2-.034.032-.07.065-.069.065-.1.065-.1.065h.035l.1.033.1.033Z" transform="translate(-596.011 -203.509)" fill="#231f20"/>
    <path id="Path_153" data-name="Path 153" d="M648.449,307.949l-.138.163-.173.2-.138-.1a1.066,1.066,0,0,0-.242-.163l-.139.163-.1.1-.173-.1c-.069-.065-.173-.13-.242-.2.069-.065.1-.163.173-.228l.173-.163.208.2.138.1.1-.1.069-.065.1-.1a.787.787,0,0,0,.242.228Zm-.035-.554-.45-.033h-.1c-.035-.033-.07-.033-.07-.065l-.034-.032-.035-.065-.035-.1-.069.1-.1.163-.415-.033.034-.749.52.033v-.423l.173-.163a1.559,1.559,0,0,1,.242-.228l.035.065v.749c0,.032.034.032.069.065l.346.032Z" transform="translate(-599.085 -206.207)" fill="#231f20"/>
    <path id="Path_154" data-name="Path 154" d="M652.073,305.747v.2l-.035.228v.13l-.034.065-.035.1-.069.163-.069.163H651v-.749h.727v-.13l-.034-.1a.98.98,0,0,0-.208-.293v-.13l.069-.13.035-.1a.955.955,0,0,1,.138-.261.586.586,0,0,1,.208.293l.034.13.035.13A1.257,1.257,0,0,0,652.073,305.747Zm-.138,1.726-.139.163-.173.2-.173-.1a1.475,1.475,0,0,1-.242-.2,1,1,0,0,1,.173-.228l.173-.163a.7.7,0,0,0,.242.2Z" transform="translate(-601.635 -205.6)" fill="#231f20"/>
    <path id="Path_155" data-name="Path 155" d="M656.638,307.138l-.346.033h-.1a.115.115,0,0,1-.035.1l-.034.1-.035.1-.034.1c-.035.065-.069.1-.1.163s-.069.1-.1.163l-.1.1a.275.275,0,0,1-.173.065,2.323,2.323,0,0,1-.45-.13.941.941,0,0,1-.415-.293h.035a.329.329,0,0,0,.173.032h.208c.069,0,.138-.032.208-.032a.124.124,0,0,0,.07-.033l.034-.033.069-.033.277-.261.034-.065.035-.065c0-.033.034-.065.034-.1v-.13c0-.033,0-.033-.034-.065a.112.112,0,0,0-.035-.065l-.1-.163-.069-.1-.069-.1.035-.1.069-.163a.969.969,0,0,1,.138-.261l.139.2.1.163a1.139,1.139,0,0,0,.207.2h.38Z" transform="translate(-604.055 -206.274)" fill="#231f20"/>
    <path id="Path_156" data-name="Path 156" d="M661.388,305.905l-.519.065-.035-.033-.069-.1c-.035-.033-.035-.1-.069-.13l-.069.293-.623.065-.1-.749.519-.065a.072.072,0,0,0-.07-.065l-.034-.033-.035-.033h-.035l-.069-.033h-.069l-.1.033h-.069a.587.587,0,0,1,.069-.261l.069-.26a.652.652,0,0,1,.415-.228.346.346,0,0,1,.346.1.93.93,0,0,1,.277.358c0,.065-.035.163-.035.228l-.035.13.242-.033Z" transform="translate(-607.455 -205.237)" fill="#231f20"/>
    <path id="Path_157" data-name="Path 157" d="M664.565,302.121l-.208.456.035.163.034.1.035.13.069.228.035.1v.586c0,.032,0,.032-.035.065,0,.033-.034.033-.069.033l-.622.1-.139-.717.519-.1h0a2.607,2.607,0,0,0-.139-.489,1.172,1.172,0,0,0-.173-.358l-.035-.033c0-.033-.034-.033-.034-.065l-.1-.1a.729.729,0,0,1,.069-.261,1.537,1.537,0,0,1,.138-.358l.034.033v.065l.035.033c0,.033.035.033.069.065l.277.163Z" transform="translate(-609.941 -203.374)" fill="#231f20"/>
    <path id="Path_158" data-name="Path 158" d="M667.857,302.633c.035.1.035.228.069.358v.228l-.1.358h-.035a2.337,2.337,0,0,0-.173-.521l-.242-.651-.1-.326-.069-.2.069-.26.1-.423.035.033.035.065.035.1.069.13.1.325.034.065.035.065.035.13.034.1.034.1Z" transform="translate(-612.229 -203.105)" fill="#231f20"/>
    <path id="Path_159" data-name="Path 159" d="M672.58,297.863l-.069.2-.1.261-.173-.033c-.1-.033-.208-.033-.277-.065l-.069.2-.069.13-.208-.032-.312-.1a.582.582,0,0,1,.069-.26l.069-.228c.1.033.173.1.277.1l.173.032.069-.228.069-.13a1.269,1.269,0,0,0,.311.13Zm1.384,2.117-.346.13h-.034s-.035,0-.035-.033l-.138-.163-.069-.1-.1-.13v.391c0,.033,0,.033-.035.065l-.034.032h-.07a2.825,2.825,0,0,0-.519.065l-.138.033-.1.033c-.034-.163-.069-.326-.1-.456a.75.75,0,0,1,0-.391c.035-.065.035-.1.069-.163l.138-.228.173-.26-.035-.065-.069-.1a1.349,1.349,0,0,1,.035-.293.6.6,0,0,1,.034-.228h0a4.043,4.043,0,0,1,.312.488l.346.586c.034.033.034.065.069.1.035,0,.035.033.069.033l.242-.1Zm-.9-.554c-.035-.065-.069-.1-.1-.163l-.1-.2v.033l-.034.065-.035.1-.069.1-.069.1h.138l.1-.033Z" transform="translate(-614.91 -200.744)" fill="#231f20"/>
    <path id="Path_160" data-name="Path 160" d="M678.914,297.912l-.277.131a.362.362,0,0,1-.173-.065l-.277-.2v.228a.526.526,0,0,1-.034.228l-.692.293-.311-.684.657-.293-.242-.1-.45-.2-.277-.1-.035-.13v-.13l-.069-.326-.034-.163.969-.814a.908.908,0,0,1,.069.293.677.677,0,0,1,.035.26l-.727.651,1.28.554.208-.1Z" transform="translate(-618.442 -199.329)" fill="#231f20"/>
    <path id="Path_161" data-name="Path 161" d="M682.458,297.689l-.415.2c-.035,0-.069,0-.139-.065l-.1-.1.035.13v.13l-.035.033-.139.065-.346-.651.242-.1h0V297.3a1.689,1.689,0,0,0-.208-.326.456.456,0,0,0-.1-.13l-.1-.13-.138-.163-.035-.065-.035-.032-.035-.033V295.8c.035.033.069.033.1.1l.1.163.761,1.107.242-.13Z" transform="translate(-621.189 -199.463)" fill="#231f20"/>
    <path id="Path_162" data-name="Path 162" d="M686.027,297.41l-.277.163c0,.033.035.065.035.13v.1h-.139l-.207-.033-.554-.1v.1a.523.523,0,0,1,.035.228c0,.032,0,.032-.035.065l-.034.033-.069.033-.381-.651.208-.13-.035-.163c0-.065-.034-.163-.034-.228a.627.627,0,0,1,.1-.358c.034-.033.069-.1.1-.13l.035-.033.069-.033h.069c.034,0,.034,0,.069.033l.035.065c.035.065.069.1.1.163l.035.033.035.033.069.065a.714.714,0,0,0,.277.13l.138-.065Zm-.934-.326h0l-.035-.065-.035-.033-.035-.033c-.034-.033-.069-.065-.1-.065h-.035c-.035,0-.035.033-.069.065,0,.033-.035.065,0,.1h.173Z" transform="translate(-623.478 -199.868)" fill="#231f20"/>
    <path id="Path_163" data-name="Path 163" d="M689.561,295.177l-.277.163c0,.033.034.065.034.1v.1h-.381l-.588-.065v.1a1.962,1.962,0,0,1,.069.228v.065l-.035.033-.069.032-.415-.619.208-.13-.069-.163a.522.522,0,0,1-.035-.228,1.111,1.111,0,0,1,.069-.358c.035-.033.069-.1.1-.13l.034-.032.069-.065h.069c.035,0,.035,0,.069.032l.035.065c.035.033.069.1.1.13l.035.033.034.032.069.033a.478.478,0,0,0,.277.1l.138-.065Zm-.969-.293h0l-.035-.065-.035-.032-.034-.033c-.035-.033-.069-.033-.1-.065h-.035c-.035,0-.035.032-.069.065v.1l.312.032Z" transform="translate(-625.766 -198.385)" fill="#231f20"/>
    <path id="Path_164" data-name="Path 164" d="M690.4,290.5l.035.489.1.13.069.1.1.1.173.2.069.1.034.065.138.261.1.2v.065c0,.033-.035.033-.035.065l-.519.358-.484-.586.415-.293V291.7a3.53,3.53,0,0,0-.346-.391,2.223,2.223,0,0,0-.311-.261l-.035-.032c-.034,0-.034-.033-.069-.033-.034-.033-.069-.033-.138-.033a.724.724,0,0,1-.069-.261,1.48,1.48,0,0,1-.035-.391h.035l.034.032.035.033.034.033c.035,0,.035.033.069.033l.346.033Z" transform="translate(-626.878 -195.755)" fill="#231f20"/>
    <path id="Path_165" data-name="Path 165" d="M693.342,289.373l.208.293.1.2.069.358h-.034a4.735,4.735,0,0,0-.415-.423l-.519-.488-.242-.228-.138-.163-.069-.293-.1-.423h.069l.069.065.069.065.1.1.242.261.034.065.035.065.1.1.069.1.069.065Z" transform="translate(-628.578 -194.339)" fill="#231f20"/>
    <path id="Path_166" data-name="Path 166" d="M673.927,211.723l-.173.2-.208.261-.173-.1a1.919,1.919,0,0,1-.277-.2l-.173.2-.1.13-.208-.13a1.89,1.89,0,0,1-.311-.228l.208-.293.208-.228a.915.915,0,0,0,.277.228l.173.1.173-.228.1-.13a1.168,1.168,0,0,0,.311.26Zm.623,2.931H674a.033.033,0,0,1-.035-.033l-.1-.228-.035-.163-.034-.2-.1.261-.069.2c0,.033-.034.033-.069.065l-.034.033h-.069a4.238,4.238,0,0,0-.623-.13h-.242q.052-.293.1-.586a1.583,1.583,0,0,1,.173-.423c.035-.065.1-.1.173-.163l.242-.2.312-.228-.034-.1-.035-.13a2.514,2.514,0,0,1,.173-.326,1.043,1.043,0,0,1,.138-.228h.035v.033c0,.065.069.293.138.684l.138.814c0,.033.035.1.035.13s.035.033.069.065h.311Zm-.8-.977a.524.524,0,0,0-.035-.228l-.069-.261-.035.033-.069.065-.069.1-.1.1-.1.065.035.033.1.033h.138Z" transform="translate(-615.564 -142.484)" fill="#231f20"/>
    <path id="Path_167" data-name="Path 167" d="M681.542,215.4h-2.007c-.035-.033-.069-.033-.1-.065l-.035-.065-.034-.065-.069-.13-.069.13-.1.2H678.6v-.912h.623l-.035-.1v-.456l.173-.228c.069-.1.173-.2.243-.293l.034.1.035.1v.749a.072.072,0,0,0,.069.065h1.73Zm-1.661-2.573-.173.2-.208.261-.208-.13a1.884,1.884,0,0,1-.311-.228l.208-.293.207-.228a1.175,1.175,0,0,0,.312.261Z" transform="translate(-619.684 -143.225)" fill="#231f20"/>
    <path id="Path_168" data-name="Path 168" d="M689.111,217.114v.261l-.035.1-.035.1-.1.326c0,.033-.034.065-.069.1l-.069.065h-.623l-.1-.1-.069.065c0,.033-.035.033-.069.033h-.554l-.035-.033v-.065l-.1.13H687v-.912h.242l.035-.163.034-.163v-.033l.034-.065.139-.163a1.46,1.46,0,0,1,.208-.228c.034,0,.034.033.034.065v.2c0,.033,0,.065-.034.065l-.069.26v.163h.45v-.228l.1-.2.069-.1q.1-.2.208-.2v.033l-.069.391a1.047,1.047,0,0,0-.035.326h.277v-.326l.173-.293c.1-.13.173-.228.208-.228v.651l.1.163Z" transform="translate(-625.178 -145.855)" fill="#231f20"/>
    <path id="Path_169" data-name="Path 169" d="M699.576,218.363h-.45a.112.112,0,0,1-.034-.065l-.035-.1-.07.1c-.034.033-.034.065-.069.065h-.588l-.1-.1-.069.065c0,.033-.035.033-.069.033h-.415v.13l-.035.1a.445.445,0,0,1-.069.2.836.836,0,0,1-.173.293,1.44,1.44,0,0,1-.381.228,1.461,1.461,0,0,1-.519.1h-.173a.736.736,0,0,1-.45-.228.663.663,0,0,1-.173-.423,1.617,1.617,0,0,1,.242-.814,1.571,1.571,0,0,1,.415-.554h.069l-.1.2-.069.13c-.035.1-.069.228-.1.358v.293c0,.033.035.065.035.1a.482.482,0,0,0,.277.163h.519l.069-.033a1.106,1.106,0,0,0,.346-.163v-.065a.863.863,0,0,0-.1-.423c-.069-.163-.139-.326-.208-.456l.138-.26a2.556,2.556,0,0,1,.173-.326l.035.033.1.13.242.489h.38l.035-.228.173-.293a.584.584,0,0,1,.173-.228.28.28,0,0,1,.034.163v.26l-.034.326h.277c0-.065.035-.1.035-.163v-.163l.1-.163c.034-.033.034-.065.069-.13a.264.264,0,0,1,.138-.13.335.335,0,0,1,.035.163v.521h.346Z" transform="translate(-630.867 -146.192)" fill="#231f20"/>
    <path id="Path_170" data-name="Path 170" d="M709.733,217.114v.358l-.034.1-.1.326c0,.033-.034.065-.069.1l-.069.065h-.589l-.1-.1-.069.065c0,.033-.034.033-.069.033h-.554l-.035-.033v-.065l-.1.13H707v-.912h1.038l.035-.163.035-.163v-.033l.035-.065.138-.163a1.483,1.483,0,0,1,.208-.228c.034,0,.034.033.034.065v.2c0,.033,0,.065-.034.065l-.069.26v.163h.45l.035-.228.1-.2.069-.1q.1-.2.208-.2v.033l-.069.391a1.042,1.042,0,0,0-.035.326h.277v-.326l.173-.293c.1-.13.173-.228.208-.228v.651l-.1.163Z" transform="translate(-638.256 -145.855)" fill="#231f20"/>
    <path id="Path_171" data-name="Path 171" d="M716.561,212.288a.166.166,0,0,1-.069.13l-.069.065a2.289,2.289,0,0,0-.242.065,1.916,1.916,0,0,0-.277.2h-.035v-.065l.173-.2-.138-.033a.072.072,0,0,1-.069-.065c0-.033-.035-.065-.035-.1a.558.558,0,0,1,.138-.326c.1-.13.173-.163.277-.163a.132.132,0,0,1,.1.033.115.115,0,0,1,.035.1V212l-.035.065-.069.1-.069-.065a.132.132,0,0,0-.1-.032h-.035l-.034.032c0,.033,0,.033.034.065l.1.033.1.033h.242Zm.208,2.7h-.761a.112.112,0,0,1-.035-.065v-.749l-.035-.521a2.922,2.922,0,0,1-.035-.456l.208-.293a1.821,1.821,0,0,0,.208-.261l.069.13c0,.065.035.13.035.2l.035.261v.847h.311v.912Z" transform="translate(-644.011 -142.821)" fill="#231f20"/>
    <path id="Path_172" data-name="Path 172" d="M719.826,212.558l-.173.2-.207.261-.173-.1a1.935,1.935,0,0,1-.277-.2l-.173.2-.1.13-.207-.13a1.874,1.874,0,0,1-.311-.228,1.837,1.837,0,0,1,.207-.261l.173-.2a.921.921,0,0,0,.277.228l.173.1.173-.228.1-.13a2.5,2.5,0,0,0,.312.261Zm.208,1.466v.261l-.035.261v.065l-.034.065-.034.065-.035.1-.07.2-.1.228H718.3v-.912h1.28s.035,0,.035-.033v-.065c0-.033,0-.033-.035-.065l-.035-.1c-.069-.13-.173-.228-.242-.358,0-.065.034-.1.07-.163l.069-.13.069-.13a1.278,1.278,0,0,1,.173-.293.841.841,0,0,1,.243.358l.069.163.069.163c-.034.163,0,.228-.034.326Z" transform="translate(-645.581 -143.09)" fill="#231f20"/>
    <path id="Path_173" data-name="Path 173" d="M588.707,215.433a1.437,1.437,0,0,1-.1.554c-.069.2-.173.293-.277.293H585.8v-.814h1.315a1.052,1.052,0,0,1,.173-.554,1,1,0,0,1,.173-.326v-.228l.034-.065.035-.13.035-.1L587.6,214a3.636,3.636,0,0,1,.554.456,2.009,2.009,0,0,1,.415.488A1.3,1.3,0,0,1,588.707,215.433Zm-.9-.26c0-.033-.035-.1-.035-.13a.192.192,0,0,0-.173-.1.769.769,0,0,0-.173.13.7.7,0,0,0-.1.163c0,.033.035.065.1.1a.219.219,0,0,0,.139.033.253.253,0,0,0,.1-.1c.034-.065.139-.065.139-.1Zm.588.326a.444.444,0,0,0-.069-.2c-.069-.065-.1-.13-.138-.13h-.035a.242.242,0,0,0-.069.13v.033l.035.065h0l.069.032h.277Z" transform="translate(-558.998 -144.304)" fill="#231f20"/>
    <path id="Path_174" data-name="Path 174" d="M597.165,215.091a1.044,1.044,0,0,1-.035.326v.163a.115.115,0,0,1-.035.1l-.035.1-.035.033-.035.032h0l-.034-.032-.1-.391-.069-.326-.034-.163-.035-.13a2.757,2.757,0,0,0-.173-.488l-.1-.228a.8.8,0,0,0-.138-.228l.069-.13.069-.13a.587.587,0,0,1,.208-.293c.069.13.173.261.242.423s.139.391.242.684a1.311,1.311,0,0,1,.069.358v.163Z" transform="translate(-565.864 -143.832)" fill="#231f20"/>
    <path id="Path_175" data-name="Path 175" d="M603.627,213.656a1.32,1.32,0,0,1-.069.358c-.035.13-.1.2-.208.2h-.1c-.034,0-.069-.033-.1-.065l-.1.1-.138.033c.035.065.035.1.069.163l.035.163a1.051,1.051,0,0,1,.034.326,3.027,3.027,0,0,1-.1.782l-.035.033h-.035l-.1-.326-.035-.13-.035-.1a.966.966,0,0,1-.069-.261l-.1-.293c-.035-.065-.069-.163-.1-.228a1.3,1.3,0,0,0-.173-.293l-.1-.13-.138-.163.1-.261a.844.844,0,0,1,.173-.293c.035.033.035.1.069.13l.1.13a.355.355,0,0,0,.242.13c.035,0,.1-.033.173-.13l.069-.228c0-.033,0-.033.034-.033s.035,0,.069.033l.035.163a.459.459,0,0,0,.1.13h.035c.034,0,.069-.033.1-.065s.034-.065.034-.13v-.1c.035-.033.035-.065.1-.1a.187.187,0,0,1,.035.13v.1Z" transform="translate(-569.592 -143.765)" fill="#231f20"/>
    <path id="Path_176" data-name="Path 176" d="M610.692,213.884c-.035.033-.1.065-.1.1l-.035.033-.034.065-.035.065-.208.456-.1.326-.069.228-.069.228-.035.2a.072.072,0,0,1-.07.065h0l-.034-.033a1.774,1.774,0,0,0-.138-.456,3.361,3.361,0,0,0-.242-.619,2.281,2.281,0,0,0-.277-.489l-.069-.065-.069-.065a1.115,1.115,0,0,1,.069-.358.6.6,0,0,1,.1-.326.619.619,0,0,1,.242.163c.034.065.069.1.1.163l.1.163.138.358.1.391.069-.326.069-.2.035-.065.035-.065.035-.065a2.4,2.4,0,0,1,.242-.391l.1-.1.139-.065.069.2Z" transform="translate(-574.235 -143.765)" fill="#231f20"/>
    <path id="Path_177" data-name="Path 177" d="M617.88,215.247l-.207.2c-.1.1-.208.163-.242.2l-.346-.163a.874.874,0,0,1-.346-.26c-.035-.033-.069-.1-.1-.13a.188.188,0,0,1-.034-.13v-.065c0-.032.034-.032.034-.065.069-.1.173-.2.243-.293l.1-.13.1-.1-.242-.163a1.435,1.435,0,0,1-.208-.228l-.034-.1v-.065l.034-.033.035-.033.139-.163.1-.1.1-.1.1-.1.1-.1.1-.065.1-.065h.034v.2a.236.236,0,0,1-.034.13.344.344,0,0,1-.173.13l-.138.065c0,.033.07.1.208.163l.277.163c.035.033.069.065.069.1a.115.115,0,0,1-.035.1l-.1.1-.07.1-.242.293-.034.065c0,.032,0,.032.034.065l.381.293A2.754,2.754,0,0,0,617.88,215.247Z" transform="translate(-579.14 -143.63)" fill="#231f20"/>
    <path id="Path_178" data-name="Path 178" d="M621.89,217.125s-.8.423-1.246,0c0,0-1.869-1.889-2.6-2.54a3.5,3.5,0,0,0-1.038-4.494s-.069,1.824-1.211,2.28c0,0-18.86-16.642-39.9-11.334a51.172,51.172,0,0,1,37.823,13.223s-1,1.889-2.8,1.4a3.219,3.219,0,0,0,4.429.716l4.637,4.364a1.464,1.464,0,0,0,2.007-.293c0-.032.034-.032.034-.065A2.563,2.563,0,0,0,621.89,217.125Zm-6.679-1.4c-.1.391-.588.586-1.142.489s-.9-.521-.831-.879c.1-.391.588-.586,1.142-.488s.9.521.831.879Zm1.557-.423a1.266,1.266,0,0,1-1.661-.423c-.484-.586-.519-1.27-.069-1.6a1.266,1.266,0,0,1,1.661.423c.45.586.519,1.27.069,1.6Zm1.246-2.671c-.138.521-.554.879-.969.782a.855.855,0,0,1-.519-1.107c.138-.521.554-.879.969-.782a.915.915,0,0,1,.519,1.107Z" transform="translate(-552.523 -134.858)" fill="#ba8d2d"/>
    <path id="Path_179" data-name="Path 179" d="M605.605,16.61S580.447,18.075,557.055,0c0,0-20.243,16.74-48.447,16.74,0,0-6.748,60.056,48.447,95.816C557.055,112.523,608.962,82.625,605.605,16.61ZM557.02,110.439c-53.084-34.392-46.613-92.2-46.613-92.2,27.165,0,46.613-16.089,46.613-16.089C579.513,19.541,603.7,18.14,603.7,18.14,606.955,81.681,557.02,110.439,557.02,110.439Z" transform="translate(-508.347)" fill="#106b38"/>
    <path id="Path_180" data-name="Path 180" d="M622.063,70.032l-24.708-.13c-1.626-2.833-3.529-2.7-3.529-2.7-2.353.326-3.876,2.8-3.876,2.8H565.207A1.8,1.8,0,0,0,564,71.79h59.832C623.863,70.357,622.063,70.032,622.063,70.032Zm-30.833-.1s1.108-2.052,2.63-2.052a2.839,2.839,0,0,1,2.526,2.052Z" transform="translate(-544.738 -45.312)" fill="#ba8d2d"/>
    <path id="Path_181" data-name="Path 181" d="M705.758,107.99l-9.066-25.664V80.6H696.1v1.726l-10.485,25.7H683.3c.554,4.266,5.191,7.556,11.9,7.556,12.319,0,12.7-7.556,12.7-7.556h-2.146Zm-9.655,0H686.38l9.724-24.3Zm.554,0V83.759l8.478,24.3Z" transform="translate(-622.758 -54.35)" fill="#ba8d2d"/>
    <path id="Path_182" data-name="Path 182" d="M566.424,107.922l-9.066-25.7V80.5h-.588v1.726l-10.485,25.7H544c.554,4.266,5.19,7.556,11.9,7.556,12.319,0,12.7-7.556,12.7-7.556Zm-9.655,0h-9.724l9.724-24.3Zm.588,0V83.594l8.478,24.361Z" transform="translate(-531.662 -54.283)" fill="#ba8d2d"/>
    <path id="Path_183" data-name="Path 183" d="M643.506,120.476v24A4.97,4.97,0,0,0,646,146.824h-7.2a4.694,4.694,0,0,0,2.423-2.573l.311-23.938C641.5,120.346,643.506,120.118,643.506,120.476Z" transform="translate(-593.657 -81.101)" fill="#991e21"/>
    <path id="Path_184" data-name="Path 184" d="M628.853,100.815a3.593,3.593,0,0,0-.138-2.475c-.935-2.605-5.468-3.745-7.406-.521a3.574,3.574,0,0,0-.485,3s-2.319-3.192.45-5.8c0,0-5.018,2.149-5.433,5.113,0,0-1-3.061,2.6-5.8,0,0-4.429.977-5.19,2.833a6.086,6.086,0,0,1,4.118-4.918s-3.806.163-5.364,1.6a9.34,9.34,0,0,1,6.852-3.387s-1.246-2.182-4.983-3.322c0,0,5.156-1.205,7.786,2.084,0,0-.588-4.071-1.453-4.885a7.535,7.535,0,0,1,3.391,3.192s.173-3.55,1.211-4.527a11.393,11.393,0,0,1,1.142,4.429s.45-1.889,3.357-3.159a15.59,15.59,0,0,0-1.384,4.95,8.687,8.687,0,0,1,7.786-2.084s-3.634,1.238-5.018,3.387a8.925,8.925,0,0,1,6.886,3.289,10.463,10.463,0,0,0-5.4-1.563,6.5,6.5,0,0,1,4.153,4.82,7.094,7.094,0,0,0-5.122-2.638s3.7,2.215,2.388,5.8c0,0,0-2.964-5.295-5.146C628.368,94.985,631.724,97.3,628.853,100.815Z" transform="translate(-576.131 -55.968)" fill="#096b37"/>
    <path id="Path_185" data-name="Path 185" d="M588.187,220.782a1.472,1.472,0,0,0,2.007.391l.035-.033,4.637-4.364a3.218,3.218,0,0,0,4.429-.717,2.636,2.636,0,0,1-2.8-1.4,51.268,51.268,0,0,1,37.858-13.223c-21-5.309-39.9,11.334-39.9,11.334-1.142-.456-1.211-2.28-1.211-2.28a3.5,3.5,0,0,0-1.038,4.494c-.727.684-2.6,2.54-2.6,2.54-.45.456-1.211,0-1.211,0A2.767,2.767,0,0,0,588.187,220.782Zm7.683-5.634c.554-.1,1.038.1,1.141.488s-.277.782-.83.879a.9.9,0,0,1-1.142-.489c-.035-.358.346-.749.83-.879Zm-2.319-1.14a1.273,1.273,0,0,1,1.661-.423,1.086,1.086,0,0,1-.069,1.6,1.309,1.309,0,0,1-1.661.423,1.216,1.216,0,0,1,.069-1.6Zm-.726-2.117A1,1,0,1,1,592.3,213c-.138-.554.1-1.042.519-1.107Z" transform="translate(-560.278 -135.127)" fill="#ba8d2d"/>
    <path id="Path_186" data-name="Path 186" d="M635.4,270.154c.034.1.034.2.069.293a2.452,2.452,0,0,0,.173.456,3.787,3.787,0,0,1,.45,1.01,4.306,4.306,0,0,1-1.211.814l-.623.293c-.519.228-1.039.391-1.523.586a1.075,1.075,0,0,0-.346.13c-.311.065-.657.163-.969.261a7.258,7.258,0,0,0-.761.2.463.463,0,0,0-.208.033c-.692.13-1.349.2-2.042.293l-1.142.1a2.771,2.771,0,0,0-.519,0l-1.385-.163c-.865-.1-1.661-.228-2.491-.358l-1.211-.26-.726-.2a6.7,6.7,0,0,1-1.626-.782c-.07,0-.1,0-.1.065l1.038.782a5.208,5.208,0,0,0,1.9.847c.138.033.554.13,1,.228a14.783,14.783,0,0,0,2.042.326,17.239,17.239,0,0,0,1.868.163l.035.033h.069l.934-.033a.464.464,0,0,0,.208-.033c.277-.033.415,0,.415-.033.8-.1.831-.1.865-.1s.346-.065.346-.065a19.2,19.2,0,0,0,2.7-.684,1.755,1.755,0,0,1,.38-.13,13.08,13.08,0,0,0,2.561-1.238,5.117,5.117,0,0,0,.415-.423,3.523,3.523,0,0,0,.484-1.205,7.421,7.421,0,0,0-.45-1.107v-.065a1.013,1.013,0,0,0,.311.033v-.1c-.208-.228-.415-.489-.623-.717a.107.107,0,0,0-.138-.033,1.564,1.564,0,0,0-.277.651Z" transform="translate(-580.84 -181.633)" fill="#231f20"/>
    <path id="Path_187" data-name="Path 187" d="M667.088,268.5a2.479,2.479,0,0,0,.484.065,1.657,1.657,0,0,0,.45-.033c.277-.065.381-.1.415-.1a.5.5,0,0,1,.035.488,8.519,8.519,0,0,1-1.28.945,30.3,30.3,0,0,1-3.6,1.759c-.035,0-.588.228-.381.326l.623-.2a12.319,12.319,0,0,0,1.834-.391,4.182,4.182,0,0,1,.657-.326c.415-.228.83-.489,1.211-.749l.588-.489a3.373,3.373,0,0,0,.623-1.205c.034-.1.034-.2.069-.293a1.437,1.437,0,0,1,.312-.163c.069-.033.139-.1.207-.13a1.355,1.355,0,0,0,.416-1.205,1.189,1.189,0,0,1-.1-.326,4.112,4.112,0,0,0-.381-.651c.1,0,.207.1.311.065v-.065a4.576,4.576,0,0,0-.726-.879c-.069-.033-.069-.033-.139,0a3.085,3.085,0,0,0-.173.521c-.035.2,0,.2.138.326a.187.187,0,0,1,.034.13,9.641,9.641,0,0,0,.554,1.01c.069.13.242.326.207.488a2.383,2.383,0,0,1-.727.293,1.226,1.226,0,0,0-1-.912c-.589.065-.8.651-.935,1.107A.438.438,0,0,0,667.088,268.5Zm.1-.912c.277-.26.692.065.9.228l-.346.033c-.174-.033-.45,0-.554-.163Z" transform="translate(-609.591 -178.644)" fill="#231f20"/>
    <path id="Path_188" data-name="Path 188" d="M677.408,281.1h-.069c-.173.326-.38,1.14.138,1.3a.478.478,0,0,0,.277-.586h-.034c-.1.1-.069.261-.242.261-.346-.13-.1-.684-.069-.912Z" transform="translate(-618.735 -189.551)" fill="#231f20"/>
    <path id="Path_189" data-name="Path 189" d="M682.288,269.151c.069,0,.312.033.346-.033s0-.033,0-.065c-.346-.2-.762-.358-1.108-.554h-.069l-.035.033a5.674,5.674,0,0,1,.069.684,1.426,1.426,0,0,0,.311.163l.277.293c.207.163.45.326.692.488.485.261.969.521,1.419.814.1.1.242.163.277.326a1.911,1.911,0,0,1-.934.684,15.7,15.7,0,0,1-2.388,1.107.775.775,0,0,1-.83-.2,1.111,1.111,0,0,1,0-1.042,2.651,2.651,0,0,1,.242-.423c.1.033.173.13.277.13a5.57,5.57,0,0,0,.381-.456c.242.13.45.26.657.391h.069l.45-.521v-.065c-.069-.033-.381-.228-.692-.423-.208,0-.277.456-.45.456-.034-.1-.312-.2-.381-.261s-.208-.2-.311-.163c-.138.163-.415.424-.415.619l.277.228-.312.684c-.069.261-.138.488-.208.749v.391c.035.065.035.163.069.228a.856.856,0,0,0,.761.456,2.052,2.052,0,0,0,.762-.228v-.1a3.285,3.285,0,0,0,.485-.228c.588-.26,1.142-.586,1.661-.879l.035.033h.034v-.065l.381-.228a1.684,1.684,0,0,0,.45-.521c.035-.065.035-.163.069-.261-.034-.456-.069-1.01-.554-1.205l-.069-.065c-.519-.293-1.073-.586-1.557-.912C682.426,269.249,682.288,269.184,682.288,269.151Z" transform="translate(-620.534 -181.054)" fill="#231f20"/>
    <path id="Path_190" data-name="Path 190" d="M613.639,282.705l.311-.2c.484-.228.934-.456,1.35-.651a.532.532,0,0,0,.242-.358c-.034,0-.1.065-.138.1l-.554.261a5.565,5.565,0,0,0-1.246.651.506.506,0,0,0-.1.293A.481.481,0,0,0,613.639,282.705Z" transform="translate(-577.112 -189.821)" fill="#231f20"/>
    <path id="Path_191" data-name="Path 191" d="M640.642,281.2c-.069,0-.173.228-.173.261-.1.26-.242.716.069.879.173-.033.277-.326.277-.489h-.034c-.035.065-.1.2-.208.13-.207-.261-.069-.521.069-.782Z" transform="translate(-594.669 -189.618)" fill="#231f20"/>
    <path id="Path_192" data-name="Path 192" d="M648.139,284h0c-.035.033-.069.033-.069.065-.035-.033-.035-.033-.069,0v.065h.034l.035-.033a.254.254,0,0,0,.069-.1Z" transform="translate(-599.674 -191.507)" fill="#231f20"/>
    <path id="Path_193" data-name="Path 193" d="M650.946,278.9h0a2.277,2.277,0,0,0-.346.782c0,.261,0,.554.312.684a.729.729,0,0,0,.276-.554h-.034a.507.507,0,0,1-.208.26c-.276-.032-.242-.488-.207-.684A1.825,1.825,0,0,0,650.946,278.9Z" transform="translate(-601.374 -188.067)" fill="#231f20"/>
    <path id="Path_194" data-name="Path 194" d="M604.9,265.1a1.435,1.435,0,0,0,.934.554,2.833,2.833,0,0,0,.519-.065c.138-.065.312-.13.45-.2l.415-.326a4.077,4.077,0,0,1,.415-.358,7.1,7.1,0,0,1,2.111-1.465,1.593,1.593,0,0,0,.588.814c.346.228.969.391,1.177-.065a4.4,4.4,0,0,0,.1-.944.9.9,0,0,0-.07-.293c-.311-.488-.9-.423-1.384-.391-.173.033-.1.065-.173-.163l-.208-1.14c-.1-.684-.173-1.205-.242-1.693s-.069-.749-.1-1.3c.208.033.277.391.45.423h.034v-.033c-.242-.521-.45-1.01-.692-1.5a.444.444,0,0,0-.173-.261h-.035a.954.954,0,0,0-.138.261.663.663,0,0,0-.173.423.7.7,0,0,1,.173.26c.069.619.138,1.205.207,1.824a19.034,19.034,0,0,0,.45,3.094v.033a6.171,6.171,0,0,0-1.35.847c-.069.065-.069.065-1.349,1.14a2,2,0,0,1-.45.326c-.139.1-.312.13-.45.228a.746.746,0,0,1-.831-.293,1.444,1.444,0,0,1,0-1.075c.139-.326.139-.326.277-.619a3.948,3.948,0,0,0,.415-.619c.035,0,.139.163.208.2.381.2.519,0,.588-.326,0-.1.035-.488-.069-.554H606.5v.033c-.034.163-.069.424-.346.358-.277-.228-.173-.586-.1-.879a2.174,2.174,0,0,1,.173-.424c.069-.1.277-.391.208-.521h-.07a3.276,3.276,0,0,0-.623,1.3l-.034.293a1.711,1.711,0,0,0,.034.293c0,.065-.173.228-.277.358a4.958,4.958,0,0,0-.623,1.368c0,.13-.034.228-.034.358a1.8,1.8,0,0,0,.069.423Zm5.329-2.052a4.989,4.989,0,0,1,.692.065c.069.033.381.2.346.293l-.138.065h-.173a.78.78,0,0,1-.208-.033.875.875,0,0,1-.519-.391Z" transform="translate(-571.423 -173.098)" fill="#231f20"/>
    <rect id="Rectangle_4" data-name="Rectangle 4" width="0.035" height="0.033" transform="translate(58.12 91.745)" fill="#231f20"/>
    <path id="Path_195" data-name="Path 195" d="M623.754,258.5a20.506,20.506,0,0,1,.277,2.9,6.949,6.949,0,0,0,.07.847,4.415,4.415,0,0,0,.346.945c.1.13.173.261.277.391a1.7,1.7,0,0,0,.277.228c.208.1.45.2.692.293-.035.13-.069.26-.1.423,0,.065,0,.065.035.1h.035l.207-.423h.658a4.485,4.485,0,0,1,.657-.065,5.967,5.967,0,0,1,.623.065,5.892,5.892,0,0,0,.865,0,2.828,2.828,0,0,1,.519-.065c.484-.065.969-.163,1.384-.26a6.421,6.421,0,0,0,1.592-.489c.277-.1.277-.1,1.8-.651a2.163,2.163,0,0,1,.1.26,1.387,1.387,0,0,0,.969.749,2.083,2.083,0,0,0,.45-.033.713.713,0,0,0,.312-.554,2.3,2.3,0,0,0-.173-.814c-.069-.065-.139-.163-.208-.228a2.069,2.069,0,0,0-1.176-.13H634.2a3.075,3.075,0,0,1-.173-.684c-.1-.684-.208-1.335-.312-2.019-.034-.521-.1-.879-.139-1.335a4.6,4.6,0,0,1-.069-.684s.242.261.346.391c.138,0,.069-.13.034-.2-.138-.489-.346-1.01-.519-1.466l-.035-.033a1.31,1.31,0,0,0-.346.684.505.505,0,0,1,.1.293h0c.069.814.139,1.6.277,2.41a26.315,26.315,0,0,0,.484,2.8v.065l-.761.261c-.415.163-.831.261-1.211.423-.38.1-.761.228-1.176.293a7.489,7.489,0,0,1-1.177.228l.277-.261a5.673,5.673,0,0,0,.519-1.01.858.858,0,0,0-.035-.586,1.464,1.464,0,0,0-1-.488,3.055,3.055,0,0,0-.761.1l-.346.13c-.276.163-.554.326-.83.521a6.3,6.3,0,0,0-.831.814c.035-.13.1-.293.138-.423l.1-.684a4.729,4.729,0,0,0-.035-.716c-.1-1.042-.242-2.019-.346-3.061a3.694,3.694,0,0,1-.035-.619,2.971,2.971,0,0,1,.311.326c.242.1-.069-.489-.069-.521a10.725,10.725,0,0,0-.45-1.107.132.132,0,0,0-.1-.033,2.89,2.89,0,0,0-.312.554,2.186,2.186,0,0,0,.1.26c.034.13.034.13.1.489.069,1.238.276,2.508.415,3.745a6.206,6.206,0,0,1-.034,1.791,3.449,3.449,0,0,1-.346.814,1.3,1.3,0,0,1-.346-.065,1.88,1.88,0,0,1-.761-.489,4.415,4.415,0,0,1-.554-2.573c-.035-.521-.1-1.01-.1-1.5-.035-.2-.069-.391-.1-.586a4.773,4.773,0,0,1-.139-.684,1.1,1.1,0,0,1-.069-.326,11.121,11.121,0,0,0-.381-1.14c0-.033-.035-.2-.1-.13-.069.2-.138.391-.208.619v.065a7.489,7.489,0,0,1,.346,1.172A1.085,1.085,0,0,1,623.754,258.5Zm11.766,4.234c.034.163-.208.163-.346.2a1.242,1.242,0,0,1-.657-.326,2.034,2.034,0,0,1,1,.13Zm-8.375-.358c.208-.163.45-.326.692-.489a7.337,7.337,0,0,1,.692-.261l.242-.033h.173c.346.065,1.177.325,1.073.749a3.423,3.423,0,0,1-1.315.717c-.554.13-.658.163-.692.163a9.5,9.5,0,0,1-1.626.163v-.033a3.981,3.981,0,0,1,.761-.977Z" transform="translate(-583.455 -172.491)" fill="#231f20"/>
    <path id="Path_196" data-name="Path 196" d="M668.707,256.972c.035.293.035.293.1,1.042.1.521.173,1.042.277,1.531.173,1.075.346,2.117.484,3.192.035.326,0,.651.035.977h0l.035-.033.242-.717c0-.13.035-.26.035-.391a38.26,38.26,0,0,0-.589-4.4c0-.1-.035-.163-.035-.26a6.252,6.252,0,0,1-.138-.782l.035.033a5.041,5.041,0,0,0,.415.423c.035,0,.035-.065.035-.1-.07-.228-.173-.489-.242-.717a8.225,8.225,0,0,0-.485-.944l-.069-.033h-.034a2.107,2.107,0,0,0-.312.619,1.073,1.073,0,0,0,.208.391A.138.138,0,0,0,668.707,256.972Z" transform="translate(-613.079 -172.491)" fill="#231f20"/>
    <path id="Path_197" data-name="Path 197" d="M607.813,277.1c-.138.326-.311.945.138,1.14.277-.033.242-.261.277-.489v-.1h-.069c-.034.13-.069.261-.242.2a.628.628,0,0,1-.138-.423.509.509,0,0,0,.034-.326Z" transform="translate(-573.294 -186.854)" fill="#231f20"/>
    <path id="Path_198" data-name="Path 198" d="M658.073,256.682c.1.814.173,1.628.312,2.443.1.717.207,1.4.346,2.084.035.293.069.586.139.912.069.586.069.586.1,1.172h.069q.1-.391.208-.782a3.5,3.5,0,0,0-.034-1.042c-.208-1.466-.45-2.931-.623-4.4.035.033.415.619.45.326l-.346-.944-.415-.782a.107.107,0,0,0-.138.033l-.243.554v.065A1.168,1.168,0,0,1,658.073,256.682Z" transform="translate(-606.147 -172.395)" fill="#231f20"/>
    <path id="Path_199" data-name="Path 199" d="M692.292,277.465c0-.032,0-.065-.035-.065s-.035.065.035.065C692.292,277.5,692.257,277.465,692.292,277.465Z" transform="translate(-628.6 -187.056)" fill="#231f20"/>
    <path id="Path_200" data-name="Path 200" d="M663.075,274.907h.069l.415-.554v-.033c-.588-.456-.588-.456-.658-.521h-.034c-.1.13-.1.13-.242.293-.069.1-.173.2-.139.293C662.972,274.81,662.972,274.81,663.075,274.907Z" transform="translate(-609.143 -184.628)" fill="#231f20"/>
    <path id="Path_201" data-name="Path 201" d="M694.2,273.9v.065h.035Z" transform="translate(-629.886 -184.696)" fill="#231f20"/>
    <path id="Path_202" data-name="Path 202" d="M649.569,270.733c.069.2.1.261.346.293.277-.065.311-.489.242-.684h-.035l-.069.2a.264.264,0,0,1-.139.13c-.381.032-.242-.456-.208-.619.035-.1.346-.651.277-.749h-.035a2.577,2.577,0,0,0-.45,1.205A.364.364,0,0,1,649.569,270.733Z" transform="translate(-600.654 -181.594)" fill="#231f20"/>
    <path id="Path_203" data-name="Path 203" d="M611.377,262.969h0l.069-.033.1.163a1.926,1.926,0,0,1,.173.391l-.139.1a.529.529,0,0,0-.1.326l.1-.1a.314.314,0,0,1,.243,0v.033a1.224,1.224,0,0,0-.277.163c-.311.391.069.912.207,1.2l.173.391c.173.554.173.554.208.651a.242.242,0,0,0,.069.163h.035a2.526,2.526,0,0,0-.207-1.01l-.173-.423a4.5,4.5,0,0,1-.277-.586.242.242,0,0,1-.069-.163,1.2,1.2,0,0,1,.588-.26c.035-.065.069-.163.1-.228,0-.163-.242-.293-.38-.293a8.345,8.345,0,0,1,.138-.912c.139-.228.277-.163.381.065h.034a.847.847,0,0,0,.035-.293c-.069-.13-.138-.261-.311-.228-.311.2-.277.684-.346.977-.1-.228-.311-.716-.623-.716a1.487,1.487,0,0,0-.035.391A.971.971,0,0,0,611.377,262.969Z" transform="translate(-575.543 -176.728)" fill="#231f20"/>
    <path id="Path_204" data-name="Path 204" d="M615.677,272.875h.1a.56.56,0,0,0,.138-.456c-.035-.032-.1.1-.1.13-.208.1-.311-.163-.311-.293a1.1,1.1,0,0,0,.1-.456c-.138.033-.173.554-.208.717A.511.511,0,0,0,615.677,272.875Z" transform="translate(-578.355 -183.28)" fill="#231f20"/>
    <path id="Path_205" data-name="Path 205" d="M651.6,273.4Z" transform="translate(-602.028 -184.359)" fill="#231f20"/>
    <path id="Path_206" data-name="Path 206" d="M644.739,268.66c-.208-.13-.277-.065-.346.13-.069.26-.138.619-.208.879h0a1.82,1.82,0,0,1-.173-.26l-.1-.13c-.1-.13-.45-.488-.658-.456a1.023,1.023,0,0,0,0,.456,1.318,1.318,0,0,0,.381.163l.069-.032.208.26.242.456h.034l.035-.033c.138-.586.173-.814.207-1.01a.24.24,0,0,1,.069-.13.661.661,0,0,1,.311.293h.035a.986.986,0,0,0,.035-.456h-.035Z" transform="translate(-596.551 -181.116)" fill="#231f20"/>
    <path id="Path_207" data-name="Path 207" d="M620.411,269.049l.069-.032a2.067,2.067,0,0,1,.381.716l.035.033h.034c.138-.326.173-.716.312-1.042.138-.163.277-.033.38.13.1-.033.069-.293.069-.358-.1-.1-.173-.2-.312-.2-.311.13-.311.814-.415,1.01a2.959,2.959,0,0,1-.242-.424c-.1-.13-.346-.521-.519-.488a.955.955,0,0,0-.1.423C620.1,268.789,620.273,268.919,620.411,269.049Z" transform="translate(-581.428 -180.92)" fill="#231f20"/>
    <path id="Path_208" data-name="Path 208" d="M629.416,268.694c.242-.065.277-.423.242-.619h-.035c-.035.1-.069.228-.207.228-.277-.131-.242-.456-.242-.717.069-.2.1-.358.173-.553l-.034-.032-.069.032a2.4,2.4,0,0,0-.242.847C629.035,268.2,629.035,268.628,629.416,268.694Z" transform="translate(-587.248 -180.043)" fill="#231f20"/>
    <path id="Path_209" data-name="Path 209" d="M641.522,263.4l-.588.293c-1,.456-1.938.879-2.907,1.368a6.438,6.438,0,0,0-1.177.749.523.523,0,0,0,0,.326,13.213,13.213,0,0,1,1.419-.944,11.206,11.206,0,0,1,1.073-.521c.035,0,.069,0,.069-.032l2.007-.944C641.488,263.661,641.661,263.4,641.522,263.4Z" transform="translate(-592.366 -177.615)" fill="#231f20"/>
    <path id="Path_210" data-name="Path 210" d="M688.911,266.9c.173-.033.173-.163.242-.326,0-.065,0-.26-.069-.293l-.034.033c0,.13-.069.293-.242.26-.139-.13-.069-.456-.069-.619,0-.1.138-.424,0-.456a1.386,1.386,0,0,0-.138.651C688.6,266.445,688.6,266.77,688.911,266.9Z" transform="translate(-626.224 -179.032)" fill="#231f20"/>
    <path id="Path_211" data-name="Path 211" d="M675.309,266.2h0a.461.461,0,0,0-.069.293c-.035.13-.069.228-.1.358-.035.26-.1.456.173.554a.5.5,0,0,0,.415-.2.788.788,0,0,0,0-.684l-.1-.13A.506.506,0,0,1,675.309,266.2Zm0,.879c-.069-.033-.1-.033-.1-.1s.035-.326.138-.391c.1.065.312.163.346.293a.488.488,0,0,1-.381.2Z" transform="translate(-617.397 -179.504)" fill="#231f20"/>
    <path id="Path_212" data-name="Path 212" d="M656.633,267.407c.1,0,.139-.033.208-.13a.364.364,0,0,0-.034-.326h-.035c-.035.033-.035.065-.07.13-.1.065-.207-.032-.242-.1,0-.228.1-.456.1-.684h-.035C656.356,266.561,656.149,267.277,656.633,267.407Z" transform="translate(-605.123 -179.571)" fill="#231f20"/>
    <path id="Path_213" data-name="Path 213" d="M682.6,265h0c-.173.261-.484,1.075-.035,1.205a.342.342,0,0,0,.173-.2c0-.033.1-.391.034-.391a.408.408,0,0,1-.208.26c-.311-.1-.035-.684.035-.879Z" transform="translate(-622.123 -178.694)" fill="#231f20"/>
    <path id="Path_214" data-name="Path 214" d="M662.215,255.717c.1.1.311.326.311.456a.39.39,0,0,0-.207.391.107.107,0,0,0,.1-.1c.07,0,.242,0,.277.1l-.207.065c-.243.13-.243.293-.277.521a14.172,14.172,0,0,0,.83,1.824.3.3,0,0,0,.069.228c.173-.391-.138-.944-.346-1.238a8.608,8.608,0,0,1-.38-.814v-.163a2.287,2.287,0,0,1,.623-.2.6.6,0,0,0,.1-.261c-.035-.1-.173-.163-.173-.2l-.277-.13a4.612,4.612,0,0,1,.069-.684c.035-.1.07-.228.208-.228a.5.5,0,0,1,.208.163c.069,0,.069-.261.069-.293a.48.48,0,0,0-.277-.163c-.173.033-.208.13-.242.293a3.754,3.754,0,0,0-.069.619c-.069-.033-.173-.261-.242-.326a2.176,2.176,0,0,0-.519-.423h-.034a1.254,1.254,0,0,0-.035.358,1.113,1.113,0,0,0,.346.163Z" transform="translate(-608.698 -171.951)" fill="#231f20"/>
    <path id="Path_215" data-name="Path 215" d="M636.742,265.321c-.138-.228-.484-.358-.692-.521-.173.033-.381.423-.45.554v.065c.208.163.415.293.623.456.138-.033.242-.2.346-.293h.035c0-.032.035-.032,0-.065C636.638,265.451,636.742,265.386,636.742,265.321Z" transform="translate(-591.565 -178.559)" fill="#231f20"/>
    <path id="Path_216" data-name="Path 216" d="M673.819,260.654a22.645,22.645,0,0,1,2.838-1.4c.1-.032.415-.26.484-.228a.525.525,0,0,0,.1-.326,3.9,3.9,0,0,0-.519.261c-.588.261-1.177.554-1.73.814-.035.033-.173.1-1.108.619-.346.228-.554.326-.588.749A1.216,1.216,0,0,1,673.819,260.654Z" transform="translate(-616.219 -174.446)" fill="#231f20"/>
    <path id="Path_217" data-name="Path 217" d="M683.769,261.335a1.56,1.56,0,0,0-.069.423.922.922,0,0,0,.277.228c.034,0,.1-.033.1-.065a1.716,1.716,0,0,1,.346.651h0l.035-.033c.069-.228.069-.228.242-.912a.113.113,0,0,1,.034-.065c.139-.065.311.1.346.2.1-.033.069-.261.035-.358-.1-.1-.277-.26-.415-.163a4.091,4.091,0,0,0-.312.912h0a2.912,2.912,0,0,0-.242-.456C684.116,261.629,683.907,261.335,683.769,261.335Z" transform="translate(-623.019 -176.137)" fill="#231f20"/>
    <path id="Path_218" data-name="Path 218" d="M634.608,258.6a.661.661,0,0,0-.035.358,1.245,1.245,0,0,0,.346-.228c.761-.423,1.488-.782,2.249-1.173.381-.2.8-.391,1.177-.554.484-.2.969-.391,1.384-.586l.173-.033a.546.546,0,0,0,.139-.391c-.139-.033-.415.13-.519.163-.9.358-1.765.749-2.63,1.173-.761.423-1.454.814-2.215,1.173C634.677,258.531,634.642,258.564,634.608,258.6Z" transform="translate(-590.883 -172.617)" fill="#231f20"/>
    <path id="Path_219" data-name="Path 219" d="M644.5,261.314a.56.56,0,0,0,.242.456.381.381,0,0,0,.242-.489h-.035c0,.033-.034.033-.034.065-.1.13-.173.1-.277-.033-.1-.293.173-.521.173-.814C644.638,260.565,644.535,261.151,644.5,261.314Z" transform="translate(-597.385 -175.66)" fill="#231f20"/>
    <path id="Path_220" data-name="Path 220" d="M621,261.833c.139,0,.139-.033.208-.13a.684.684,0,0,0,.035-.521H621.2c-.035.1-.035.261-.173.261-.242-.1-.277-.358-.277-.586,0-.1.1-.423.1-.456h-.035C620.617,260.791,620.443,261.572,621,261.833Z" transform="translate(-581.772 -175.593)" fill="#231f20"/>
    <path id="Path_221" data-name="Path 221" d="M673.619,257.242a1.845,1.845,0,0,0,.138.228,1.387,1.387,0,0,1,.139.651c-.035.065-.1.2,0,.261.277-.1.173-.749.138-.945a1.175,1.175,0,0,0-.173-.358l-.277-.326c-.069-.065-.311-.293-.416-.26a.558.558,0,0,0-.069.326A2.96,2.96,0,0,1,673.619,257.242Z" transform="translate(-616.088 -172.956)" fill="#231f20"/>
    <path id="Path_222" data-name="Path 222" d="M626.735,256.858c0,.033,0,.033.139.13a2.443,2.443,0,0,1,.588,1.042v.26a3.181,3.181,0,0,1-.035.358h.069v.033l.069-.065a1.545,1.545,0,0,0,.035-1.042,2.336,2.336,0,0,0-.727-1.075c-.1,0-.173.261-.173.293S626.7,256.826,626.735,256.858Z" transform="translate(-585.744 -172.963)" fill="#231f20"/>
    <path id="Path_223" data-name="Path 223" d="M678.336,257.072a.4.4,0,0,0,.173.033l.173-.065a.379.379,0,0,0,.069-.489h-.034c-.069.1-.069.228-.208.228-.208-.1-.173-.13-.138-.358.034-.163.173-.358.1-.521h-.035a1.107,1.107,0,0,0-.173,1.075Z" transform="translate(-619.42 -172.558)" fill="#231f20"/>
    <path id="Path_224" data-name="Path 224" d="M634.512,256.414l.1-.033a3.523,3.523,0,0,1,.311.619l.069-.033a6.828,6.828,0,0,1,.173-.814c.069-.13.138-.293.312-.163.034.033.1.163.138.13a.532.532,0,0,0,.034-.326l-.173-.163c-.381-.228-.519.814-.554.977h0l-.173-.391c-.1-.13-.173-.293-.311-.358-.07-.033-.138-.13-.208-.1a1.267,1.267,0,0,0-.034.358A.66.66,0,0,0,634.512,256.414Z" transform="translate(-590.649 -172.356)" fill="#231f20"/>
    <path id="Path_225" data-name="Path 225" d="M655.277,256.775h.1a.632.632,0,0,0,.138-.488c-.1.032-.069.163-.208.2-.381-.1-.138-.554-.1-.782h-.035a1.833,1.833,0,0,0-.173.619C655.069,256.579,655.069,256.677,655.277,256.775Z" transform="translate(-604.251 -172.423)" fill="#231f20"/>
    <path id="Path_226" data-name="Path 226" d="M641.736,256.777l.069-.033c.069-.1.173-.326.1-.423-.034.033-.069.1-.1.13-.311-.033-.1-.456-.069-.619l-.035-.033h-.035C641.529,256.093,641.321,256.647,641.736,256.777Z" transform="translate(-595.417 -172.491)" fill="#231f20"/>
  </g>
</svg>
