<?xml version="1.0" encoding="utf-8"?>
<!-- Generator: Adobe Illustrator 27.9.0, SVG Export Plug-In . SVG Version: 6.00 Build 0)  -->
<svg version="1.1" id="Layer_1" xmlns="http://www.w3.org/2000/svg" xmlns:xlink="http://www.w3.org/1999/xlink" x="0px" y="0px"
	 viewBox="0 0 589.8 722.8" style="enable-background:new 0 0 589.8 722.8;" xml:space="preserve">
<style type="text/css">
	.st0{fill:#231F20;}
	.st1{fill:#BA8D2D;}
	.st2{fill:#106B38;}
	.st3{fill:#991E21;}
	.st4{fill:#096B37;}
</style>
<g>
	<path class="st0" d="M142,135.9c0.8-10.5,10.1-16.1,9.1-20.9c-1.7-0.6-3.3-0.6-5-0.4c-0.4,1.2-0.4,2.7-0.4,3.9h2.7
		c0,0-0.4,0.8-1.7,3.1c-1.7,2.9-5.6,7.9-6.6,14.7c-1.2,8.7,3.5,16.9,11.8,16.5c6.8-0.6,11.6-8.5,9.3-19.6c1,0.2,2.1-0.2,2.9-1
		c-0.4,6.2,3.9,6.2,4.8,6.2c-0.6,2.1-0.2,7.9,4.1,9.3c5.6,1.9,12.4-3.1,12.4-3.3c0.6,1,1.9,1.7,3.1,1.4c2.1-0.4,4.1-1.2,6-2.5
		c1.4,1.4,5,0,6.2-2.1c9.3,1.4,22.7-18,25.6-18.8c0-3.7-0.6-4.6-0.8-4.8c-2.3,0.4-2.9,2.1-4.3,4.1c-0.4,0.4-1.9,0.6-1.7-0.8
		c5.2-16.5-2.7-31.4-7.6-32c0.2,6.6,1,13.2,2.9,19.8c0.2,0.2,0.4,0.6,0.6-0.4c-1-4.1-1.7-8.5-1.7-12.6c7,12.2,4.3,18,4.1,30.6
		c-0.8,1.2-1.9,2.3-3.1,3.1c0-1.7,0.2-4.3-2.9-4.3c-3.5,1-4.3,6-4.1,8.7c-0.2,0.6-2.7,1.7-3.7,1.9c-0.2-0.8-0.2-1.7-0.2-2.3
		c-1.4,0-1-0.2-1.4,0.4c0,0.8-0.2,1.4-0.6,2.1c-1.2,1.2-2.9,1.9-4.8,1.7v-2.9c-0.4,0-0.8,0.2-1.2,0.6c-0.4,3.3-3.3,5.6-6.4,5.2
		c-0.2,0-0.4,0-0.6,0c-0.4-0.4,0.8-2.5,0.6-3.3c-2.1-0.6-8.3,6-14.7,6c-2.3-0.2-3.9-2.1-3.9-4.3c0-0.4,0-0.6,0.2-1
		c6.4-1.4,11.8-3.9,14.5-7c2.5-2.9,3.7-6.8,3.1-10.5c-0.4-0.2-11-8.3-18.8,13c-0.6,0-5.2,1-3.3-9.7c-2.7,0-2.3,3.7-4.3,4.6
		c-2.3,0.8-3.3-2.5-5.2-2.1c0,0.6-1,4.6-1,4.8c0,0.2,2.3,1.4,2.5,1.7c1.7,5.2,0.4,14.3-7.2,15.7C147,148.7,141.2,144.2,142,135.9z
		 M209.2,132c0.2-0.8,0.6-1.7,1.4-2.1c0.8-0.2,1.7,0.4,2.1,1.2c0.2,0.6-1.2,1.4-2.3,1.4C209.8,132.6,209.4,132.6,209.2,132
		L209.2,132z M179.6,124.6c2.7-2.1,4.1-0.6,4.1-0.6s0.2,5.2-10.7,9.3C174.7,130.1,176.9,127,179.6,124.6L179.6,124.6z"/>
	<path class="st0" d="M187.3,153.5h0.6c1.9-0.8,12-6.2,13-6.6v-2.3C200.7,144.8,188.5,150.8,187.3,153.5z"/>
	<path class="st0" d="M159.6,148.3c-0.4,1.4-0.6,2.7-0.6,4.1c2.3-0.4,4.8-0.8,7-1.4c0.2-1.2,0.4-3.1,0.8-4.3
		C164.3,146.9,162.1,147.5,159.6,148.3z"/>
	<path class="st0" d="M361.8,150.6v0.6c4.3,1.2,19.6,1,20-14.3l2.9-0.6c0.4,3.7,1.7,6.2,4.1,6.6c3.5,0.8,8.1-3.3,8.7-3.9
		c0.4,1,1.4,1.4,2.5,1.4c1.9,0.2,5.2-1.7,7.2-5.2c1.7,1,3.7,0.4,4.8-1.2c0.2-0.2,0.2-0.6,0.4-0.8c8.9-0.4,11-20.5,6-21.5
		c-3.3-0.6-6.2,6-4.8,8.5c1,1,2.3,0.8,5.4,0c-1,2.9-3.5,7-6,8.1c-0.2-0.6-0.4-1.9-0.6-2.3c-0.6,0-1,0-1,0.6c0.4,2.1-0.8,4.1-2.9,4.6
		c-0.2,0-0.4,0-0.6,0c0-0.8,0-2.5-0.6-2.5s-0.6,0-1,0.6c-0.6,4.6-4.6,6.2-5.8,5.4c-0.2-0.6,0.4-1.7-0.4-2.3c-1-0.4-4.8,3.9-7.9,5.4
		c-2.7,1.2-5-0.4-4.8-2.9c14.9-5,19-15.7,16.1-18.6c-3.5-2.5-8.5-1.9-11.2,1.4c2.1-3.3,1.4-10.7,1.2-11c-0.4-2.9-2.3-9.3-9.7-17.4
		c-0.2,0-0.2,0.4-0.2,0.4c3.3,16.5,3.5,18.8,4.1,18.8c1.2,0-1.9-12.2-1.7-12.4c2.1,2.9,3.9,6,5.8,9.1c1.4,4.6-3.1,14.5-3.3,14.7
		s0.2,0.8,0.4,0.6c0.2-0.2,1.4-0.8,1.7-0.8c-2.7,3.5-4.8,7.6-5.8,11.8c-0.8,0.4-1.9,0.6-2.9,0.6c0-0.4-1.7-4.8-4.3-4.3
		c-2.9,1-3.9,6-3.3,7.9c1.4,2.5,3.3,1.9,5.2,1.7C377.3,144,369.5,149.1,361.8,150.6z M394.5,119.6c1.9-1.2,4.6-1,6.2,0.4
		c0,3.1-10.1,10.5-13.2,11.2C388.7,126.6,391,122.5,394.5,119.6L394.5,119.6z M376.5,132.6c0-0.2-0.2-1,1.2-1.2c0.6,0,1,0.4,1.4,0.8
		C378.8,133,376.7,132.8,376.5,132.6L376.5,132.6z"/>
	<path class="st0" d="M406.6,141.7c-0.2-0.4,0.4-1.2,0.2-1.7c-4.1,2.7-8.7,5.4-13,8.1c-0.8,1-1.4,2.1-2.1,3.1
		C392,151.2,406.6,141.9,406.6,141.7z"/>
	<path class="st0" d="M425.4,150.4V150c17.1-3.9,17.1-17.8,17.1-17.8s-3.5,1.2-4.8-1.2c-1.4-2.7,2.3-6.6,2.7-6.6
		c0.6-0.2,1.2,0,1.9,0.4C445.9,128.5,449.2,152.2,425.4,150.4z"/>
	<path class="st0" d="M426.9,108.2c-1,1.4-0.4,9.5-0.4,13.8c-2.1,1.7-1.7-21.3-1.7-23.3h1c3.1,5.4,5.2,11.2,6.6,17.1
		c3.5,19-4.6,30.8-12.4,33c-6.8,2.7-13.6,0.8-15.9,0.6v-0.6c0.6,0,21.3-3.5,25.4-15.3C430.8,125,430,116.3,426.9,108.2z"/>
	<path class="st0" d="M236,145.6c-0.2,1.2-0.2,2.5-0.4,3.7c1,0,2.1,0.2,3.1,0.6c1,0,1.4-3.9,1-4.1
		C238.7,145.6,237.3,145.6,236,145.6z"/>
	<path class="st0" d="M345.3,147.7c0,0.2,0,0.4,0.2,0.6c3.9,1.2,22.1,0.6,25.2-14.1c2.7-11.4-0.4-23.3-8.1-32c0,0.4-0.6,0.4-0.6,0.8
		c0,0.4,2.3,20.2,2.9,20.2c1,0-1.2-14.5-0.2-14.9c6.6,18.6,3.3,26.6,3.3,26.6S362.6,143.6,345.3,147.7z"/>
	<path class="st0" d="M226.7,114h1.2c0-0.6-0.6-15.1-0.6-16.5c0.6,0,6.6,17.8,6.8,18c0,1.2-15.7,14.3-11.6,25.2
		c-1.4,2.3-15.3,5.8-15.7,5.8c0,0.2,0,0.6,0.6,0.6c8.1,1.7,17.4-2.9,17.6-3.1c2.7,1.9,6.4,2.1,9.3,0.4c6.4-2.9,11.2-13.4,13.2-12.8
		c0.2,0.6,0,2.1,0.2,2.7c2.1,0.4,7-2.3,9.9-7.4c1.9-3.9,2.9-8.5,2.7-12.8c-2.3,0.8-4.6,1.7-6.8,2.9c0.2-4.8,5.4-9.7,10.3-8.3
		c0.2-1.4,0.2-2.9,0.2-4.3c-2.5-1.4-5.8-1.4-8.1,0.4c-5.2,3.5-7.4,16.9-6.2,18.2c0.6,0,3.1-2.3,7.9-4.1c0.4,4.1-4.8,9.5-8.5,10.5
		c-0.2-1-0.4-2.1-1-3.1c-4.3-0.6-11.4,17.8-19.2,14.7c1-1.2,10.1-6.2,7.9-24.8c3.1-5,4.1-8.9,3.3-9.7c-1.2,2.3-2.7,4.3-4.1,6.4
		c-0.4-1.9-5.6-17.8-9.7-23.5h-1.9C224.5,91.1,226.5,111.3,226.7,114z M225.1,139.6c-2.5-6.4,8.7-20,9.7-20.5
		C235.6,123.3,230.9,136.3,225.1,139.6L225.1,139.6z"/>
	<path class="st0" d="M354.8,140.7c0.6,0.8,2.7-0.6,3.3,0c0.6,0.6-3.9,2.5-3.9,2.7c0.8,0.8,4.6-0.6,5-2.5c0.6-1.7,0-3.1-1-3.3
		c-0.2-0.2-2.1,1.2-2.3,0s2.1-2.1,2.3-2.1c0.4-0.4,0.2-2.5,0-3.7c-0.2,0.2-0.4,0.4-0.6,0.6c-0.6,0.8-1.2,1.7-1.9,2.3
		C355.6,134.9,353.2,139.2,354.8,140.7z"/>
	<path class="st0" d="M333.5,140v1.2c0.6,0,14.3,2.3,21.9-6.6c7-7,3.5-33.9-7.6-41.7c-0.8,0.8,4.6,22.7,4.8,22.3
		c0.2-0.2,0.4-0.4,0.6-0.6c-0.4-3.5-3.1-13.6-2.5-13.6s8.9,17.6,5.6,24.2C355,129.1,344.7,139.6,333.5,140z"/>
	<path class="st0" d="M340.1,94.6c2.7,10.5-9.3,17.1-12,28.1c-2.3,9.5,3.5,12.4,8.3,11.6c9.7-1.2,9.1-15.1,8.9-15.3
		c-0.8-3.5-2.9-3.9-5.8-4.8c-0.8,1.2-1.2,2.7-1.4,4.1c4.8,0.4,6.6,2.7,5.8,5.4c-0.2,0.6-3.1,5.6-7.4,6.2c0,0-7.4,1.2-6.2-7.2
		c1.2-10.1,14.9-16.7,10.3-28.7C340.6,94,339.7,93.2,340.1,94.6z"/>
	<path class="st0" d="M262.7,128.9v4.1c2.9-1,5.8-3.1,7.2-3.7c-0.2-0.2,0-3.9-0.2-3.9C267.2,126.2,264.9,127.2,262.7,128.9z"/>
	<path class="st0" d="M334.1,124.6c1.2,0.4,2.7,0.6,4.1,0.6c0.6-1.2,0.8-2.7,0.6-4.1l-4.1-0.6C334.8,121.9,333.9,123.3,334.1,124.6z
		"/>
	<path class="st0" d="M176.1,110.3c-0.6-3.7-5.4-10.5-7.6-13.4c-0.4,0-0.2,0.2-0.6,0.6c0.4,3.7,2.1,14.9,2.3,16.5
		c0.2,0.2,0.4,0.4,0.6,0.6c0-2.9-0.8-6.8-0.6-9.7c3.3,4.6,5.2,10.3,3.1,19.2h1C176.3,119.8,176.9,114.8,176.1,110.3z"/>
	<path class="st0" d="M283.9,112.8c-1.9,7.6-7.2,3.1-7.2,3.1c-12-12,6.8-35.9,15.1-51.6c1.9-3.3,2.9-7,3.1-11c0,0-0.6-2.1-1,0
		c-2.5,15.9-18.4,27.5-22.3,42.3c-5.8,18.6,7,28.7,13,24.8c3.7-2.7,3.1-18,7-17.1c0.2,0.2,2.7,5.2,7,5.2c3.3,8.5,13.2,8.9,15.9,8.3
		c15.7-2.7,13.6-19.2,13.6-21.7c-0.6-15.5-17.8-29.3-21.5-37.8c-0.8-1.7-1.9-4.8-2.3-5.2c-0.4-0.4,0,0-1.7,0c0,7.6,0,25.6,0.2,26.6
		c-3.1,2.1-5.4,5-6.8,8.3c-1.9,5.6-1.7,11.8,0.6,17.1c-1.7-1.4-2.7-3.1-3.5-5C287.1,93.2,283.9,112.8,283.9,112.8z M306.5,101.6
		c6.6,4.8,15.9-2.7,13.4-11.4c-3.9-14.9-15.1-12.2-15.1-12.2V59.3c3.9,8.5,14.3,19.4,17.4,25.4c6.6,9.7,0.4,23.8-6,26.2
		c-5.2,2.5-11.2,1.2-15.1-2.7C305.8,107.4,306.5,101.6,306.5,101.6z M298.8,104.1c-3.5-3.5-2.9-18.6,6-21.3
		c11.2-1.2,14.3,11.8,11.2,14.3c-3.1,2.5-6.6,2.5-8.3,1c-0.8-0.8-2.9-13-2.9-13.4c-0.4,0-2.3,2.7-2.3,2.9c1.4,5.8,2.1,5.8,2.5,11.2
		C304.4,101.8,301.7,104.1,298.8,104.1L298.8,104.1z"/>
	<path class="st0" d="M208.6,115.2c0-1.2-0.2-2.5-0.4-3.7c-2.3,0-4.3,0.8-6.2,2.1c0,1.4,0,2.9,0.4,4.3
		C204.4,117.3,206.5,116.5,208.6,115.2z"/>
	<path class="st0" d="M162.5,102.9c0.4,2.1-2.9,3.5-3.7,4.6c3.3-0.6,6.8-2.5,4.6-8.3c-2.1,0-4.1,1-5.4,2.9c0,1,0.2,2.3,0.6,3.3
		C158.8,105.3,162.3,102.9,162.5,102.9z"/>
	<path class="st0" d="M241,104.5c0.2,0,11-3.5,11.2-13.4c0-0.2-0.6-3.1-2.5-2.9c-1.4,1-2.1,2.9-1.9,4.6c0.4,0.8,1,0.6,1.7,1
		c-0.6,3.7-8.7,9.5-9.3,9.7C240.4,104.5,240.4,104.5,241,104.5z"/>
	<path class="st0" d="M331.2,103.1c0.8,1.2,2.9,0.4,2.9-0.2c2.1,1.2,3.1-1.4,3.1-1.7c0-1.9-0.6-3.5-1.9-4.8
		c-0.2,0.6-0.4,1.2-0.6,1.9c1.2,0.4,1.9,2.5,0.6,2.5c-0.6-0.2-0.4-1.4-0.6-1.9c-0.4,0-0.8,0.2-1,0.6c0,0.8,0.2,1.9-0.6,2.5
		c-0.6,0-0.6,0-0.6-3.5h-1.2C331,98.5,330.4,101.8,331.2,103.1z"/>
	<path class="st0" d="M340.8,88.2c0.2-0.8,0.4-1.7,0.4-2.5c-0.2,0.2-8.9,7.4-9.3,7.4c0.2,0.4-0.4,1.9-0.4,2.3
		C334.8,93.4,337.7,90.9,340.8,88.2z"/>
	<path class="st0" d="M297.6,71.7c-0.2,0-0.4,0.2-0.4,0.4c-0.2,0.4-0.2,2.7-0.6,3.1c-0.4,0.4-0.8,0.4-1.2,0c-0.2-1.2,0-2.1,0-3.3
		c-0.8-0.2-1.7,3.9-0.6,5.2c1.4,1.4,3.3-0.6,3.7-1.2c0.6,0.4,3.1-0.6,1.9-6.6c-0.4-0.4-0.6-0.4-1.2,0c-0.2,0.8,1,3.9-0.4,3.9
		C297.6,73.1,297.8,71.9,297.6,71.7z"/>
	<path class="st0" d="M294.7,62.2c0.6,1,2.7,3.7,2.1,6.6c0,0.4,0.2,0.6,0.4,0.6c1-3.1,0.6-6.4-0.8-9.1
		C295.7,60.7,294.7,62,294.7,62.2z"/>
	<polygon class="st0" points="417.6,108.2 411.6,111.7 411.6,107.2 417.4,104.1 	"/>
	<path class="st0" d="M211.9,623.8l-1.9-1.4l-0.2-0.2c0-0.2,0-0.2,0-0.4l0.4-1.2l0.4-0.8l0.4-0.8l-1.2,0.6l-0.8,0.6
		c-0.2,0-0.2,0-0.4,0h-0.2h-0.2v-0.2c-0.6-0.8-1.2-1.7-1.9-2.5l-0.6-0.6l-0.4-0.4c0.8-0.8,1.7-1.4,2.3-2.1c0.6-0.4,1.2-0.8,2.1-1.2
		c0.4,0,0.8-0.2,1-0.2h1.7h1.9l0.2-0.4l0.2-0.6c0.2,0,0.6-0.4,1.7-0.8c0.6-0.2,1-0.4,1.2-0.6l0,0l0,0v0.2c-0.2,0.2-0.6,1.4-1.7,3.1
		l-2.3,3.7c-0.2,0.2-0.2,0.4-0.2,0.6c0,0.2,0,0.2,0,0.4l1.2,1L211.9,623.8z M212.1,617.2c0.2-0.4,0.4-0.6,0.6-1l0.6-1.2h-0.2
		l-0.4,0.2l-0.6,0.2h-1h-0.6v0.2l0.2,0.6l0.6,0.6L212.1,617.2z M219.3,609.8l-1.4,0.2l-1.7,0.2l-0.4-1c-0.2-0.6-0.4-1.2-0.4-1.7
		l-1.2,0.2l-0.8,0.2l-0.4-1c-0.2-0.6-0.4-1.2-0.4-1.9c0.6-0.2,1-0.4,1.7-0.4l1.4-0.2c0,0.6,0.2,1.2,0.2,1.9l0.2,1l1.4-0.2l0.8-0.2
		c0,0.6,0.2,1.2,0.4,1.9L219.3,609.8z"/>
	<path class="st0" d="M216,632.1l-1.2,0.4l-1.7,0.4l-0.4-1c-0.2-0.6-0.4-1-0.6-1.7l-1.2,0.4l-0.8,0.2l-0.4-1
		c-0.2-0.6-0.4-1.2-0.6-1.9c0.6-0.2,1-0.4,1.7-0.6l1.4-0.4c0,0.6,0.2,1.2,0.4,1.9l0.4,1l0.8-0.2l0.6-0.2l0.8-0.2
		c0,0.6,0.2,1.2,0.4,1.9L216,632.1z M221.2,622.4l-0.8,1l-0.8,1l-0.2,0.2h-0.2l-0.2,0.2l-0.4,0.2l-0.4,0.4l-1,0.6l-1,0.6l-4.1-2.9
		l2.7-3.9l3.5,2.5c0,0,0.2,0,0.2-0.2V622v-0.2v-0.2v-0.6c0-0.8,0-1.4,0-2.3c0.2-0.2,0.4-0.4,0.6-0.4l0.6-0.4l0.6-0.2
		c0.4-0.4,1-0.6,1.4-0.8c0.2,0.8,0.2,1.4,0,2.3l-0.2,0.8l-0.2,0.8C221.4,621.3,221.4,621.8,221.2,622.4L221.2,622.4z"/>
	<path class="st0" d="M228.2,629.2l-0.2,0.4c0,0.2-0.2,0.2-0.2,0.4l-0.4,0.4l-0.6,0.6l-0.6,0.6c-0.2,0.2-0.4,0.2-0.6,0l-4.6-2.9
		c-0.2,0-0.2-0.2,0-0.2l0.4-0.6l0.2-0.2l0.2-0.2l0.8-1c0.2-0.2,0.4-0.6,0.6-0.8l0.2-0.2l0.6-0.6l3.9,2.5c0.2-0.8,0.4-1.7,0.2-2.5
		c-0.2-0.8-0.4-1.4-0.8-2.1c0.2-0.2,0.6-0.8,1.4-1.4l0.8-0.8l0.4-0.4c0.6,0.8,0.8,1.7,0.8,2.7c0,1.4-0.2,2.9-0.8,4.1l-0.4,0.8
		l-0.4,0.8v0.2v0.2v0.2L228.2,629.2L228.2,629.2z"/>
	<path class="st0" d="M237.3,637.7l-2.3-1.2c-0.4,0.6-0.8,1-1.4,1.4c-0.2,0.2-0.4,0.4-0.6,0.4l-0.4,0.2l-0.4,0.2h-0.2h-0.2
		c-0.2,0-0.4,0.2-0.6,0.2c-0.2,0-0.6,0-0.8,0l-0.6-0.2c-0.8-0.4-1.4-1-2.3-1.7c-0.6-0.6-1.2-1.2-1.7-1.9v-0.2c0.4,0.2,1,0.6,1.7,0.8
		c0.6,0.2,1.2,0.4,1.9,0.4c0.6,0,1.4,0,2.1-0.2l0.6-0.2l0.4-0.2l0.6-0.2l0.6-0.4h-0.4l-0.6-0.2l-0.2-0.2c-0.4-0.2-0.8-0.6-1-1
		s-0.2-0.8-0.2-1.4l0.2-0.4l0.2-0.4c0.4-0.6,0.8-1.2,1.2-1.9l0.6-0.6c0.2-0.2,0.4-0.4,0.6-0.6c0.4-0.4,1-0.8,1.4-1.2
		c0.4-0.2,0.8-0.4,1.2-0.6c0.4-0.2,0.8-0.2,1.2,0c0.4,0.2,0.6,0.4,0.6,0.8s0,0.8,0,1.2c0,0.6-0.2,1.2-0.4,1.9l-0.4,1
		c0,0.2-0.2,0.6-0.4,0.8l1.9,1L237.3,637.7z M235.6,631.5c0-0.2,0-0.4,0-0.6c0-0.2,0-0.4,0-0.6v-0.4l-0.2-0.2c-0.2,0-0.4,0-0.4,0
		c-0.2,0-0.4,0-0.4,0.2c0,0,0,0.2,0,0.6c0,0.2,0.2,0.4,0.4,0.6l0.2,0.2L235.6,631.5L235.6,631.5z"/>
	<path class="st0" d="M244.7,640.7l-2.9-1.2v-0.2v-0.8c0-0.2,0-0.6,0-0.8l-1.2,1.4l-3.3-1.4l1.9-4.3l2.9,1.2c0-0.2,0-0.4,0-0.6v-0.2
		v-0.2l-0.2-0.2l-0.4-0.4l-0.4-0.2l-0.6-0.2l-0.4-0.2c0.4-0.4,0.8-0.8,1.2-1.2l1.2-1.2c1-0.2,1.9-0.2,2.9,0.2
		c0.6,0.2,1.2,0.8,1.4,1.4c0.4,0.8,0.4,1.9,0.2,2.7c-0.2,0.4-0.6,0.8-1,1l-0.6,0.6l1.4,0.6L244.7,640.7z"/>
	<path class="st0" d="M256.7,645.3l-2.1-0.8c0,0-0.2,0-0.2-0.2v-0.6l-0.4,0.4c-0.2,0.2-0.2,0.2-0.4,0.2l-2.7-1
		c-0.2,0-0.2-0.2-0.4-0.8l-0.4,0.2c-0.2,0-0.2,0-0.4,0l-2.9-1l-0.2-0.2l-0.2-0.6l-0.4,0.2h-0.4l-1.2-0.4l1.7-4.3l1.4,0.6
		c0,0,0.2,0,0.4-0.4l0.2-0.4l1-1l0.4-0.4l0.6-0.4c0.4-0.2,0.6-0.2,0.6-0.2l0,0v0.2v0.2v0.2v0.2c0,0.2-0.2,0.4-0.2,0.4l-0.2,0.4
		l-0.6,0.6l-1,1.4l2.5,0.8l0.2-0.2l0.4-0.4l0.2-0.6l0.8-0.8l1.2-1h0.2h0.4c0,0.2,0,0.2-0.2,0.4l-0.2,0.4l-0.2,0.6l-0.4,0.6
		c-0.2,0.4-0.6,1-1,1.4l1.7,0.6l0.6-1.7c0.2-0.2,0.6-0.2,0.8-0.6l0.8-0.6l0.2-0.2h0.2l-0.2,1l-0.2,1l-0.2,0.6c0,0.2-0.2,0.4-0.2,0.8
		c0,0.2,0,0.2,0.2,0.4l1.4,0.6L256.7,645.3z"/>
	<path class="st0" d="M266.2,635.8l-2.5,2.1l-0.2,1l-0.2,0.6l-0.2,0.8l-0.4,1.4l-0.2,0.6l-0.2,0.4l-0.8,1.7
		c-0.2,0.4-0.4,0.8-0.6,1.2c-0.2,0.2-0.4,0.4-0.8,0.2l-3.5-1l1.2-4.6l3.1,0.8h0.2l0,0c0.2-1,0.4-2.1,0.6-3.1
		c0.2-0.8,0.2-1.7,0.2-2.5v-0.2c0-0.2,0-0.2,0-0.4c0-0.2-0.2-0.6-0.2-0.8c0.2-0.4,0.6-0.8,1-1.4c0.6-0.6,1.2-1.2,1.9-1.7l0.2,0.2
		v0.2v0.2v0.2c0,0.2,0,0.2,0,0.4l1,1.9L266.2,635.8z"/>
	<path class="st0" d="M269.5,643c-0.2,0.6-0.4,1.4-0.6,2.1c-0.2,0.4-0.4,0.8-0.6,1.2l-1.7,1.9l-0.2-0.2c0.2-1.2,0.4-2.3,0.6-3.5
		l0.6-4.3l0.2-2.1l0.2-1.4l1.2-1.4l1.7-2.1l0.2,0.2v0.4l-0.2,0.6l-0.2,1l-0.4,2.1v0.4v0.4l-0.2,1l-0.2,0.6l-0.2,0.6L269.5,643z"/>
	<path class="st0" d="M290.8,650.7l-2.3-0.2h-0.2c0,0,0-0.2-0.2-0.2l-0.4-1.2l-0.2-0.8v-1l-0.6,1.2l-0.4,0.8c0,0.2-0.2,0.2-0.4,0.2
		h-0.2h-0.2h-0.2c-1-0.4-2.1-0.8-2.9-1l-0.8-0.2l-0.6-0.2c0.2-1,0.6-2.1,0.8-2.9c0.2-0.8,0.6-1.4,1-2.1c0.2-0.2,0.6-0.4,0.8-0.8
		l1.4-0.8l1.7-1v-0.2v-0.6c0-0.2,0.4-0.6,1-1.7c0.4-0.6,0.6-1,0.8-1.2l0,0l0,0l0,0c0,0.4,0.2,1.4,0.2,3.7l0.2,4.3
		c0,0.2,0,0.4,0.2,0.6c0,0.2,0.2,0.2,0.2,0.2l1.4,0.2L290.8,650.7z M289.5,635l-1,1l-1.2,1.2l-0.8-0.6c-0.4-0.4-0.8-0.8-1.2-1.2
		l-0.8,0.8l-0.6,0.6l-1-0.8c-0.4-0.4-1-0.8-1.4-1.2c0.4-0.4,0.8-0.8,1.2-1.2l1-1c0.4,0.4,0.8,1,1.2,1.4l0.6,0.6l1-1l0.6-0.6
		c0.4,0.6,0.8,1,1.2,1.4L289.5,635z M287.5,645.3c0-0.4,0-0.8,0-1.2l-0.2-1.2l-0.2,0.2l-0.4,0.4l-0.4,0.4l-0.6,0.4l-0.6,0.4h0.2
		l0.6,0.2l0.6,0.2L287.5,645.3z"/>
	<path class="st0" d="M298.8,654.6l-0.8,1l-1,1.2l-0.8-0.6c-0.4-0.4-1-0.8-1.4-1l-0.8,1l-0.6,0.6l-1-0.6c-0.4-0.4-1-0.8-1.4-1.2
		c0.4-0.4,0.6-1,1-1.4l1-1c0.4,0.4,0.8,0.8,1.2,1.2l0.8,0.6l0.6-0.6l0.4-0.4l0.6-0.6c0.4,0.6,0.8,1,1.4,1.4L298.8,654.6z
		 M298.6,651.1l-2.7-0.2h-0.4h-0.2c-0.2-0.2-0.4-0.2-0.4-0.4l-0.2-0.2l-0.2-0.4l-0.2-0.6l-0.4,0.6l-0.6,1l-2.5-0.2l0.2-4.8l3.1,0.2
		v-0.4v-0.6v-1.7l1-1c0.4-0.4,0.8-1,1.4-1.4l0.2,0.4v0.6v0.8v0.8v0.8v0.8v0.4v0.4c0,0.2,0.2,0.2,0.4,0.4l2.1,0.2L298.6,651.1z"/>
	<path class="st0" d="M305.4,644.5v1.2l-0.2,1.4v0.2v0.2v0.4l-0.2,0.4l-0.2,0.6l-0.4,1l-0.4,1h-5.2v-4.8h4.3c0,0,0,0,0-0.2v-0.2
		v-0.2v-0.2l-0.2-0.6c0-0.2-0.4-0.8-1.2-1.9c0-0.2,0-0.4,0-0.8l0.4-0.8l0.2-0.6c0.2-0.6,0.4-1,0.8-1.7c0.6,0.4,1,1.2,1.2,1.9
		l0.2,0.8l0.2,0.8C305.2,643.6,305.2,644.1,305.4,644.5z M304.6,655.4l-0.8,1l-1,1.2l-1-0.6c-0.6-0.4-1-0.8-1.4-1.2
		c0.2-0.4,0.6-1,1-1.4l1-1c0.4,0.4,0.8,1,1.4,1.2L304.6,655.4z"/>
	<path class="st0" d="M318.4,649l-2.1,0.2c-0.2,0-0.2,0-0.4,0h-0.2h-0.2c0,0.2,0,0.4-0.2,0.6l-0.2,0.6l-0.2,0.6l-0.2,0.6
		c-0.2,0.4-0.4,0.6-0.6,1s-0.4,0.6-0.6,1c-0.2,0.2-0.4,0.4-0.6,0.6c-0.2,0.2-0.6,0.4-1,0.4c-0.8-0.2-1.9-0.4-2.7-0.8
		c-1-0.4-1.9-1-2.5-1.9l0,0h0.2c0.4,0.2,0.6,0.2,1,0.2h0.6h0.6c0.4,0,0.8-0.2,1.2-0.2c0.2,0,0.4-0.2,0.4-0.2l0.2-0.2l0.4-0.2
		c0.6-0.6,1-1,1.7-1.7l0.2-0.4l0.2-0.4c0-0.2,0.2-0.4,0.2-0.6v-0.2V648v-0.4c0-0.2,0-0.2-0.2-0.4c0-0.2-0.2-0.4-0.2-0.4l-0.6-1
		l-0.4-0.6l-0.4-0.6l0.2-0.6l0.4-1c0.2-0.6,0.4-1,0.8-1.7l0.8,1.2l0.6,1c0.4,0.4,0.6,0.8,1.2,1.2h0.2h0.2h0.6h1.2L318.4,649z"/>
	<path class="st0" d="M326.5,647.8l-3.1,0.4l-0.2-0.2l-0.4-0.6c-0.2-0.2-0.2-0.6-0.4-0.8l-0.4,1.9l-3.7,0.4l-0.6-4.8l3.1-0.4
		c0-0.2-0.2-0.4-0.4-0.4l-0.2-0.2l-0.2-0.2h-0.2l-0.4-0.2h-0.4l-0.6,0.2h-0.4c0-0.6,0.2-1.2,0.4-1.7l0.4-1.7
		c0.6-0.8,1.4-1.2,2.5-1.4c0.8-0.2,1.4,0,2.1,0.6c0.8,0.6,1.2,1.4,1.7,2.3c0,0.4-0.2,1-0.2,1.4l-0.2,0.8l1.4-0.2L326.5,647.8z"/>
	<path class="st0" d="M330.8,635.4l-1.2,2.9l0.2,1l0.2,0.6l0.2,0.8l0.4,1.4l0.2,0.6v0.4v1.9c0,0.4,0,0.8,0,1.4c0,0.2,0,0.2-0.2,0.4
		c0,0.2-0.2,0.2-0.4,0.2l-3.7,0.6l-0.8-4.6l3.1-0.6l0,0l0,0c-0.2-1-0.4-2.1-0.8-3.1c-0.2-0.8-0.6-1.7-1-2.3l-0.2-0.2
		c0-0.2-0.2-0.2-0.2-0.4c-0.2-0.2-0.4-0.4-0.6-0.6c0-0.6,0.2-1,0.4-1.7c0.2-0.8,0.4-1.4,0.8-2.3l0.2,0.2v0.2v0.2l0.2,0.2
		c0,0.2,0.2,0.2,0.4,0.4l1.7,1L330.8,635.4z"/>
	<path class="st0" d="M336.8,640.3c0.2,0.6,0.2,1.4,0.4,2.3c0,0.4,0,1,0,1.4l-0.6,2.3h-0.2c-0.2-1.2-0.6-2.3-1-3.3l-1.4-4.1
		l-0.6-2.1l-0.4-1.2l0.4-1.7l0.6-2.7l0.2,0.2l0.2,0.4l0.2,0.6l0.4,0.8l0.6,2.1l0.2,0.4l0.2,0.4l0.2,0.8l0.2,0.6l0.2,0.6L336.8,640.3
		z"/>
	<path class="st0" d="M349.2,624.8l-0.4,1.2l-0.6,1.7l-1-0.2c-0.6-0.2-1.2-0.2-1.7-0.4l-0.4,1.2l-0.4,0.8l-1.2-0.2
		c-0.6-0.2-1.2-0.4-1.9-0.6c0-0.6,0.2-1.2,0.4-1.7l0.4-1.4c0.6,0.2,1,0.6,1.7,0.6l1,0.2l0.4-1.4l0.4-0.8c0.6,0.4,1.2,0.6,1.9,0.8
		L349.2,624.8z M357.5,638.5l-2.1,0.8h-0.2c0,0-0.2,0-0.2-0.2l-0.8-1l-0.4-0.6l-0.6-0.8v2.5c0,0.2,0,0.2-0.2,0.4l-0.2,0.2h-0.2h-0.2
		c-1,0-2.1,0.2-3.1,0.4l-0.8,0.2l-0.6,0.2c-0.2-1-0.4-2.1-0.6-2.9c-0.2-0.8-0.2-1.7,0-2.5c0.2-0.4,0.2-0.6,0.4-1l0.8-1.4l1-1.7
		l-0.2-0.4l-0.4-0.6c0-0.2,0-0.8,0.2-1.9c0-0.4,0-0.8,0.2-1.4l0,0l0,0l0,0c0.2,0.2,0.8,1.2,1.9,3.1l2.1,3.7c0.2,0.2,0.2,0.4,0.4,0.6
		c0.2,0,0.2,0.2,0.4,0.2l1.4-0.6L357.5,638.5z M352.1,635c-0.2-0.4-0.4-0.6-0.6-1l-0.6-1.2v0.2l-0.2,0.4l-0.2,0.6l-0.4,0.6l-0.4,0.6
		h0.2h0.6l0.6-0.2H352.1z"/>
	<path class="st0" d="M366.2,634.3l-1.7,0.8c0,0-0.4,0-1-0.4l-1.7-1.2v1.4c0,0.4,0,1-0.2,1.4l-4.1,1.9l-1.9-4.3l3.9-1.9l-1.4-0.6
		l-2.7-1.2l-1.7-0.6l-0.2-0.8v-0.4V628l-0.4-2.1l-0.2-1l5.8-5.2c0.2,0.6,0.4,1.2,0.4,1.9c0.2,0.6,0.2,1,0.2,1.7l-4.3,4.1l7.9,3.5
		l1.2-0.6L366.2,634.3z"/>
	<path class="st0" d="M370.9,632.1l-2.5,1.2c-0.2,0-0.4,0-0.8-0.4l-0.6-0.6l0.2,0.8c0,0.2,0,0.4,0,0.6v0.2l-0.2,0.2l-0.8,0.4
		l-2.1-4.1l1.4-0.6l0,0v-0.2c-0.4-0.6-0.6-1.4-1.2-2.1c-0.2-0.4-0.4-0.6-0.6-0.8l-0.6-0.8l-0.8-1l-0.2-0.4l-0.2-0.2l-0.2-0.2v-1.9
		c0-0.6,0-1.2,0-2.1c0.2,0.2,0.4,0.2,0.6,0.6l0.6,1l4.6,7l1.4-0.8L370.9,632.1z"/>
	<path class="st0" d="M378.8,627.5l-1.7,1c0,0.2,0.2,0.4,0.2,0.8v0.2v0.4c-0.2,0-0.6,0-0.8,0l-1.2-0.2l-3.3-0.6c0,0.2,0,0.4,0,0.6
		c0.2,0.4,0.2,1,0.2,1.4c0,0.2,0,0.2-0.2,0.4l-0.2,0.2l-0.4,0.2l-2.3-4.1l1.2-0.8l-0.2-1c0-0.4-0.2-1-0.2-1.4c0-0.8,0.2-1.7,0.6-2.3
		c0.2-0.2,0.4-0.6,0.6-0.8l0.2-0.2l0.4-0.2c0.2,0,0.2,0,0.4,0c0.2,0,0.2,0,0.4,0.2l0.2,0.4c0.2,0.4,0.4,0.6,0.6,1l0.2,0.2l0.2,0.2
		l0.4,0.4c0.4,0.4,1,0.6,1.7,0.8l0.8-0.4L378.8,627.5z M373,625.5L373,625.5l-0.2-0.4l-0.2-0.2l-0.2-0.2c-0.2-0.2-0.4-0.4-0.6-0.4
		h-0.2c-0.2,0-0.2,0.2-0.4,0.4c0,0.2-0.2,0.4,0,0.6h1L373,625.5z"/>
	<path class="st0" d="M386.2,622.8l-1.7,1c0,0.2,0.2,0.4,0.2,0.6v0.2v0.4c-0.2,0-0.6,0-0.8,0h-1.4l-3.5-0.4c0,0.2,0,0.4,0,0.6
		c0.2,0.4,0.2,0.8,0.4,1.4c0,0.2,0,0.2,0,0.4l-0.2,0.2l-0.4,0.2l-2.5-3.9l1.2-0.8l-0.4-1c-0.2-0.4-0.2-1-0.2-1.4
		c0-0.8,0.2-1.7,0.4-2.3c0.2-0.2,0.4-0.6,0.6-0.8l0.2-0.2c0.2-0.2,0.2-0.2,0.4-0.4c0.2,0,0.2,0,0.4,0c0.2,0,0.2,0,0.4,0.2l0.2,0.4
		c0.2,0.2,0.4,0.6,0.6,0.8l0.2,0.2l0.2,0.2l0.4,0.2c0.6,0.4,1,0.6,1.7,0.6l0.8-0.4L386.2,622.8z M380.4,620.9L380.4,620.9l-0.2-0.4
		l-0.2-0.2l-0.2-0.2c-0.2-0.2-0.4-0.2-0.6-0.4H379c-0.2,0-0.2,0.2-0.4,0.4c0,0.2,0,0.4,0,0.6L380.4,620.9L380.4,620.9z"/>
	<path class="st0" d="M384.5,609.6l0.2,3.1l0.6,0.8l0.4,0.6l0.6,0.6l1,1.2l0.4,0.6l0.2,0.4l0.8,1.7c0.2,0.4,0.4,0.8,0.6,1.2
		c0,0.2,0,0.2,0,0.4c0,0.2-0.2,0.2-0.2,0.4l-3.1,2.3l-2.9-3.7l2.5-1.9v-0.2c-0.6-0.8-1.2-1.7-2.1-2.5c-0.6-0.6-1.2-1.2-1.9-1.7
		l-0.2-0.2c-0.2,0-0.2-0.2-0.4-0.2c-0.2-0.2-0.4-0.2-0.8-0.2c-0.2-0.6-0.4-1-0.4-1.7c-0.2-0.8-0.2-1.7-0.2-2.5h0.2l0.2,0.2l0.2,0.2
		l0.2,0.2c0.2,0,0.2,0.2,0.4,0.2l2.1,0.2L384.5,609.6z"/>
	<path class="st0" d="M392.2,611.4c0.4,0.6,0.8,1.2,1.2,1.9c0.2,0.4,0.4,0.8,0.6,1.2l0.4,2.3h-0.2c-0.8-0.8-1.4-1.9-2.5-2.7
		l-3.1-3.1l-1.4-1.4l-0.8-1l-0.4-1.9l-0.6-2.7h0.4l0.4,0.4l0.4,0.4l0.6,0.6l1.4,1.7l0.2,0.4l0.2,0.4l0.6,0.6l0.4,0.6l0.4,0.4
		L392.2,611.4z"/>
	<path class="st0" d="M353.4,445.5l-1,1.2l-1.2,1.7l-1-0.6c-0.6-0.4-1.2-0.8-1.7-1.2l-1,1.2l-0.6,0.8l-1.2-0.8
		c-0.6-0.4-1.2-0.8-1.9-1.4c0.4-0.6,0.8-1.2,1.2-1.9l1.2-1.4c0.4,0.6,1,1,1.7,1.4l1,0.6l1-1.4l0.6-0.8c0.6,0.6,1,1.2,1.9,1.7
		L353.4,445.5z M357.1,464.4h-2.9c-0.2,0-0.2,0-0.4,0s-0.2-0.2-0.2-0.2l-0.6-1.4l-0.2-1l-0.2-1.2l-0.6,1.7l-0.4,1.2
		c0,0.2-0.2,0.2-0.4,0.4l-0.2,0.2h-0.2h-0.2c-1.2-0.4-2.5-0.6-3.7-0.8h-0.8h-0.6c0.2-1.2,0.4-2.5,0.6-3.7c0.2-1,0.6-1.9,1-2.7
		c0.2-0.4,0.6-0.6,1-1l1.4-1.2l1.9-1.4l-0.2-0.6l-0.2-0.8c0-0.2,0.4-0.8,1-2.1c0.4-0.8,0.6-1.2,0.8-1.4l0,0h0.2v0.2
		c0,0.4,0.4,1.9,0.8,4.3l0.8,5.2c0,0.2,0.2,0.6,0.2,0.8s0.2,0.2,0.4,0.4h1.9L357.1,464.4z M352.3,458.1c0-0.4,0-1-0.2-1.4l-0.4-1.7
		l-0.2,0.2l-0.4,0.4l-0.4,0.6l-0.6,0.6l-0.6,0.4l0.2,0.2l0.6,0.2h0.8L352.3,458.1z"/>
	<path class="st0" d="M374.6,464.4h-11.8h-0.4c-0.2-0.2-0.4-0.2-0.6-0.4l-0.2-0.4l-0.2-0.4l-0.4-0.8l-0.4,0.8l-0.6,1.2h-3.1v-5.8
		h3.7l-0.2-0.6v-0.8v-2.1l1-1.4c0.4-0.6,1-1.2,1.4-1.9l0.2,0.6l0.2,0.6v4.3v0.4c0,0.2,0.2,0.4,0.4,0.4h10.5L374.6,464.4z
		 M364.5,447.8l-1,1.2l-1.2,1.7l-1.2-0.8c-0.6-0.4-1.2-0.8-1.9-1.4c0.4-0.6,0.8-1.2,1.2-1.9l1.2-1.4c0.6,0.6,1,1.2,1.9,1.7
		L364.5,447.8z"/>
	<path class="st0" d="M387,458.6c0,0.2,0,0.6,0,0.8v0.4c0,0.2,0,0.2,0,0.4l-0.2,0.6l-0.2,0.6l-0.6,2.1c0,0.2-0.2,0.4-0.4,0.6
		c-0.2,0.2-0.2,0.2-0.4,0.4h-3.5h-0.2l-0.6-0.6l-0.4,0.4c0,0.2-0.2,0.2-0.4,0.2h-3.3l0,0l-0.2-0.2v-0.4l-0.6,0.8h-1.4V459h1.4l0.2-1
		l0.2-1v-0.2l0.2-0.4l0.8-1c0.4-0.6,0.8-1,1.2-1.4c0.2,0,0.2,0.2,0.2,0.4c0,0.2,0,0.6,0,0.8s0,0.4,0,0.4c0,0.2,0,0.4-0.2,0.4
		l-0.4,1.7v0.4v0.6h2.7v-1.4l0.6-1.2l0.4-0.6c0.4-0.8,0.8-1.2,1.2-1.2v0.2l-0.4,2.5c-0.2,0.6-0.2,1.4-0.2,2.1h1.7V458v-1.2l1-1.9
		c0.6-0.8,1-1.4,1.2-1.4c0,0.2,0,0.2,0,0.4c0,0.4,0,0.6,0,1v2.7L387,458.6L387,458.6z"/>
	<path class="st0" d="M415.9,464.4h-2.7c0,0-0.2-0.2-0.2-0.4l-0.2-0.6l-0.4,0.6c-0.2,0.2-0.2,0.4-0.4,0.4h-3.3h-0.2l-0.6-0.6
		l-0.4,0.4c0,0.2-0.2,0.2-0.4,0.2h-2.5v0.8l-0.2,0.6c0,0.4-0.2,0.8-0.4,1.2c-0.2,0.6-0.6,1.4-1,1.9c-0.6,0.6-1.4,1-2.3,1.4
		c-1,0.4-2.1,0.6-3.1,0.6c-0.4,0-0.6,0-1,0c-1-0.2-2.1-0.6-2.7-1.4c-0.6-0.8-1-1.7-1-2.7c0-1.9,0.6-3.7,1.4-5.2
		c0.6-1.2,1.2-2.5,2.5-3.5h0.2h0.2l-0.6,1.2l-0.4,0.8c-0.2,0.6-0.4,1.4-0.6,2.3v0.6v0.8v0.4c0,0.2,0.2,0.4,0.2,0.6
		c0.4,0.6,1,0.8,1.7,1h0.8h1h0.2h0.4h0.4h0.2l0.4-0.2c0.8-0.2,1.4-0.6,2.1-1v-0.4c0-1-0.2-1.9-0.6-2.7c-0.4-1-0.8-2.1-1.2-2.9
		l0.8-1.7c0.6-1.2,0.8-1.9,1-2.1l0.2,0.2l0.6,0.8l1.4,3.1h2.3l0.2-1.4l1-1.9c0.2-0.6,0.6-1,1-1.4c0.2,0.4,0.2,0.6,0.2,1v1.7
		l-0.2,2.1h1.7c0-0.4,0.2-0.6,0.2-1c0-0.2,0-0.6,0-1l0.6-1c0.2-0.2,0.2-0.4,0.4-0.8c0.2-0.4,0.4-0.6,0.8-0.8c0.2,0.4,0.2,0.8,0.2,1
		v1.2v2.1h2.1L415.9,464.4z"/>
	<path class="st0" d="M432.9,458.6c0,0.2,0,0.6,0,0.8v0.4c0,0.2,0,0.2,0,0.4v0.6l-0.2,0.6l-0.6,2.1c0,0.2-0.2,0.4-0.4,0.6
		c-0.2,0.2-0.2,0.2-0.4,0.4h-3.3h-0.2l-0.6-0.6l-0.4,0.4c0,0.2-0.2,0.2-0.4,0.2H423l0,0l-0.2-0.2v-0.4l-0.6,0.8h-6V459h6.2l0.2-1
		l0.2-1v-0.2l0.2-0.4l0.8-1c0.4-0.6,0.8-1,1.2-1.4c0.2,0,0.2,0.2,0.2,0.4c0,0.2,0,0.6,0,0.8s0,0.4,0,0.4c0,0.2,0,0.4-0.2,0.4
		l-0.4,1.7v0.4v0.6h2.7l0.2-1.4l0.6-1.2l0.4-0.6c0.4-0.8,0.8-1.2,1.2-1.2v0.2l-0.4,2.5c-0.2,0.6-0.2,1.4-0.2,2.1h1.7V458v-1.2l1-1.9
		c0.6-0.8,1-1.4,1.2-1.4c0,0.2,0,0.2,0,0.4c0,0.4,0,0.6,0,1v2.7L432.9,458.6L432.9,458.6z"/>
	<path class="st0" d="M439.3,447c0,0.4-0.2,0.6-0.4,0.8l-0.4,0.4c-0.6,0.2-1,0.2-1.4,0.4c-0.6,0.4-1.2,0.8-1.7,1.2h-0.2v-0.2v-0.2
		l1-1.2l-0.8-0.2c-0.2,0-0.4-0.2-0.4-0.4c0-0.2-0.2-0.4-0.2-0.6c0-0.8,0.4-1.4,0.8-2.1c0.6-0.8,1-1,1.7-1c0.2,0,0.4,0,0.6,0.2
		s0.2,0.4,0.2,0.6v0.2v0.2l-0.2,0.4l-0.4,0.6l-0.4-0.4c-0.2-0.2-0.4-0.2-0.6-0.2h-0.2l0,0l0,0l0,0l-0.2,0.2c0,0.2,0,0.2,0.2,0.4
		l0.6,0.2l0.6,0.2h1.4C439.3,447,439.3,447,439.3,447z M440.5,464.4h-3.9c-0.2,0-0.4,0-0.6,0c0,0-0.2-0.2-0.2-0.4v-1.9v-2.9
		l-0.2-3.3c-0.2-1.4-0.2-2.5-0.2-2.9l1.2-1.9c0.4-0.4,0.8-1,1.2-1.7l0.4,0.8c0,0.4,0.2,0.8,0.2,1.2l0.2,1.7v1v0.8v1.7v1.9h1.9V464.4
		L440.5,464.4z"/>
	<path class="st0" d="M449.6,447l-1,1.2l-1.2,1.7l-1-0.6c-0.6-0.4-1.2-0.8-1.7-1.2l-1,1.2l-0.6,0.8l-1.2-0.8
		c-0.6-0.4-1.2-0.8-1.9-1.4c0.4-0.6,0.8-1.2,1.2-1.7l1-1.2c0.4,0.6,1,1,1.7,1.4l1,0.6l1-1.4l0.6-0.8c0.6,0.6,1,1,1.9,1.7L449.6,447z
		 M450.9,456.5v1.7l-0.2,1.7v0.2v0.2l-0.2,0.4l-0.2,0.4l-0.2,0.6l-0.4,1.2l-0.6,1.4h-8.7v-5.8h7.9c0,0,0.2,0,0.2-0.2v-0.2v-0.2
		c0-0.2,0-0.2-0.2-0.4l-0.2-0.6c-0.4-0.8-1-1.4-1.4-2.3c0-0.4,0.2-0.6,0.4-1l0.4-0.8l0.4-0.8c0.2-0.6,0.6-1.2,1-1.9
		c0.6,0.6,1.2,1.4,1.4,2.3l0.4,1l0.4,1C450.9,455.2,451.1,455.9,450.9,456.5L450.9,456.5z"/>
	<path class="st0" d="M179.8,457.7c0,1.2-0.2,2.5-0.6,3.5c-0.4,1.2-1,1.9-1.7,1.9h-15.3v-5.2h8.1c0-1.2,0.4-2.5,1-3.5
		c0.2-0.8,0.6-1.4,1-2.1v-0.8v-0.4v-0.2l0.2-0.4l0.2-0.8l0.2-0.6l0.2-0.4c1.2,0.8,2.3,1.9,3.3,2.9c1,0.8,1.7,1.9,2.5,3.1
		C179.4,455.5,179.8,456.7,179.8,457.7z M174.5,456.1c0-0.2-0.2-0.6-0.2-0.8c-0.2-0.4-0.6-0.6-1-0.6c0,0-0.4,0.2-1,0.8
		c-0.2,0.2-0.4,0.6-0.6,1c0,0.2,0.2,0.4,0.6,0.6c0.2,0.2,0.6,0.2,0.8,0.2c0,0,0.4-0.2,0.6-0.6C173.8,456.3,174.5,456.3,174.5,456.1
		L174.5,456.1z M178,458.1c0-0.4-0.2-0.8-0.4-1.2c-0.4-0.4-0.6-0.8-0.8-0.8h-0.2c-0.2,0.2-0.4,0.6-0.4,0.8v0.2l0.2,0.4l0,0l0.4,0.2
		h0.4h1.2L178,458.1z"/>
	<path class="st0" d="M189.6,458.6c0,0.6,0,1.4-0.2,2.1v0.6c0,0,0,0.2,0,0.4s0,0.4-0.2,0.6l-0.2,0.6l-0.2,0.2l-0.2,0.2l0,0l-0.2-0.2
		l-0.6-2.5l-0.4-2.1l-0.2-1l-0.2-0.8c-0.2-1-0.6-2.1-1-3.1l-0.6-1.4c-0.2-0.4-0.4-1-0.8-1.4l0.4-0.8l0.4-0.8
		c0.2-0.6,0.6-1.4,1.2-1.9c0.4,0.8,1,1.7,1.4,2.7c0.4,1,0.8,2.5,1.4,4.3c0.2,0.8,0.4,1.4,0.4,2.3v1L189.6,458.6z"/>
	<path class="st0" d="M206.1,449.7c0,0.8-0.2,1.4-0.4,2.3c-0.2,0.8-0.6,1.2-1.2,1.2c-0.2,0-0.4,0-0.6,0c-0.2,0-0.4-0.2-0.6-0.4
		l-0.6,0.6l-0.8,0.2c0.2,0.4,0.2,0.6,0.4,1l0.2,1c0.2,0.6,0.2,1.4,0.2,2.1c0,1.7-0.2,3.3-0.6,5l-0.2,0.2h-0.2l-0.6-2.1l-0.2-0.8
		l-0.2-0.6c-0.2-0.6-0.4-1.2-0.4-1.7c-0.2-0.6-0.4-1.2-0.6-1.9c-0.2-0.4-0.4-1-0.6-1.4c-0.2-0.6-0.6-1.2-1-1.9l-0.6-0.8l-0.8-1
		l0.6-1.7c0.2-0.6,0.6-1.4,1-1.9c0.2,0.2,0.2,0.6,0.4,0.8l0.6,0.8c0.4,0.4,0.8,0.8,1.4,0.8c0.2,0,0.6-0.2,1-0.8l0.4-1.4
		c0-0.2,0-0.2,0.2-0.2s0.2,0,0.4,0.2l0.2,1c0.2,0.4,0.4,0.6,0.6,0.8h0.2c0.2,0,0.4-0.2,0.6-0.4c0.2-0.2,0.2-0.4,0.2-0.8
		c0-0.2,0-0.4,0-0.6c0.2-0.2,0.2-0.4,0.6-0.6c0.2,0.2,0.2,0.6,0.2,0.8v0.6L206.1,449.7z"/>
	<path class="st0" d="M220.7,451.1c-0.2,0.2-0.6,0.4-0.6,0.6l-0.2,0.2l-0.2,0.4l-0.2,0.4l-1.2,2.9l-0.6,2.1l-0.4,1.4l-0.4,1.4
		l-0.2,1.2c0,0.2-0.2,0.4-0.4,0.4l0,0L216,462c-0.2-1-0.4-2.1-0.8-2.9c-0.4-1.4-0.8-2.7-1.4-3.9c-0.4-1-1-2.3-1.7-3.1
		c-0.2-0.2-0.2-0.2-0.4-0.4c-0.2-0.2-0.2-0.2-0.4-0.4c0-0.8,0.2-1.7,0.4-2.3c0-0.6,0.2-1.4,0.6-2.1c0.6,0.2,1,0.6,1.4,1
		c0.2,0.4,0.4,0.6,0.6,1l0.6,1l0.8,2.3l0.6,2.5l0.4-2.1l0.4-1.2l0.2-0.4l0.2-0.4l0.2-0.4c0.4-0.8,0.8-1.7,1.4-2.5
		c0.2-0.2,0.4-0.4,0.6-0.6l0.8-0.4l0.4,1.2L220.7,451.1z"/>
	<path class="st0" d="M234.6,460.8l-1.2,1.2c-0.6,0.6-1.2,1-1.4,1.2l-2.1-1c-0.8-0.4-1.4-0.8-2.1-1.7c-0.2-0.2-0.4-0.6-0.6-0.8
		c-0.2-0.2-0.2-0.6-0.2-0.8v-0.4c0-0.2,0.2-0.2,0.2-0.4c0.4-0.6,1-1.2,1.4-1.9l0.6-0.8l0.6-0.6l-1.4-1c-0.4-0.4-0.8-0.8-1.2-1.4
		l-0.2-0.6v-0.2v-0.2l0.2-0.2l0.2-0.2l0.8-1l0.6-0.6l0.6-0.6l0.6-0.6l0.6-0.6l0.6-0.4l0.6-0.4h0.2v0.8v0.4c0,0.2,0,0.4-0.2,0.8
		c-0.2,0.4-0.6,0.6-1,0.8l-0.8,0.4c0,0.2,0.4,0.6,1.2,1l1.7,1c0.2,0.2,0.4,0.4,0.4,0.6s0,0.4-0.2,0.6l-0.6,0.6l-0.4,0.6l-1.4,1.9
		l-0.2,0.4c0,0.2,0,0.2,0.2,0.4l2.3,1.9C233.5,459.8,234.2,460.4,234.6,460.8z"/>
	<path class="st1" d="M420.1,529.4c0,0-4.8,2.7-7.6,0c0,0-11.4-12.2-15.7-16.3c0,0,8.9-17.8-6.2-28.9c0,0-0.4,11.8-7.2,14.7
		c0,0-114.2-107-241.7-72.9c0,0,124.8-16.3,229.1,85.1c0,0-6,12.2-16.9,9.1c0,0,11.2,15.7,26.9,4.6l28.1,28.1
		c3.9,2.9,9.3,2.1,12.2-1.9c0-0.2,0.2-0.2,0.2-0.4C423.8,547.6,426.3,538.3,420.1,529.4z M379.6,520.3c-0.6,2.5-3.5,3.7-6.8,3.1
		c-3.3-0.6-5.4-3.3-5-5.6c0.6-2.5,3.5-3.7,6.8-3.1C377.9,515.4,380,518.1,379.6,520.3L379.6,520.3z M389.1,517.6
		c-2.7,2.1-7.2,1-10.1-2.7c-2.9-3.7-3.1-8.3-0.4-10.3c2.7-2.1,7.2-1,10.1,2.7C391.6,511,391.8,515.6,389.1,517.6L389.1,517.6z
		 M396.5,500.5c-0.8,3.3-3.3,5.6-5.8,5c-2.5-0.6-3.9-3.7-3.1-7c0.8-3.3,3.3-5.6,5.8-5C395.9,494.1,397.2,497.2,396.5,500.5
		L396.5,500.5z"/>
	<path class="st2" d="M588.8,106.8c0,0-152.5,9.5-293.9-106.8c0,0-122.5,107.6-293.3,107.6c0,0-40.9,386.5,293.3,616.6
		C294.9,724,609.3,531.7,588.8,106.8z M294.7,710.6C-26.7,489.3,12.5,117.3,12.5,117.3c164.4,0,282.2-103.5,282.2-103.5
		c136.1,112,282.8,102.9,282.8,102.9C597.1,525.5,294.7,710.6,294.7,710.6z"/>
	<path class="st1" d="M468.2,159l-149.6-0.8c-9.9-18.2-21.3-17.4-21.3-17.4c-14.3,2.1-23.5,18-23.5,18H124.1
		c-4.8,1.9-7.6,6.4-7.4,11.6h362.3C479.1,161.1,468.2,159,468.2,159z M281.5,158.4c0,0,6.6-13.2,15.9-13.2c0,0,10.5-0.2,15.3,13.2
		H281.5z"/>
	<path class="st1" d="M502.5,345.2l-54.7-165.3v-11.2h-3.5v11.2l-63.4,165.3h-14.1c3.3,27.5,31.4,48.5,72.1,48.5
		c74.6,0,76.8-48.5,76.8-48.5L502.5,345.2L502.5,345.2z M444,345.2h-58.9L444,188.8V345.2z M447.6,345.2v-156L499,345.6L447.6,345.2
		z"/>
	<path class="st1" d="M210.4,345.2l-55-165.3v-11.2H152v11.2L88.6,345.2H74.7c3.3,27.5,31.4,48.5,72.1,48.5
		c74.6,0,76.8-48.5,76.8-48.5L210.4,345.2L210.4,345.2z M152,345.2H93.1L152,188.8V345.2z M155.5,345.2V188.6l51.4,156.8
		L155.5,345.2z"/>
	<path class="st3" d="M301.9,253.4v154.5c0,0,5,11.4,15.1,15.1h-43.6c0,0,8.7-2.9,14.7-16.5l1.9-154.1
		C289.7,252.4,301.9,251,301.9,253.4z"/>
	<path class="st4" d="M319.3,288.6c0,0,2.5-6.4-0.8-15.9c-5.6-16.7-33-24.2-44.8-3.3c-2.7,4.8-5.4,12.6-2.9,19.2
		c0,0-14.1-20.5,2.7-37.4c0,0-30.4,13.8-32.8,32.8c0,0-6-19.6,15.7-37.4c0,0-26.9,6.2-31.4,18.2c0,0,2.5-24.4,25-31.6
		c0,0-23.1,1-32.4,10.3c0,0,15.7-21.9,41.5-21.9c0,0-7.6-14.1-30.2-21.3c0,0,31.2-7.9,47.1,13.4c0,0-3.5-26.2-8.9-31.4
		c0,0,14.1,6.4,20.5,20.5c0,0,1-22.9,7.4-29.1c0,0,6.8,14.5,6.8,28.5c0,0,2.7-12.2,20.2-20.2c0,0-8.5,19.2-8.5,31.8
		c0,0,16.3-19,47.1-13.4c0,0-22.1,8.1-30.4,21.7c0,0,26.2-0.8,41.7,21.1c-9.7-6.4-21.1-9.9-32.6-10.1c0,0,21.7,7.9,25.2,31
		c0,0-12.2-16.9-31-16.9c0,0,22.5,14.3,14.5,37.4c0,0,0-19-32-33C316.4,251,336.6,265.8,319.3,288.6z"/>
	<path class="st1" d="M168.9,551.1c2.7,4.1,8.1,5.2,12.2,2.5l0.2-0.2l28.1-28.1c15.7,11.2,26.9-4.6,26.9-4.6
		c-11.2,2.9-16.9-9.1-16.9-9.1c104.5-101.4,229.3-85.1,229.3-85.1c-127.2-34.1-241.7,72.9-241.7,72.9c-6.8-2.9-7.2-14.7-7.2-14.7
		c-15.1,11.2-6.2,28.9-6.2,28.9c-4.3,4.3-15.7,16.3-15.7,16.3c-2.7,2.9-7.4,0-7.4,0C164.1,538.5,166.4,548,168.9,551.1z M215.6,515
		c3.3-0.6,6.2,0.6,6.8,3.1c0.6,2.5-1.7,5-5,5.6c-3.3,0.8-6.2-0.6-6.8-3.1C210.2,518.3,212.5,515.8,215.6,515L215.6,515z
		 M201.5,507.5c2.9-3.7,7.4-4.8,10.1-2.7c2.7,2.1,2.5,6.8-0.4,10.3s-7.4,4.8-10.1,2.7C198.6,515.8,198.9,511.2,201.5,507.5
		L201.5,507.5z M197,493.9c2.5-0.6,5.2,1.7,5.8,5c0.6,3.3-0.6,6.4-3.1,7c-2.5,0.6-5.2-1.7-5.8-5C193.1,497.4,194.5,494.3,197,493.9
		L197,493.9z"/>
	<path class="st0" d="M330.4,569.5c0.2,0.6,0.2,1.2,0.4,1.9c0.2,1,0.6,1.9,1,2.9c1.2,2.1,2.1,4.1,2.7,6.4c-2.1,2.1-4.6,3.9-7.2,5.2
		c-1.2,0.6-2.5,1.2-3.7,1.9c-3.1,1.4-6.2,2.5-9.3,3.7c-0.8,0.2-1.4,0.4-2.1,0.8c-1.9,0.4-3.9,1-5.8,1.7c-1,0.2-1,0.2-4.6,1.2
		c-0.4,0-0.8,0-1.2,0.2c-4.1,0.8-8.3,1.2-12.4,1.9l-6.8,0.6c-1,0-2.1-0.2-3.1,0l-8.9-0.6c-5.2-0.6-10.1-1.4-15.1-2.3l-7.2-1.7
		l-4.3-1.2c-3.5-1.2-6.8-2.9-9.9-5c-0.4,0-0.6,0-0.6,0.4c2.1,1.7,4.1,3.3,6.2,5c3.5,2.7,7.4,4.3,11.6,5.4c0.8,0.2,3.3,0.8,6,1.4
		c4.1,1,8.3,1.7,12.4,2.1c3.7,0.6,7.4,0.8,11.4,1l0.2,0.2h0.4l5.6-0.2c0.4,0,0.8,0,1.2-0.2c1.7-0.2,2.5,0,2.5-0.2
		c4.8-0.6,5-0.6,5.2-0.6c0.2,0,2.1-0.4,2.1-0.4c5.6-0.6,11-2.9,16.3-4.3c0.8-0.4,1.4-0.6,2.3-0.8c5.6-2.1,10.7-4.8,15.5-8.1
		c0.8-0.8,1.7-1.7,2.5-2.7c1.4-2.5,2.5-5.2,2.9-7.9c-0.4-2.5-1.9-4.6-2.7-7c0-0.2,0-0.2,0-0.4c0.6,0.2,1.2,0.2,1.9,0.2
		c0-0.2,0-0.4,0-0.6c-1.2-1.4-2.5-3.1-3.7-4.6c-0.2-0.2-0.4-0.4-0.8-0.2c-0.8,1.2-1.4,2.7-1.7,4.1L330.4,569.5z"/>
	<path class="st0" d="M348.2,578.2c1,0.2,1.9,0.4,2.9,0.4c1.7,0,1.7,0,2.7-0.2c1.7-0.4,2.3-0.6,2.5-0.6c0.6,1,0.6,2.1,0.2,3.1
		c-2.5,2.3-5,4.3-7.9,6c-7,4.3-14.3,8.1-21.9,11.4c-0.2,0-3.5,1.4-2.3,2.1c1.2-0.4,2.5-0.8,3.7-1.2c3.7-0.4,7.4-1.4,11.2-2.5
		c2.9-1.7,2.9-1.7,3.9-2.1c2.5-1.4,5-3.1,7.2-4.8l3.5-3.1c1.7-2.3,3.1-5,3.7-7.9c0.2-0.6,0.2-1.2,0.4-1.9c0.6-0.4,1.2-0.8,1.9-1
		c0.4-0.2,0.8-0.6,1.2-0.8c2.1-2.1,2.9-5,2.5-7.9c-0.2-0.6-0.6-1.4-0.6-2.1c-0.6-1.4-1.4-2.9-2.3-4.1c0.6,0,1.2,0.6,1.9,0.4
		c0-0.2,0-0.2,0-0.4c-1.2-2.1-2.7-3.9-4.3-5.6c-0.4-0.2-0.4-0.2-0.8,0c-0.4,1-0.8,2.3-1,3.3c-0.2,1.2,0,1.2,0.8,2.1
		c0.2,0.2,0.2,0.6,0.2,0.8c1,2.3,2.1,4.3,3.3,6.4c0.4,0.8,1.4,2.1,1.2,3.1c-1.2,0.8-2.7,1.4-4.3,1.9c-0.6-2.9-3.1-5.4-6-5.8
		c-3.5,0.4-4.8,4.1-5.6,7C345.9,576.1,346.8,577.5,348.2,578.2z M348.8,572.4c1.7-1.7,4.1,0.4,5.4,1.4l-2.1,0.2c-1-0.2-2.7,0-3.3-1
		C348.8,572.8,348.8,572.6,348.8,572.4z"/>
	<path class="st0" d="M355.2,589.1c0,0-0.2,0-0.4,0c-1,2.1-2.3,7.4,0.8,8.5c1.4-0.6,2.1-2.3,1.7-3.7h-0.2c-0.6,0.6-0.4,1.7-1.4,1.7
		c-2.1-0.8-0.6-4.3-0.4-5.8C355.2,589.5,355.2,589.3,355.2,589.1z"/>
	<path class="st0" d="M374,566.8c0.4,0,1.9,0.2,2.1-0.2c0.2-0.4,0-0.2,0-0.4c-2.1-1.2-4.6-2.3-6.6-3.5h-0.4l-0.2,0.2
		c0.4,3.7,0.4,3.7,0.4,4.3c0.6,0.4,1.2,0.8,1.9,1l1.7,1.9c1.2,1,2.7,2.1,4.1,3.1c2.9,1.7,5.8,3.3,8.7,5.2c0.6,0.6,1.4,1,1.7,2.1
		c-1.4,2.1-3.3,3.5-5.6,4.3c-4.6,2.7-9.5,5.2-14.5,7c-1.9,0.6-3.7,0.2-5-1.2c-1-2.1-1-4.6,0-6.6c0.4-1,0.8-1.7,1.4-2.7
		c0.6,0.2,1,0.8,1.7,0.8c0.8-0.8,1.4-1.9,2.3-2.9c1.4,0.8,2.7,1.7,3.9,2.5h0.4l2.7-3.3c0-0.2,0-0.2,0-0.4c-0.4-0.2-2.3-1.4-4.1-2.7
		c-1.2,0-1.7,2.9-2.7,2.9c-0.2-0.6-1.9-1.2-2.3-1.7c-0.4-0.4-1.2-1.2-1.9-1c-0.8,1-2.5,2.7-2.5,3.9l1.7,1.4l-1.9,4.3
		c-0.4,1.7-0.8,3.1-1.2,4.8c0,0.8,0,1.7,0,2.5c0.2,0.4,0.2,1,0.4,1.4c0.8,1.7,2.5,2.9,4.6,2.9c1.7-0.2,3.1-0.6,4.6-1.4v-0.2
		c1-0.4,1.9-0.8,2.9-1.4c3.5-1.7,6.8-3.7,10.1-5.6l0.2,0.2h0.2c0-0.2,0-0.2,0-0.4l2.3-1.4c1-0.8,2.1-2.1,2.7-3.3
		c0.2-0.4,0.2-1,0.4-1.7c-0.2-2.9-0.4-6.4-3.3-7.9l-0.4-0.4c-3.1-1.9-6.4-3.7-9.5-5.8C374.8,567.4,374,567,374,566.8z"/>
	<path class="st0" d="M221.2,597.6c0.6-0.4,1.2-0.8,1.9-1.2c2.9-1.4,5.6-2.9,8.3-4.1c0.6-0.4,1.4-1.4,1.4-2.3
		c-0.2,0-0.6,0.4-0.8,0.6l-3.3,1.7c-2.7,1-5.2,2.5-7.6,4.1c-0.4,0.6-0.6,1.2-0.6,1.9C220.7,598,220.9,597.8,221.2,597.6z"/>
	<path class="st0" d="M278.4,589.3c-0.4,0-1,1.4-1,1.7c-0.6,1.7-1.4,4.6,0.4,5.6c1-0.2,1.7-2.1,1.7-3.1h-0.2
		c-0.2,0.4-0.6,1.2-1.2,0.8C276.7,592.6,277.5,591,278.4,589.3C278.4,589.5,278.4,589.3,278.4,589.3z"/>
	<path class="st0" d="M293.5,595.1L293.5,595.1c-0.2,0.2-0.4,0.2-0.4,0.4c-0.2-0.2-0.2-0.2-0.4,0c0,0.2,0,0.2,0,0.4h0.2l0,0l0.2-0.2
		C293.3,595.5,293.3,595.5,293.5,595.1L293.5,595.1z"/>
	<path class="st0" d="M300.1,584.4L300.1,584.4c-1,1.4-1.7,3.3-2.1,5c0,1.7,0,3.5,1.9,4.3c1-0.8,1.7-2.3,1.7-3.5h-0.2
		c-0.2,0.6-0.6,1.2-1.2,1.7c-1.7-0.2-1.4-3.1-1.2-4.3C299.4,586.4,299.9,585.4,300.1,584.4z"/>
	<path class="st0" d="M202.8,592c1.2,1.9,3.3,3.1,5.6,3.5c1,0,2.1-0.2,3.1-0.4c0.8-0.4,1.9-0.8,2.7-1.2l2.5-2.1
		c0.8-0.8,1.7-1.7,2.5-2.3c3.7-3.9,8.1-7,12.8-9.5c0.6,2.1,1.9,3.9,3.5,5.2c2.1,1.4,5.8,2.5,7-0.4c0.4-2.1,0.6-3.9,0.6-6
		c0-0.6-0.2-1.2-0.4-1.9c-1.9-3.1-5.4-2.7-8.5-2.5c-1,0.2-0.6,0.4-1-1l-1.2-7.2c-0.6-4.3-1-7.9-1.4-11c-0.4-3.1-0.4-4.8-0.6-8.5
		c1.2,0.2,1.7,2.5,2.7,2.7h0.2v-0.2c-1.4-3.3-2.7-6.4-4.1-9.7c-0.2-0.6-0.4-1.2-1-1.7h-0.2c-0.4,0.6-0.6,1-0.8,1.7
		c-0.6,0.8-1,1.7-1,2.7c0.4,0.4,0.8,1,1,1.7c0.4,3.9,0.8,7.9,1.2,11.8c0.4,6.6,1.2,13.2,2.7,19.8v0.2c-2.9,1.4-5.8,3.3-8.3,5.4
		c-0.4,0.4-0.4,0.4-8.3,7.4c-0.8,0.8-0.8,0.8-2.7,2.1c-0.8,0.6-1.9,0.8-2.7,1.4c-1.9,0.6-3.9-0.2-5-1.9c-0.8-2.3-0.8-4.6,0-6.8
		c0.8-2.1,0.8-2.1,1.7-3.9c0.8-1.2,1.9-2.5,2.5-3.9c0.2,0,0.8,1,1.2,1.2c2.3,1.2,3.1,0,3.5-2.1c0-0.6,0.2-3.1-0.4-3.5h-0.2v0.2
		c-0.2,1-0.4,2.7-2.1,2.3c-1.7-1.4-1-3.7-0.6-5.6c0.2-0.8,0.6-1.9,1-2.7c0.4-0.6,1.7-2.5,1.2-3.3H211c-1.9,2.5-3.1,5.4-3.7,8.5
		l-0.2,1.9c0,1.2,0.2,1.4,0.2,1.9c0,0.4-1,1.4-1.7,2.3c-1.7,2.7-2.9,5.6-3.7,8.9c0,0.8-0.2,1.4-0.2,2.3s0.2,1.9,0.4,2.7L202.8,592z
		 M235,578.8c1.4,0,2.7,0.2,4.1,0.4c0.4,0.2,2.3,1.2,2.1,1.9l-0.8,0.4h-1c0,0-0.6,0-1.2-0.2C236.9,580.8,235.6,580,235,578.8
		L235,578.8z"/>
	<rect x="351.9" y="590.3" class="st0" width="0.2" height="0.2"/>
	<path class="st0" d="M244.1,553.4c1,6.2,1.4,12.4,1.7,18.6c0,1.9,0.2,3.5,0.4,5.4c0.4,2.1,1.2,4.1,2.1,6c0.6,0.8,1,1.7,1.7,2.5
		c0.6,0.6,1,1,1.7,1.4c1.2,0.6,2.7,1.2,4.1,1.9c-0.2,0.8-0.4,1.7-0.6,2.7c0,0.4,0,0.4,0.2,0.6h0.2l1.2-2.7c1.2,0,2.5,0,3.9,0
		c1.2-0.2,2.7-0.4,3.9-0.4c0.2,0,2.9,0.2,3.7,0.4c0.8,0.2,1,0,5.2,0c1-0.2,2.1-0.4,3.1-0.4c2.9-0.4,5.8-1,8.5-1.7
		c3.3-0.6,6.6-1.7,9.7-3.1c1.7-0.6,1.7-0.6,11-4.1c0.2,0.4,0.4,1,0.6,1.7c1,2.5,3.3,4.1,5.8,4.8c0.8,0,1.9,0,2.7-0.2
		c1-0.8,1.9-2.1,1.9-3.5c0-1.7-0.4-3.5-1-5.2c-0.4-0.4-0.8-1-1.2-1.4c-2.3-1-4.6-1.2-7-0.8h-0.2c-0.2-0.4-0.2-0.4-1-4.3
		c-0.6-4.3-1.2-8.7-1.9-13c-0.2-3.3-0.6-5.6-0.8-8.7c-0.2-1.4-0.4-2.9-0.4-4.3c0,0,1.4,1.7,2.1,2.5c0.8,0,0.4-0.8,0.2-1.2
		c-0.8-3.1-2.1-6.4-3.1-9.5l-0.2-0.2c-1,1.2-1.9,2.7-2.1,4.3c0.4,0.6,0.6,1.2,0.6,1.9l0,0c0.4,5.2,0.8,10.3,1.7,15.5
		c0.6,6,1.7,12,2.9,18c0,0.2,0,0.2,0,0.4l-4.6,1.7c-2.5,1-5,1.7-7.4,2.7c-2.3,0.6-4.6,1.4-7,1.9c-2.3,0.6-4.8,1.2-7,1.4
		c0.6-0.6,1-1,1.7-1.7c1.2-2.1,2.3-4.1,3.1-6.4c0.4-1.2,0.2-2.5-0.2-3.7c-1.4-1.9-3.7-2.9-6-3.1c-1.4,0-3.1,0.2-4.6,0.6l-2.1,0.8
		c-1.7,1-3.3,2.1-5,3.3c-1.9,1.7-3.5,3.3-5,5.2c0.2-0.8,0.6-1.9,0.8-2.7c0.2-1.4,0.4-2.9,0.6-4.3c0-1.7,0-3.1-0.2-4.6
		c-0.6-6.6-1.4-13-2.1-19.6c-0.2-1.2-0.2-2.7-0.2-3.9c0.6,0.6,1.2,1.2,1.9,2.1c1.4,0.6-0.4-3.1-0.4-3.3c-0.8-2.5-1.7-4.8-2.7-7.2
		c-0.2-0.2-0.4-0.2-0.6-0.2c-1,1.7-1,1.7-1.9,3.5c0.2,0.6,0.4,1.2,0.6,1.7c0.2,0.8,0.2,0.8,0.6,3.1c0.4,8.1,1.7,16.1,2.5,24.2
		c0.4,3.9,0.4,7.9-0.2,11.6c-0.4,1.9-1.2,3.5-2.1,5.2c-0.6,0-1.4-0.2-2.1-0.4c-1.7-0.6-3.3-1.7-4.6-3.1c-3.3-4.8-3.1-11-3.3-16.5
		c-0.2-3.3-0.6-6.4-0.6-9.7c-0.2-1.2-0.4-2.5-0.6-3.7c-0.4-1.4-0.6-2.9-0.8-4.3c-0.2-0.6-0.4-1.4-0.4-2.1c-0.8-2.5-1.2-5-2.3-7.2
		c0-0.2-0.2-1.2-0.6-0.8c-0.4,1.2-0.8,2.5-1.2,3.9c0,0.2,0,0.2,0,0.4c0.8,2.5,1.7,5,2.1,7.6C243.7,550.1,244.1,551.7,244.1,553.4z
		 M315.1,580.6c0.2,1-1.2,1-2.1,1.2c-1.4-0.2-2.9-1-3.9-2.1C311.4,579.6,313.3,579.8,315.1,580.6L315.1,580.6z M264.5,578.4
		c1.2-1,2.7-2.1,4.1-3.1c1.9-0.8,1.9-0.8,4.1-1.7l1.4-0.2h1c2.1,0.4,7,2.1,6.4,4.8c-2.3,2.1-5,3.7-8.1,4.6c-3.3,0.8-3.9,1-4.1,1
		c-3.3,0.6-6.6,1-9.9,1v-0.2C261,582.5,262.7,580.2,264.5,578.4L264.5,578.4z"/>
	<path class="st0" d="M336.8,543.7c0.2,1.9,0.2,1.9,0.6,6.6c0.6,3.3,1,6.6,1.7,9.9c1,6.8,2.1,13.6,2.9,20.5c0.2,2.1,0,4.1,0.2,6.2
		l0,0l0.2-0.2l1.4-4.6c0-0.8,0.2-1.7,0.2-2.5c-0.6-9.5-1.9-18.8-3.5-28.3c0-0.6-0.2-1-0.2-1.7c-0.4-1.7-0.6-3.3-0.8-5l0.2,0.2
		c0.8,1,1.7,1.9,2.5,2.7c0.2,0,0.2-0.4,0.2-0.6c-0.4-1.4-1-3.1-1.4-4.6c-0.8-2.1-1.9-4.1-2.9-6l-0.4-0.2h-0.2
		c-0.8,1.2-1.4,2.5-1.9,3.9c0.2,0.8,0.6,1.7,1.2,2.5C336.6,542.8,336.6,543.2,336.8,543.7z"/>
	<path class="st0" d="M209,580.6c-0.8,2.1-1.9,6,0.8,7.2c1.7-0.2,1.4-1.7,1.7-3.1c0-0.2,0-0.4,0-0.6c-0.2,0-0.2,0-0.4,0
		c-0.2,0.8-0.4,1.7-1.4,1.2c-0.6-0.8-0.8-1.7-0.8-2.7C209,582.1,209.2,581.5,209,580.6L209,580.6z"/>
	<path class="st0" d="M314.3,542.2c0.6,5.2,1,10.5,1.9,15.7c0.6,4.6,1.2,9.1,2.1,13.4c0.2,1.9,0.4,3.7,0.8,5.8
		c0.4,3.7,0.4,3.7,0.6,7.6h0.2h0.2c0.4-1.7,0.8-3.3,1.2-5c0.2-2.3,0.2-4.3-0.2-6.6c-1.2-9.5-2.7-18.8-3.7-28.3
		c0.2,0.2,2.5,3.9,2.7,2.1l-2.1-6c-0.8-1.7-1.7-3.3-2.5-5c-0.4-0.2-0.6,0-0.8,0.2l-1.4,3.5c0,0.2,0,0.2,0,0.4
		C313.7,540.6,314.1,541.4,314.3,542.2z"/>
	<path class="st0" d="M385.6,581.7c0-0.2,0-0.4-0.2-0.4S385.2,581.7,385.6,581.7C385.6,581.9,385.4,581.7,385.6,581.7z"/>
	<path class="st0" d="M326.5,580.8L326.5,580.8h0.4l2.5-3.5v-0.2c-3.5-2.9-3.5-2.9-3.9-3.3h-0.2c-0.6,0.8-0.6,0.8-1.4,1.9
		c-0.4,0.6-1,1.2-0.8,1.9C325.9,580.2,325.9,580.2,326.5,580.8z"/>
	<path class="st0" d="M389.5,574c0,0.2,0,0.2,0,0.4h0.2L389.5,574z"/>
	<path class="st0" d="M296.1,573.6c0.4,1.2,0.6,1.7,2.1,1.9c1.7-0.4,1.9-3.1,1.4-4.3h-0.2c0,0,0,0-0.4,1.2c-0.2,0.4-0.4,0.6-0.8,0.8
		c-2.3,0.2-1.4-2.9-1.2-3.9c0.2-0.6,2.1-4.1,1.7-4.8h-0.2c-1.4,2.3-2.5,5-2.7,7.9C295.9,572.4,296.1,573,296.1,573.6z"/>
	<path class="st0" d="M217,554.8L217,554.8l0.2-0.2h0.2c0,0,0,0,0.6,1c0.4,0.8,0.8,1.7,1,2.5l-0.8,0.6c-0.4,0.6-0.6,1.2-0.6,2.1
		c0,0,0,0,0.6-0.6c0.4-0.2,1-0.2,1.4,0v0.2c-0.6,0.2-1,0.6-1.7,1c-1.9,2.5,0.4,5.8,1.2,7.9l1,2.5c1,3.5,1,3.5,1.2,4.1
		c0,0.4,0.2,0.8,0.4,1h0.2c0-2.3-0.4-4.3-1.2-6.4l-1-2.7c-0.6-1.2-1.2-2.5-1.7-3.7c-0.2-0.2-0.4-0.6-0.4-1c1-0.8,2.1-1.4,3.5-1.7
		c0.2-0.4,0.4-1,0.6-1.4c0-1-1.4-1.9-2.3-1.9c0.2-1.9,0.4-3.9,0.8-5.8c0.8-1.4,1.7-1,2.3,0.4h0.2c0.2-0.6,0.2-1.2,0.2-1.9
		c-0.4-0.8-0.8-1.7-1.9-1.4c-1.9,1.2-1.7,4.3-2.1,6.2c-0.6-1.4-1.9-4.6-3.7-4.6c-0.2,0.8-0.2,1.7-0.2,2.5
		C215.6,553.8,216.4,554.4,217,554.8z"/>
	<path class="st0" d="M225.9,576.5h0.6c0.6-0.8,1-1.9,0.8-2.9c-0.2-0.2-0.6,0.6-0.6,0.8c-1.2,0.6-1.9-1-1.9-1.9
		c0.4-1,0.6-1.9,0.6-2.9c-0.8,0.2-1,3.5-1.2,4.6C224.2,574.9,224.9,575.9,225.9,576.5z"/>
	<path class="st0" d="M300.1,573L300.1,573l-0.2,0.2L300.1,573z"/>
	<path class="st0" d="M291.8,563.3c-1.2-0.8-1.7-0.4-2.1,0.8c-0.4,1.7-0.8,3.9-1.2,5.6l0,0c-0.4-0.4-0.6-1-1-1.7l-0.6-0.8
		c-0.6-0.8-2.7-3.1-3.9-2.9c-0.2,1-0.2,1.9,0,2.9c0.6,0.4,1.4,0.8,2.3,1l0.4-0.2l1.2,1.7c0.4,0.8,1,2.1,1.4,2.9h0.2l0.2-0.2
		c0.8-3.7,1-5.2,1.2-6.4c0-0.2,0.2-0.6,0.4-0.8c0.8,0.4,1.4,1,1.9,1.9h0.2c0.2-0.8,0.4-1.9,0.2-2.9h-0.2L291.8,563.3z"/>
	<path class="st0" d="M236,567l0.4-0.2c1,1.4,1.9,2.9,2.3,4.6l0.2,0.2h0.2c0.8-2.1,1-4.6,1.9-6.6c0.8-1,1.7-0.2,2.3,0.8
		c0.6-0.2,0.4-1.9,0.4-2.3c-0.6-0.6-1-1.2-1.9-1.2c-1.9,0.8-1.9,5.2-2.5,6.4c-0.4-0.6-0.4-0.6-1.4-2.7c-0.6-0.8-2.1-3.3-3.1-3.1
		c-0.4,0.8-0.6,1.9-0.6,2.7C234.2,565.4,235.2,566.2,236,567z"/>
	<path class="st0" d="M255.2,570.3c1.4-0.4,1.7-2.7,1.4-3.9l0,0h-0.2c-0.2,0.6-0.4,1.4-1.2,1.4c-1.7-0.8-1.4-2.9-1.4-4.6
		c0.4-1.2,0.6-2.3,1-3.5l-0.2-0.2l-0.4,0.2c-0.8,1.7-1.2,3.5-1.4,5.4C253,567.2,253,569.9,255.2,570.3z"/>
	<path class="st0" d="M297.6,551.9l-3.5,1.9c-6,2.9-11.8,5.6-17.6,8.9c-2.5,1.2-4.8,2.9-7,4.8c-0.2,0.6-0.2,1.4,0,2.1
		c2.7-2.3,5.6-4.1,8.7-6c4.6-2.5,4.6-2.5,6.4-3.3c0.2,0,0.4,0,0.4-0.2l12.2-6C297.4,553.6,298.4,551.9,297.6,551.9z"/>
	<path class="st0" d="M379.6,565.4c1-0.2,1-1,1.4-2.1c0-0.4,0-1.7-0.4-1.9l-0.2,0.2c0,0.8-0.4,1.9-1.4,1.7c-0.8-0.8-0.4-2.9-0.4-3.9
		c0-0.6,0.8-2.7,0-2.9c-0.6,1.2-0.8,2.7-0.8,4.1C377.7,562.5,377.7,564.5,379.6,565.4z"/>
	<path class="st0" d="M350.7,557.9L350.7,557.9c-0.4,0.6-0.4,1.2-0.4,1.9c-0.2,0.8-0.4,1.4-0.6,2.3c-0.2,1.7-0.6,2.9,1,3.5
		c1,0,1.9-0.4,2.5-1.2c0.6-1.4,0.6-2.9,0-4.3l-0.6-0.8C351.7,559,351.1,558.5,350.7,557.9z M350.7,563.5c-0.4-0.2-0.6-0.2-0.6-0.6
		c0-0.4,0.2-2.1,0.8-2.5c0.6,0.4,1.9,1,2.1,1.9C352.3,563.1,351.5,563.5,350.7,563.5L350.7,563.5z"/>
	<path class="st0" d="M311.8,565.2c0.6,0,0.8-0.2,1.2-0.8c0.2-0.6,0.2-1.4-0.2-2.1h-0.2c-0.2,0.2-0.2,0.4-0.4,0.8
		c-0.6,0.4-1.2-0.2-1.4-0.6c0-1.4,0.6-2.9,0.6-4.3h-0.2C310.2,559.8,308.9,564.3,311.8,565.2z"/>
	<path class="st0" d="M366.2,555.2L366.2,555.2c-1,1.7-2.9,6.8-0.2,7.9c0.4-0.2,0.8-0.6,1-1.2c0-0.2,0.6-2.5,0.2-2.5
		c-0.2,0.6-0.6,1.4-1.2,1.7C364.1,560.4,365.7,556.5,366.2,555.2L366.2,555.2z"/>
	<path class="st0" d="M324,538.9c0.6,0.6,1.9,2.1,1.9,2.9c-0.8,0.2-1.4,1.9-1.2,2.5c0.4,0,0.6-0.4,0.6-0.6c0.4,0,1.4,0,1.7,0.6
		l-1.2,0.4c-1.4,0.8-1.4,1.9-1.7,3.3c0.8,4.1,3.5,7.6,5,11.8c0,0.4,0,1,0.4,1.4c1-2.5-0.8-6-2.1-8.1c-0.8-1.7-1.7-3.5-2.3-5.2
		c0-0.4,0-0.6,0-1c1.2-0.6,2.5-1,3.7-1.2c0.2-0.4,0.6-1,0.6-1.7c-0.2-0.6-1-1-1-1.2l-1.7-0.8c0-1.4,0.2-2.9,0.4-4.3
		c0.2-0.6,0.4-1.4,1.2-1.4c0.4,0.2,1,0.6,1.2,1c0.4,0,0.4-1.7,0.4-1.9c-0.4-0.6-1-0.8-1.7-1c-1,0.2-1.2,0.8-1.4,1.9
		c-0.2,1.2-0.4,2.7-0.4,3.9c-0.4-0.2-1-1.7-1.4-2.1c-0.8-1-1.9-1.9-3.1-2.7h-0.2c-0.2,0.8-0.2,1.4-0.2,2.3c0.6,0.4,1.2,0.8,2.1,1
		L324,538.9z"/>
	<path class="st0" d="M273.6,558.3c-0.8-1.4-2.9-2.3-4.1-3.3c-1,0.2-2.3,2.7-2.7,3.5c0,0.2,0,0.2,0,0.4c1.2,1,2.5,1.9,3.7,2.9
		c0.8-0.2,1.4-1.2,2.1-1.9h0.2c0-0.2,0.2-0.2,0-0.4C273,559.2,273.6,558.7,273.6,558.3z"/>
	<path class="st0" d="M348.8,554.6c5.6-3.3,11.2-6.4,17.1-9.1c0.6-0.2,2.5-1.7,2.9-1.4c0.4-0.6,0.6-1.2,0.6-2.1
		c-1,0.4-2.1,1-3.1,1.7c-3.5,1.7-7,3.5-10.5,5.2c-0.2,0.2-1,0.6-6.6,3.9c-2.1,1.4-3.3,2.1-3.5,4.8
		C346.5,556.3,347.6,555.2,348.8,554.6z"/>
	<path class="st0" d="M367.8,548.2c-0.2,0.8-0.4,1.7-0.4,2.7c0.4,0.6,1,1,1.7,1.4c0.2,0,0.6-0.2,0.6-0.4c1,1.2,1.7,2.7,2.1,4.1l0,0
		l0.2-0.2c0.4-1.4,0.4-1.4,1.4-5.8c0-0.2,0.2-0.4,0.2-0.4c0.8-0.4,1.9,0.6,2.1,1.2c0.6-0.2,0.4-1.7,0.2-2.3c-0.6-0.6-1.7-1.7-2.5-1
		c-0.8,1.9-1.4,3.7-1.9,5.8l0,0c-0.4-1-0.8-1.9-1.4-2.9C369.9,550.1,368.6,548.2,367.8,548.2z"/>
	<path class="st0" d="M264.7,553.2c-0.2,0.8-0.4,1.7-0.2,2.3c0.8-0.4,1.4-0.8,2.1-1.4c4.6-2.7,9.1-5,13.6-7.6c2.3-1.2,4.8-2.5,7-3.5
		c2.9-1.2,5.8-2.5,8.5-3.7l1-0.2c0.6-0.6,0.8-1.7,0.8-2.5c-0.8-0.2-2.5,0.8-3.1,1c-5.4,2.3-10.7,4.8-15.9,7.6
		c-4.6,2.7-8.9,5.2-13.4,7.6C265.2,552.7,264.9,553,264.7,553.2z"/>
	<path class="st0" d="M285.2,551.1c0.2,1.4,0.4,2.1,1.4,2.9c1.2-0.4,1.9-1.9,1.4-3.1l0,0h-0.2c0,0.2-0.2,0.2-0.2,0.4
		c-0.6,0.8-1,0.6-1.7-0.2c-0.6-1.9,1-3.3,1-5.2C286,546.3,285.4,550.1,285.2,551.1z"/>
	<path class="st0" d="M237.5,554.8c0.8,0,0.8-0.2,1.2-0.8c0.4-0.6,0.6-2.7,0.2-3.3h-0.2c-0.2,0.6-0.2,1.7-1,1.7
		c-1.4-0.6-1.7-2.3-1.7-3.7c0-0.6,0.6-2.7,0.6-2.9h-0.2C235.2,548.2,234.2,553.2,237.5,554.8z"/>
	<path class="st0" d="M348.4,542.2c0.2,0.4,0.4,0.8,0.8,1.4c0.6,1.2,0.8,2.7,0.8,4.1c-0.2,0.4-0.6,1.2,0,1.7c1.7-0.6,1-4.8,0.8-6
		c-0.2-0.8-0.6-1.7-1-2.3c-0.8-1-0.8-1-1.7-2.1c-0.4-0.4-1.9-1.9-2.5-1.7c-0.4,0.6-0.4,1.4-0.4,2.1
		C346.3,540.2,347.4,541.2,348.4,542.2z"/>
	<path class="st0" d="M248.2,539.7c0,0.2,0,0.2,0.8,0.8c1.7,1.9,2.9,4.1,3.5,6.6c0,0.6,0,1,0,1.7c0,1-0.2,2.1-0.2,2.3h0.4v0.2
		l0.4-0.4c0.8-2.1,0.8-4.6,0.2-6.6c-0.8-2.7-2.3-5-4.3-6.8c-0.6,0-1,1.7-1,1.9C248,539.6,248,539.5,248.2,539.7z"/>
	<path class="st0" d="M356.7,543.9c0.4,0.2,0.8,0.2,1,0.2l1-0.4c0.8-0.8,1-2.1,0.4-3.1h-0.2c-0.4,0.6-0.4,1.4-1.2,1.4
		c-1.2-0.6-1-0.8-0.8-2.3c0.2-1,1-2.3,0.6-3.3h-0.2c-1.4,2.1-1.9,4.6-1,6.8L356.7,543.9z"/>
	<path class="st0" d="M265.6,540.8l0.6-0.2c0.8,1,1.2,2.7,1.9,3.9l0.4-0.2c0.2-1.7,0.6-3.5,1-5.2c0.4-0.8,0.8-1.9,1.9-1
		c0.2,0.2,0.6,1,0.8,0.8c0.2-0.6,0.4-1.4,0.2-2.1l-1-1c-2.3-1.4-3.1,5.2-3.3,6.2l0,0l-1-2.5c-0.6-0.8-1-1.9-1.9-2.3
		c-0.4-0.2-0.8-0.8-1.2-0.6c-0.2,0.8-0.2,1.4-0.2,2.3C263.7,539.3,265.2,540.8,265.6,540.8z"/>
	<path class="st0" d="M308.9,542.8h0.6c0.6-0.8,1-2.1,0.8-3.1c-0.6,0.2-0.4,1-1.2,1.2c-2.3-0.6-0.8-3.5-0.6-5h-0.2
		c-0.6,1.2-0.8,2.5-1,3.9C307.7,541.4,307.7,542,308.9,542.8z"/>
	<path class="st0" d="M280.4,542.2l0.4-0.2c0.4-0.6,1-2.1,0.6-2.7c-0.2,0.2-0.4,0.6-0.6,0.8c-1.9-0.2-0.6-2.9-0.4-3.9l-0.2-0.2H280
		C279.2,537.9,278,541.4,280.4,542.2z"/>
</g>
</svg>
