<?xml version="1.0" encoding="UTF-8"?>

<svg id="Layer_1" xmlns="http://www.w3.org/2000/svg" version="1.1" viewBox="0 0 512 512">

<defs>

<style>

.st0{fill:#095C37;}

</style></defs>

 <!-- Generator: Adobe Illustrator 29.4.0, SVG Export Plug-In . SVG Version: 2.1.0 Build 152) -->

 <path class="st0" d="M163,113.6l-51.5,51.5c-3.8,3.1-6.4,4.9-11.5,5.3-27.9,2.5-59.5-1.9-87.8-.1-16.9-3.4-16-26.8,1.7-28.4h79.8c0-.1,51.2-51.9,51.2-51.9,3.2-2.6,6.8-4.9,11.1-4.9l202.2.2,6.9,3.8,53,52.6,81.4.3c16.1,3.2,16.1,25.1,0,28.3h-89.5s-3.4-1-3.4-1c-20.3-17-37.6-37.6-57.2-55.5l-113.5-.2-3.5.9-39,39.1-.4,1.8c16.2,5.9,32.9,5.3,47.3-4.6,4.3-3,7.7-8.1,13.5-8.6,23.8,1.4,50.2-2.2,73.6-.1,2.1.2,3.8.5,5.7,1.4,3.7,1.7,24.1,22.5,28.9,27.1,28.3,27.3,55.9,55.4,83.9,83,4.1,5,6.9,11.1,9,17.2l47.2.3c14.4,5,13.2,25-2,27.8-7.4,1.4-45-.8-47,.5-5.8,17.3-21.8,25.3-38.8,28.2-2,29.3-30.3,47.9-58.4,40.1-5.5,9.4-9.2,17-18.8,23-12.2,7.6-25.8,8.6-39.5,4.4-2.2,12.7-15.1,25.4-27,29.3-24.9,8.1-40.4-4.9-56.1-22.1-1.4-.3-9.5,5.2-12.1,6.3-24,9.6-51.5-2.6-58.4-27.6-36.4,10.3-67.7-20.2-58-56.9-12.2-4.7-21.9-13.2-27.1-25.3-2.7-1.8-39.7.6-47.3-.6-14.6-2.5-15.1-24.3-.7-27.8l46.2-.8c1.4-2.3,1.9-5.1,3.2-7.5,5.5-9.9,25.2-30.2,35.5-34.6,23.2-9.8,47.5,0,58.5,22.1,29.5-24.5,71.8-7,75.2,30.9,15,2,27.8,8.4,35.5,21.8,6.2,10.9,7,20.2,5.6,32.5,10.4,8.9,19.8,21.7,30.2,30.2,17.8,14.5,36.2-5.8,24-21.3-13.3-16.9-35.3-32.4-49.3-49.2-1.9-2.3-4.8-6-5.2-9-2.1-13.7,12.5-23,23.4-13.7l67.1,66.9c15.2,8.7,31.5-7.9,22-22.9l-67.3-67.6c-8.9-12.8,4.8-29.8,18.6-21.3l65.8,65.5c15.9,14.9,37.8-4.6,23.8-22-8.7-10.9-26.3-24.7-36.8-35.1-22.1-21.7-43.5-44.1-65.9-65.5l-58.4-.2c-26.5,21.9-63.2,24.5-91.7,4.6-9.9-6.9-19.9-15.4-10.5-27.7l32.4-32.8h-29.7ZM124.8,279.2c14-18.3-6.3-35.7-22.2-23.6s-16.2,15.6-17.8,19.5c-5.7,14.8,8.5,27.2,22.4,20.6,2.5-1.2,15.6-13.8,17.6-16.5ZM116.7,350.3c6.9,6.4,15.7,5,22.7-.2,19.1-14.3,37-40.3,56-55.8,14.4-16.4-3.1-36.3-21.3-24.8-16.8,19.4-40.9,37.1-56.9,56.7-5.8,7.1-8,17.2-.6,24.1ZM173.5,378.7c7.8,7.3,16.7,4.6,24.1-1.4s41-39.5,43.7-45.1c7.6-15.7-8-29.3-22.8-21-6.6,3.7-38.7,36.3-44.5,43.4-5.8,7.1-8,17.2-.6,24.1ZM266.1,393.8c12.1-11.4.4-28.2-10.7-35.1-5.2,6.6-16.7,14.3-21.1,20.8-.7,1-.7,1.1-.5,2.3s12,12.2,13.4,13.3c5.7,4.2,13.6,3.6,18.8-1.2Z"/>

</svg>