<svg xmlns="http://www.w3.org/2000/svg" viewBox="0 0 1008.64 1046.95"><circle cx="548.03" cy="147.89" r="147.89" style="fill:#f9ae40"/><path d="M1008.64 149.14c0 184.58-109.15 344.18-266.36 417.59-47.82-41.36-104.85-73.52-169.28-92.65-112.02-33.35-226.9-22-325.41 23.91-98.03-84.52-160.2-209.57-160.2-348.85h192.24c0 148 120.39 268.39 268.39 268.39s268.39-120.39 268.39-268.39h192.23Z" style="fill:#57cefb"/><path d="m882.87 1046.95-184.23-54.87c42.32-141.79-38.73-291.58-180.52-333.78-141.91-42.32-291.58 38.73-333.9 180.52L0 783.95c39.21-131.38 132.1-232.4 247.59-285.96 80.7 69.7 185.78 111.78 300.43 111.78 69.34 0 135.21-15.42 194.27-43.04 132.94 114.89 193.91 301.26 140.59 480.23Z" style="fill:#006cf2"/></svg>