<svg id="Layer_1" data-name="Layer 1" xmlns="http://www.w3.org/2000/svg" width="575.56" height="265.79" viewBox="0 0 575.56 265.79">
  <title>system-logo</title>
  <rect width="48.86" height="48.86" style="fill: #c1922d"/>
  <polygon points="380.24 0 353.21 0 304.35 0 304.29 0 304.29 48.86 304.35 48.86 304.35 157.21 255.6 157.21 255.6 0 206.75 0 206.75 157.21 168.63 157.21 168.63 0 119.77 0 119.77 157.21 48.86 157.21 48.86 59.6 0 59.6 0 157.21 0 205.28 0 206.07 429.1 206.07 429.1 157.21 353.21 157.21 353.21 48.86 380.24 48.86 380.24 129.72 429.1 129.72 429.1 48.86 429.1 0 380.24 0" style="fill: #136936"/>
  <path d="M572.74,0H444.93V206.07h48.86V129.73h81.77V0ZM493.79,80.87v-32H526.7v32Z" style="fill: #c1922d"/>
  <rect x="238.64" y="216.93" width="48.86" height="48.86" transform="translate(504.43 -21.71) rotate(90)" style="fill: #c1922d"/>
  <rect x="185.03" y="216.93" width="48.86" height="48.86" transform="translate(450.82 31.9) rotate(90)" style="fill: #c1922d"/>
  <path d="M504.74,13.54V24.43h-11V35.31h32.94V13.54Zm16.48,10.89H510.29V19.06h10.92Z" style="fill: #fff"/>
  <path d="M127.38,13.54V35.31h32.94V13.54Zm21.91,16.27H138.43V19h10.86Z" style="fill: #fff"/>
  <rect x="375.1" y="177.99" width="48.94" height="10.86" transform="translate(-39.36 208.7) rotate(-27.95)" style="fill: #fff"/>
</svg>
