<?xml version="1.0" encoding="utf-8"?>
<!-- Generator: Adobe Illustrator 27.8.1, SVG Export Plug-In . SVG Version: 6.00 Build 0)  -->
<svg version="1.1" id="Layer_1" xmlns="http://www.w3.org/2000/svg" xmlns:xlink="http://www.w3.org/1999/xlink" x="0px" y="0px"
	 viewBox="0 0 595.3 324.1" style="enable-background:new 0 0 595.3 324.1;" xml:space="preserve">
<style type="text/css">
	.st0{fill:#056C38;}
	.st1{fill:#D9A22D;}
</style>
<g>
	<path class="st0" d="M388.3,178.6c-3,2.8-6,5.6-9,8.3c-11.7,10.5-25.8,16.9-40,23c-25.6,10.9-52.7,16.2-80.2,19.5
		c-13,1.5-26,2.1-39,2.1c-23,0-45.7-2.7-67.9-8.9c-18-5-33.1-14.9-44.7-29.7c-2.6-3.4-4.2-7.3-5.8-11.5c-1.4,1.2-1.5,2.7-1.9,3.9
		c-4.7,12.7-11.2,24.2-22.4,32.2c-7.7,5.5-15.9,10.2-25.8,10.4c-9.2,0.2-16.8-5.8-19-14.8c-3.3-13.5-2.2-26.8,1.6-40
		c1.8-6.3,4.5-12.2,7.3-18.1c0.3-0.7,0.5-1.9,1.5-1.8c1.2,0.1,1.2,1.4,1.4,2.3c0.7,3.3-0.2,6.4-1.4,9.5c-1.9,5.3-3.9,10.6-5,16.2
		c-1.1,5.6-0.7,11.1,0.4,16.5c1.7,9.1,10.3,13.9,20.4,11.3c11.2-3,20.2-9.5,28.1-17.8c1.6-1.7,3-3.5,4.4-5.3c6.8-8.4,6.2-18,5-27.9
		c-1.2-9.6-4.7-18.5-8.5-27.2c-3.7-8.5-1.4-16.3,1.6-24.1c0.3-0.9,0.8-1.8,1.9-2c1.1-0.2,1.3,0.8,1.7,1.5
		c3.6,7.6,7.5,15.1,10.4,23.1c3.8,10.7,5.3,21.8,6.4,32.9c1.4,14.6,8.7,25.4,21.1,32.7c12.1,7.3,25.5,11.3,39.2,14.5
		c27.1,6.3,54.6,6.3,82.1,4.8c21.8-1.2,43.2-5.9,64-13c7.6-2.6,14.9-6.1,22.4-9c20.9-7.9,38.7-20.3,55-35.3c1.3-1.2,2.1-4.1,4.3-3.2
		c2.1,0.9,1.1,3.7,1.1,5.7c0.1,8.5-0.7,17.1,1.8,25.5c0.8,2.6,1.6,5,3.4,7.1c3.9,4.6,7.8,5.7,13.5,3.4c1.9-0.8,3.9-1.1,6-1.1
		c2.1,0,4-0.7,5.9-1.5c2.7-1.1,3.5-2.8,2.8-5.7c-1.8-6.8-2.7-13.8-1.1-20.8c2.4-10.6,8.1-19.3,16.6-26c5.4-4.3,10.1-3.5,14.4,1.9
		c3.8,4.7,5.5,10.3,6,16.1c1,11,0.2,21.7-7.2,30.9c-2.4,3-1.7,4.7,2.1,4.9c4.7,0.3,9,2.6,13.8,2.5c12.2-0.1,22.9-3.4,31.2-12.7
		c2.3-2.6,4.8-5.1,7.2-7.7c1.3-1.4,2.7-2.8,4.6-2c2.1,0.9,1.1,2.9,0.8,4.5c-1.8,9.7,2.2,14.5,12,15.8c7.2,1,13.8-1,20.5-2.8
		c2.5-0.7,3-2.7,2.3-4.9c-0.7-2.3-1.5-4.6-2.6-6.7c-4.7-9.5-9.2-19.1-12.8-29.1c-1.3-3.5-1.6-7.3-5-9.6c-1-0.7-0.7-1.9-0.5-3
		c0.8-4,1.6-8,2.4-12.1c0.5-2.5,1.6-3.1,3.6-1.3c5.9,5.2,11,11.2,16.5,16.7c1.9,2,1,3.4-1.3,3.7c-3.8,0.5-3.5,2.2-2,4.9
		c3.4,6.4,6.1,13.1,8.2,20.1c2.9,9.4,2.8,18.8-0.6,28c-3.6,9.6-12.2,12.4-20.9,14.9c-4.1,1.1-8.3,1.2-12.5,0.2
		c-7.6-1.8-12.7-7.1-14.1-14.7c-0.2-1.1,0.3-2.7-1.4-3c-1.4-0.2-2,1.2-2.7,2.1c-4.3,6.3-9.6,11.6-16.8,14.5
		c-15.9,6.3-31.1,3.6-45.3-5c-3.7-2.3-6.6-2.7-10.2-0.3c-6.4,4.2-13.5,6.3-20.9,7.8c-15.2,3.3-27.6-6.4-28.2-22
		c-0.2-4.6,0.3-9.1,0.9-13.6C388.9,178.9,388.6,178.8,388.3,178.6z M459.8,171.7c-0.7-5.3-3.2-9.9-6.7-14c-1-1.2-2.4-0.8-3.7-0.3
		c-12.1,5.4-14.2,14.8-5.7,24.7c0.2,0.3,0.5,0.6,0.7,0.8c0.9,1,2.1,1.4,3.2,0.6c3.8-2.5,7.7-5.1,10.9-8.4
		C459.4,174.3,459.7,173.1,459.8,171.7z"/>
	<path class="st1" d="M343.4,96.9c-0.8-3.4,1.1-5,4.7-6.6c23.1-9.9,46.6-18.6,69.7-28.4c17.7-7.6,35.8-14.4,53.6-21.7
		c20.1-8.2,40.3-16.1,60.2-24.6c5-2.1,10-4.1,15.1-6.1c3.1-1.3,3.8-0.8,3.9,2.7c0.2,6-0.5,6.7-6.2,8.9c-12.4,5-24.6,10.6-37.1,15.3
		C486,44.2,465.5,54,444.3,62c-19.2,7.3-37.9,15.6-56.9,23.4c-12.8,5.3-25.7,10.5-38.5,15.8C343.5,103.4,343.4,103.4,343.4,96.9z"/>
	<path class="st1" d="M457.1,77c-0.7-3.3,1-5.2,4.7-6.6c23.6-9.4,47.1-19.1,70.6-28.8c4.9-2,9.8-4.1,14.6-6.2
		c2.4-1.1,3.5-0.4,3.7,2.3c0.4,6.6,0.1,7-6.1,9.5C517,58.4,489.5,69.7,462,81C457.1,82.9,457.1,82.9,457.1,77z"/>
	<path class="st0" d="M501.3,102.4c1.3-3.9,3.3-8.5,6.3-12.6c1.4-1.9,3.2-1,4.8,0c3.1,1.9,6.2,3.8,9.2,5.7c2.3,1.4,4.1,1.1,5.3-1.4
		c1.4-2.9,3.5-5.5,4.4-8.7c0.6-2,1.7-2.7,3.5-1.7c4.7,2.6,9.4,5.4,14.1,8.2c1.5,0.9,1.4,2.4,0.7,3.8c-1.8,3.8-3.6,7.6-5.4,11.4
		c-1.2,2.4-2.5,3.1-5.1,1.3c-3.5-2.5-7.5-4.3-11.3-6.5c-2.2-1.2-3.5-0.7-4.6,1.5c-1.3,2.8-3,5.5-4.3,8.3c-0.9,2-2.3,2.4-4.1,1.4
		c-4-2.1-8.1-4.3-12.1-6.5C501.6,106,501.2,104.9,501.3,102.4z"/>
	<path class="st0" d="M393,233.3c-2.3,4.1-3.7,8.9-6.9,12.8c-0.9,1-1.9,0.7-2.9-0.1c-3-2.5-6.6-3.9-9.7-6.2c-2-1.4-3-0.8-4,1
		c-1.3,2.4-2.8,4.8-4,7.3c-1.1,2.3-2.3,2.8-4.5,1.4c-3.4-2.1-6.8-4-10.3-6c-1.6-0.9-1.9-1.9-1.1-3.6c1.7-3.5,3.5-6.8,4.7-10.5
		c0.6-1.9,1.9-2.3,3.7-1.3c3.2,1.9,6.5,3.7,9.6,5.8c1.9,1.2,3.3,1.3,4.4-0.9c1.3-2.5,2.7-4.8,3.9-7.3c1.2-2.7,2.7-3.4,5.3-1.6
		c3.3,2.3,6.7,4.3,10,6.5C392.1,231.2,393,231.8,393,233.3z"/>
	<path class="st0" d="M183.5,294.4c-1.1,1.4-0.6,2.8-0.6,4c-0.1,4.2,0,8.4-0.2,12.7c-0.1,1.6-0.8,3.2-2.8,3.2
		c-1.9,0-2.2-1.6-2.3-3.1c-0.8-8.7-1-17.3-0.1-26c0.1-0.9-0.2-2.1,0.9-2.6c1.3-0.6,2,0.6,2.7,1.3c4.9,5.1,10.2,9.9,14.7,15.4
		c0.6,0.8,1.3,2.2,2.5,1.7c1-0.4,1-1.9,1-2.9c0.1-4,0.1-8,0.1-11.9c0-2,0.3-3.6,2.8-3.7c2.7-0.1,3.2,1.6,3.2,3.7
		c0,8.2-0.1,16.4-0.2,24.6c0,1.2-0.1,2.6-1.4,3.1c-1.5,0.7-2.5-0.5-3.4-1.5c-4.1-4.6-8.2-9.1-12.3-13.7
		C186.7,297.2,185.3,295.6,183.5,294.4z"/>
	<path class="st0" d="M396.4,296.8c0.1-3.3-0.2-7.3,0.4-11.3c0.4-2.4,1.4-3.7,4-3.6c4.6,0.1,9.2,0,13.7,0c2.3,0,4.2,0.8,4.1,3.4
		c0,2.6-2.2,2.4-4,2.5c-2.8,0.1-5.5,0.1-8.3,0c-2.8-0.1-3.4,1.6-3.3,4c0.1,2.5,1.1,4,3.8,3.5c2.8-0.5,5.5-0.1,8.3-0.1
		c1.9,0,3,0.6,3.1,2.6c0.1,2.2-1.2,3-3.2,3c-2.9,0-5.8,0.1-8.7-0.1c-3.9-0.2-3.3,2.5-3.4,4.9c-0.1,2.7,1.1,3.6,3.8,3.3
		c3-0.3,6-0.3,9-0.4c2.1,0,3.1,1.1,3.1,3.1c0,2.1-1,3.5-3,3.2c-5.3-0.6-10.6,0.1-15.8-0.9c-2-0.4-2.8-1.3-3.1-3.3
		C396.3,306.4,396.5,301.9,396.4,296.8z"/>
	<path class="st0" d="M565.3,298.3c0,4,0,8,0,11.9c0,2-0.5,3.7-2.9,3.8c-2.5,0.1-2.4-1.9-2.6-3.5c-0.2-1.8-0.6-3.6-0.4-5.4
		c0.4-3.4-0.8-4.6-4.1-4.3c-2.6,0.2-5.3,0-7.9,0c-2.3-0.1-3.3,0.9-3.2,3.3c0.1,2.3,0,4.6,0,6.9c0,1.9-0.9,2.9-2.9,2.9
		c-1.9,0-3.5-0.7-3.6-2.8c-0.1-8.5,0-17.1,0.1-25.6c0-2,1.2-3,3.3-2.9c2.1,0.1,3.1,1,3.1,3.1c0,2.3,0,4.6,0,6.9c0,2.1,1.1,3.1,3.2,3
		c3.1-0.2,6.2-0.4,9.4-0.5c2.1-0.1,2.6-1.3,2.7-3.1c0.1-2.3,0.2-4.6,0.4-6.8c0.1-1.6,0.9-2.8,2.8-2.6c1.9,0.2,2.7,1.4,2.7,3.2
		C565.3,289.9,565.3,294.1,565.3,298.3C565.3,298.3,565.3,298.3,565.3,298.3z"/>
	<path class="st0" d="M326.1,298.2c0-4,0.1-8,0-11.9c0-2.5,1-3.9,3.5-4c4.9-0.1,9.9-0.3,14.8-0.3c2,0,3.6,0.9,3.5,3.2
		c-0.1,2.3-1.8,2.6-3.6,2.6c-3,0-6,0.1-9,0c-3.2-0.1-3.2,2.1-3.3,4.4c0,2.5,1.2,3.4,3.7,3.2c2.9-0.2,5.8-0.4,8.7-0.4
		c1.7,0,3.2,0.4,3.2,2.6c0,2-1.2,3.1-3.2,3.2c-3,0.1-6,0-9,0c-4.1,0-3.2,3.1-3.2,5.5c0,2.8,1.7,2.9,3.9,2.7c3.1-0.3,6.3-0.3,9.4-0.3
		c1.7,0,3.2,0.6,3.2,2.6c0,2-1,3.2-3,3.3c-5.7,0.2-11.3,0.1-17-0.8c-2-0.3-2.5-1.7-2.5-3.4C326.1,306.4,326.1,302.3,326.1,298.2
		C326.1,298.2,326.1,298.2,326.1,298.2z"/>
	<path class="st0" d="M129.6,312.3c0.1,1.5-0.5,2.2-1.9,2c-2.1-0.3-4.2-0.8-4.8-3.2c-0.8-2.6-2.5-3.2-5-3.1c-2,0.1-4.1,0.1-6.1,0
		c-3.2-0.2-6.1,0-7.1,3.9c-0.3,1-1.2,1.5-2.2,1.8c-1,0.3-2.1,1.2-3.1,0.3c-1-0.9-0.4-2.1,0-3c3.2-9.2,8-17.8,12.4-26.5
		c1.2-2.4,3.2-2.5,4.3-0.2c4.4,8.9,9.2,17.5,13,26.7C129.4,311.5,129.5,311.9,129.6,312.3z M113.9,302.8c1.7-0.3,4,0.6,4.2-2.2
		c0.1-1.3-3.4-7.2-4-6.9c-2.8,1.4-3.5,4.3-3.9,6.9C109.6,303.5,112.4,302.4,113.9,302.8z"/>
	<path class="st0" d="M502.7,154.2c-0.6-0.2-1.3-0.5-1.9-0.8c-4-2-7.9-4.1-11.9-6.1c-2-1-3.2-2.4-2.1-4.6c1.8-4,3.6-7.9,5.5-11.8
		c0.9-1.9,2.2-2.6,4.4-1.4c4.2,2.2,8.5,4.1,12.7,6.2c1.5,0.7,2.7,1.7,1.8,3.7c-2.1,4.4-4.1,8.7-6.2,13.1
		C504.4,153.3,503.9,154.1,502.7,154.2z"/>
	<path class="st0" d="M436.7,125.1c-0.3-0.2-0.8-0.5-1.4-0.8c-3.8-2-7.6-4.2-11.4-6.1c-2.9-1.4-3.6-3.1-2.2-6
		c1.7-3.4,3.3-7,4.7-10.5c0.7-1.8,1.7-2.6,3.6-1.8c4.7,2,9.5,3.9,13.8,6.8c1.4,0.9,2.1,1.9,1.4,3.6c-1.9,4.4-3.7,8.9-6.1,13
		C438.7,124.3,438.1,125.1,436.7,125.1z"/>
	<path class="st0" d="M63.5,85.5c1.2-4.3,3.1-8.8,5.5-13.1c0.9-1.6,2.5-1.2,3.9-0.6c4.6,2,9,4.6,13.3,7.2c1.3,0.8,1.3,1.8,0.7,3.1
		c-1.9,4-3.7,8.1-5.5,12.2c-0.9,2-2.2,2.3-4.1,1.4c-4-2.1-8.1-4.3-12.1-6.4C63.9,88.5,63.2,87.5,63.5,85.5z"/>
	<path class="st0" d="M266.4,282c2.5,0,5.1,0,7.6,0c2.3,0.1,3.2,1.5,3.2,3.5c0,2.2-1.8,2.3-3.4,2.3c-3,0.1-6,0.1-9,0
		c-3.3,0-3.1,2.2-3.2,4.5c0,2.3,0.2,4.1,3.2,4c2.8-0.1,5.5,0,8.3,0c1.7,0,3.2,0.4,3.3,2.5c0.1,2.3-1.6,2.7-3.4,2.8
		c-2.4,0.1-4.8,0.2-7.2,0c-3.1-0.2-4.5,0.9-4.2,4.1c0.2,1.8,0,3.6-0.1,5.4c-0.2,1.8-1,2.9-3,2.8c-1.8-0.1-2.7-1.2-2.7-2.8
		c-0.1-8.8-0.1-17.6-0.1-26.4c0-1.9,1.2-2.8,3.1-2.8C261.4,282,263.9,282,266.4,282C266.4,282,266.4,282,266.4,282z"/>
	<path class="st0" d="M474.4,300.4c0-3-0.1-6,0-9c0.1-2.4-0.9-3.6-3.4-3.5c-1.3,0.1-2.7,0-4-0.1c-1.9-0.2-2.7-1.4-2.6-3.2
		c0.1-1.8,1-2.7,2.7-2.6c6.5,0,13,0.1,19.5,0.2c2,0,3.6,1,3.6,3.3c0,2.4-1.9,2.4-3.7,2.4c-0.8,0-1.7,0.1-2.5,0
		c-2.7-0.2-3.6,1.1-3.6,3.7c0.1,5.7,0.1,11.3-0.1,17c-0.1,2.3,0.4,5.6-2.9,5.6c-3.6,0-3-3.4-3.1-5.8
		C474.4,305.7,474.4,303,474.4,300.4z"/>
	<path class="st0" d="M41.5,304.3c-0.3-4.3,0.8-8.6,0.2-13c-0.4-2.6-1.3-3.5-3.9-3.6c-2.3,0-5.8,1-5.6-3.1c0.2-3.9,3.6-2.8,5.9-2.8
		c4.7-0.1,9.4,0.7,14.1,0.1c1-0.1,2.2,0.1,3.2,0.4c1.5,0.4,2.1,1.5,2.1,3c0,1.8-1.2,2.1-2.6,2.4c-2.4,0.5-5.5-1.3-7,1.5
		c-1.2,2.1-0.4,4.7-0.4,7.1c-0.1,4.7,0,9.4-0.1,14.1c0,1.8-0.3,3.5-2.7,3.4c-2.1-0.1-2.9-1.3-2.9-3.4
		C41.7,308.4,41.6,306.4,41.5,304.3z"/>
</g>
<g>
	<g>
		<path class="st1" d="M279.3,156c0.2,0.6,0.3,1.3,0.3,1.9c0.3,1,0.6,1.9,1,2.9c1,2.1,2.3,4.3,2.7,6.7c-2,2.2-5.1,3.7-7.7,5.1
			c-1.3,0.6-2.7,1.2-4,1.8c-3.3,1.3-6.6,2.4-10,3.5c-0.7,0.2-1.7,0.3-2.3,0.7c-1.9,0.4-4.2,0.9-6.1,1.6c-1.1,0.2-1.1,0.2-4.9,1
			c-0.4,0-0.9,0.1-1.3,0.2c-4.4,0.7-8.7,1.2-13.2,1.5c-2.4,0.1-4.8,0.3-7.2,0.4c-1-0.1-2.1-0.2-3.2-0.2c-3.1-0.3-6.2-0.6-9.3-0.8
			c-5.4-0.6-10.6-1.7-15.9-2.8c-2.5-0.6-5.1-1.3-7.6-1.9c-1.6-0.5-3.1-1-4.6-1.4c-3.7-1.3-6.9-3.2-10.3-5.2c-0.4,0-0.7,0-0.7,0.5
			c2.2,1.6,4.3,3.5,6.4,5.2c3.3,2.9,7.8,4.5,12,5.8c1,0.2,3.4,1,6.2,1.7c4.3,0.9,8.7,2,13.1,2.4c3.9,0.7,7.9,1,11.9,1.4
			c0.1,0,0.1,0.1,0.2,0.1c0.1,0,0.2,0,0.3-0.1h5.9c0.4,0,0.9-0.1,1.3-0.2c1.8-0.1,2.6,0,2.6-0.1c5-0.4,5.3-0.5,5.5-0.5
			c0.1-0.1,2.1-0.3,2.3-0.4c5.9-0.5,11.6-2.6,17.3-4c2.2-0.8,2.2-0.8,2.5-0.8c5.8-2,11.5-4.4,16.6-7.8c0.9-0.8,1.8-1.7,2.6-2.6
			c1.3-2.5,2.9-5.1,3.3-8c-0.3-2.6-1.8-4.7-2.6-7.1c0-0.1,0-0.2,0-0.3c0.6,0.1,1.3,0.2,1.9,0.2c0.1-0.2,0.1-0.4,0.1-0.6
			c-1.3-1.5-2.5-3.2-3.7-4.7c-0.2-0.2-0.5-0.3-0.8-0.3c-0.6,1.2-1.8,2.9-1.8,4.2C278.7,155.3,278.9,155.6,279.3,156"/>
		<path class="st1" d="M298.6,159.4c1.9-1.6,4.4,0.5,5.7,1.7l-2.2,0.1c-1.1-0.2-2.8-0.2-3.5-1.1
			C298.5,159.8,298.5,159.6,298.6,159.4 M297.8,165.2c1,0.2,1.9,0.4,3,0.5c1.8,0,1.8,0,2.9-0.1c1.9-0.3,2.4-0.5,2.7-0.5
			c0.4,1.2,0.8,2.2,0.1,3.2c-2.5,2.3-5.4,4.2-8.4,5.9c-7.5,4.3-15.3,8-23.3,11.1c-0.2,0.1-3.7,1.3-2.4,2c1.3-0.5,2.6-0.8,4-1.1
			c4-0.6,7.9-1.1,11.7-2.3c3-1.5,3-1.5,4.2-2c2.6-1.4,5.2-2.9,7.7-4.6c1.3-1,2.6-2,3.9-3c1.9-2.3,3.3-4.9,4.2-7.9
			c0.1-0.6,0.3-1.2,0.4-1.8c0.4-0.6,1.4-0.8,2.1-1c0.4-0.3,0.9-0.6,1.3-0.8c2.1-1.9,3.2-4.8,2.9-7.8c-0.3-0.7-0.5-1.4-0.6-2.2
			c-0.7-1.5-1.4-2.9-2.3-4.2c0.7-0.1,1.2,0.7,1.9,0.4c0-0.1,0.1-0.3,0.1-0.3c-1-2.2-2.8-4-4.4-5.8c-0.3-0.2-0.6-0.3-1-0.1
			c-0.5,1.1-0.9,2.2-1.2,3.4c-0.2,1.3-0.1,1.2,0.9,2.1c0.1,0.3,0.2,0.5,0.2,0.8c1,2.3,2,4.5,3.2,6.6c0.4,0.8,1.3,2.1,1.2,3.1
			c-1.4,0.9-2.9,1.5-4.5,1.9c-0.8-3.3-3.3-5.7-6.2-6c-3.7,0.3-5,4.2-6.1,7.1c0,1.8,0.3,2.8,2,3.7"/>
		<path class="st1" d="M304.9,176.6c-0.1,0-0.2,0-0.3,0c-1.1,2.1-2.6,7.5,0.7,8.7c1.4-0.1,2.4-2.5,1.8-3.7h-0.3
			c-0.6,0.6-0.5,1.6-1.6,1.6c-2.1-0.9-0.5-4.5-0.2-5.9C305.1,177.2,305,176.8,304.9,176.6"/>
		<path class="st1" d="M325.5,154.3c0.4,0,1.9,0.2,2.2-0.1c0-0.3,0-0.3-0.1-0.4c-2.3-1.3-4.7-2.4-6.9-3.7l-0.5,0
			c0,0.1-0.1,0.2-0.1,0.3c0.3,3.8,0.3,3.8,0.4,4.4c0.5,0.5,1.3,0.7,1.9,1.1c0.6,0.6,1.1,1.3,1.7,1.9c1.3,1.2,2.7,2.2,4.2,3.2
			c3,1.7,6,3.5,8.9,5.4c0.7,0.7,1.5,1.1,1.7,2.1c-1.1,1.8-3.9,3.6-5.9,4.3c-4.9,2.7-10.1,5-15.3,6.8c-1.9,0.3-3.9,0.2-5.2-1.3
			c-1.2-2.1-0.6-4.7,0.2-6.8c0.5-0.9,1-1.6,1.5-2.7c0.6,0.2,1.1,0.8,1.8,0.8c0.9-0.9,1.6-1.8,2.4-2.9c1.4,0.6,2.9,1.8,4.2,2.7l0.3,0
			c1-1.1,1.9-2.3,2.9-3.3c0-0.1,0-0.3-0.1-0.3c-0.3-0.3-2.3-1.5-4.2-2.9c-1.3-0.1-1.9,2.9-3,2.9c-0.3-0.6-1.9-1.3-2.4-1.6
			c-0.5-0.3-1.2-1.3-1.9-1.1c-0.8,1-2.6,2.6-2.6,3.9c0.6,0.5,1.2,1,1.8,1.4c-0.7,1.5-1.4,2.9-2.1,4.4c-0.6,1.6-1,3.2-1.4,4.8
			c0,0.8,0,1.6,0,2.4c0.1,0.5,0.3,1,0.4,1.5c1,1.9,2.5,2.8,4.7,3c1.6-0.2,3.2-0.6,4.8-1.3c0,0,0-0.1,0-0.1c1-0.3,2-0.8,3-1.3
			c3.8-1.6,7.3-3.5,10.9-5.5c0,0,0.1,0.1,0.2,0.2h0.2c0-0.2,0-0.3,0-0.5c0.8-0.5,1.6-1,2.4-1.4c1.1-0.9,2.1-1.9,2.9-3.2
			c0.2-0.5,0.3-1,0.4-1.6c-0.1-2.9-0.3-6.5-3.2-8.1c-0.1-0.1-0.3-0.3-0.4-0.3c-3.3-1.9-6.6-4-9.8-6.1
			C326.2,155,325.5,154.6,325.5,154.3"/>
		<path class="st1" d="M163.6,181.9c0.6-0.4,1.3-0.9,2-1.3c3-1.3,6-2.7,8.9-4.1c0.6-0.4,1.6-1.4,1.6-2.2c-0.3-0.1-0.8,0.5-1,0.6
			c-1.2,0.5-2.3,1.1-3.5,1.6c-2.8,1-5.7,2.2-8.1,3.9c-0.3,0.8-0.6,1.2-0.6,1.9C163.2,182.3,163.4,182.1,163.6,181.9"/>
		<path class="st1" d="M224.1,174.9c-0.5,0-1.1,1.4-1.2,1.6c-0.6,1.7-1.7,4.5,0.4,5.8c1.1-0.2,1.9-2,1.9-3c-0.1,0-0.2,0-0.3,0
			c-0.2,0.4-0.6,1.3-1.3,0.9c-1.3-1.6-0.4-3.3,0.4-4.9C224.1,175.1,224.1,174.9,224.1,174.9"/>
		<path class="st1" d="M247.1,170.4c-0.1,0-0.2,0-0.3,0c-0.9,1.6-1.8,3.2-2,5.1c0,1.7-0.1,3.6,1.8,4.4c1-0.3,2-2.6,1.8-3.6
			c0,0-0.1,0-0.2,0c-0.4,0.6-0.6,1.2-1.3,1.6c-1.8-0.3-1.3-3.2-1.2-4.4C246.2,172.5,246.9,171.4,247.1,170.4"/>
		<path class="st1" d="M178.5,163.1c1.5,0,2.9,0.2,4.4,0.6c0.5,0.3,2.4,1.3,2.3,1.9c-0.3,0.1-0.6,0.3-0.9,0.4c-0.4,0-0.7,0-1.1,0.1
			c0,0-0.6-0.1-1.2-0.3c-1.3-0.6-2.5-1.4-3.5-2.6L178.5,163.1L178.5,163.1z M144.3,175.7c1.4,2.2,3.2,3.1,5.7,3.6
			c1.1-0.1,2.1-0.3,3.2-0.4c1-0.4,1.9-0.8,2.8-1.3l2.6-2c0.9-0.7,1.7-1.6,2.6-2.3c4.1-3.7,8.6-7.1,13.7-9.3c0.7,2.2,1.9,4.1,3.5,5.4
			c2.2,1.5,5.9,2.6,7.4-0.3c0.6-1.9,0.6-4.1,0.7-6.1c-0.1-0.6-0.2-1.2-0.3-1.8c-1.9-3.2-5.7-2.9-8.9-2.7c-1,0.3-0.7,0.5-1-1
			l-1.1-7.4c-0.5-4.4-0.8-8-1.2-11.1c-0.1-3.2-0.3-4.8-0.3-8.6c1.2,0.3,1.6,2.6,2.8,2.8l0.2-0.1c0-0.1,0-0.2,0-0.3
			c-1.3-3.3-2.8-6.7-4.2-10c-0.2-0.6-0.4-1.4-1-1.8c-0.1,0-0.2,0-0.3,0c-0.7,1.3-0.7,1.3-0.9,1.7c-0.5,0.8-1.3,1.7-1.2,2.7
			c0.5,0.5,0.8,1.1,1,1.8c0.3,4,0.7,8,1.1,12c0.5,6.8,0.9,13.6,2.3,20.3c0,0.1,0,0.1,0,0.2c-3.1,1.2-6.1,3.4-8.7,5.4
			c-0.4,0.4-0.4,0.4-8.8,7.4c-0.9,0.8-0.9,0.8-2.9,2.1c-1,0.5-1.9,0.9-2.9,1.3c-2.3,0.4-3.9-0.2-5.2-1.9c-1.1-2.2-0.6-4.7,0.1-6.9
			c1.1-2.2,1.1-2.2,2-4.1c0.9-1.3,1.9-2.6,2.7-3.9c0.1,0,0.9,1.1,1.3,1.3c2.3,1.3,3.2,0,3.7-2.1c0-0.7,0.4-3.2-0.3-3.5
			c-0.1,0-0.2,0-0.3,0c0,0-0.1,0.1-0.1,0.2c-0.3,1.1-0.5,2.8-2.2,2.2c-1.7-1.5-1-3.8-0.6-5.8c0.3-1,0.7-1.8,1.2-2.7
			c0.4-0.7,1.8-2.4,1.3-3.2c-0.1,0-0.2,0-0.3,0c-1.9,2.6-3.5,5.5-4.1,8.6c-0.1,0.6-0.1,1.2-0.2,1.9c0,1.3,0.1,1.6,0.1,1.9
			c-0.3,0.5-1.2,1.4-1.8,2.3c-1.9,2.9-3.3,5.6-4.2,8.9c-0.1,0.8-0.2,1.6-0.3,2.3c0,0.9,0.1,1.9,0.3,2.7
			C143.8,174.6,144,175.2,144.3,175.7"/>
		<path class="st1" d="M209.8,163.4c1.4-1.1,2.9-2.1,4.3-2.9c2.1-0.8,2.1-0.8,4.3-1.6c0.5-0.1,1.1-0.2,1.6-0.2h1
			c2.1,0.3,7.4,2.2,6.6,5c-2.2,2.3-5.6,3.5-8.6,4.4c-3.5,0.8-4.2,0.9-4.3,1c-3.5,0.6-7,0.9-10.6,0.9c0,0,0-0.1-0.1-0.2
			C205.7,167.4,207.6,165.3,209.8,163.4 M263,167.1c0.2,1-1.4,1.1-2.1,1.1c-1.5-0.3-2.9-1-4-2.2C258.9,165.9,261.3,166,263,167.1
			 M188.8,137.4c1.1,6.3,1.1,12.7,1.3,19c-0.1,1.8,0.2,3.6,0.2,5.5c0.4,2.2,1.1,4.2,2,6.1c0.5,0.9,1.1,1.7,1.7,2.6
			c0.6,0.6,1.1,1.1,1.7,1.6c1.4,0.7,2.8,1.4,4.2,1.9c-0.3,0.9-0.5,1.7-0.7,2.6c0,0.3,0,0.4,0.2,0.6c0.1,0,0.2-0.1,0.3-0.1l1.3-2.8
			c1.3,0,2.7,0,4,0c1.4-0.2,2.8-0.3,4.2-0.3c0.1,0.1,3.1,0.4,3.9,0.6c1.1,0,1.1,0,5.5,0.1c1-0.2,2.1-0.3,3.2-0.3
			c1.4-0.3,2.9-0.5,4.3-0.6c1.6-0.4,3.2-0.7,4.8-0.9c3.5-0.8,7.2-1.4,10.4-2.8c1.9-0.6,1.9-0.6,11.6-3.9c0.2,0.2,0.2,0.2,0.6,1.6
			c1.3,2.8,3.2,4.1,6.1,5c1,0.1,1.9,0,2.9-0.2c1.4-0.7,1.7-2.1,2.1-3.5c0-1.8-0.3-3.6-1-5.2c-0.4-0.5-0.9-1-1.3-1.4
			c-2.2-1.2-5-1.3-7.4-1.1l-0.2-0.1c-0.1-0.4-0.1-0.4-1-4.5c-0.5-4.5-1-8.9-1.6-13.3c-0.2-3.4-0.5-5.8-0.7-8.9
			c-0.2-1.5-0.3-3-0.4-4.5c0,0,1.4,1.7,2.1,2.5c0.9,0.1,0.4-0.8,0.2-1.2c-0.9-3.2-2.1-6.5-3.1-9.8c-0.1-0.1-0.2-0.1-0.3-0.2
			c-0.9,0.5-2.2,3.4-2.3,4.4c0.3,0.6,0.5,1.2,0.5,1.9c0,0,0.1,0.1,0.1,0.1c0.3,5.3,0.7,10.6,1.3,15.9c0.4,6.1,1.5,12.2,2.5,18.3
			c0,0.1,0,0.3,0,0.4c-1.6,0.5-3.2,1-4.8,1.6c-2.5,1.1-5.3,1.5-7.8,2.6c-2.5,0.6-4.9,1.4-7.4,1.8c-2.5,0.6-5,1.1-7.5,1.3
			c0.6-0.5,1.2-1.1,1.8-1.6c1.3-2,2.5-4.1,3.5-6.4c0.3-1.4,0.4-2.4,0-3.8c-1.4-2.1-3.8-2.8-6.2-3.4c-1.6-0.1-3.2,0-4.8,0.4
			c-0.7,0.3-1.4,0.5-2.2,0.8c-1.8,1-3.6,2.1-5.3,3.2c-1.9,1.6-3.6,3.3-5.3,5.2c0.3-0.9,0.6-1.8,1-2.7c0.3-1.5,0.6-3,0.7-4.5
			c0-1.6,0-3.2,0-4.7c-0.4-6.7-1.1-13.3-1.7-20c-0.3-3.9-0.3-3.9-0.2-4c0.7,0.6,1.3,1.4,2,2.2c1.6,0.7-0.3-3.3-0.4-3.5
			c-0.8-2.6-1.8-5-2.9-7.4c-0.2-0.2-0.3-0.2-0.6-0.2c-1.1,1.7-1.1,1.7-2.1,3.4c0,0.6,0.4,1.1,0.6,1.7c0.3,1.1,0.5,2.2,0.6,3.2
			c0.3,8.3,1.2,16.5,2.1,24.8c0.2,3.9,0.3,8-0.4,11.9c-0.6,1.8-1.4,3.5-2.4,5.2c-0.7,0.1-1.5-0.3-2.2-0.5c-1.8-0.7-3.4-1.8-4.8-3.2
			c-3.3-5-2.9-11.3-3.1-16.9c-0.2-3.3-0.4-6.6-0.4-9.9c-0.1-0.3-0.1-0.3-0.5-3.9c-0.3-1.5-0.6-3-0.8-4.5c-0.3-0.6-0.4-1.3-0.5-2
			c-0.8-2.5-1.2-5-2.1-7.4c-0.1-0.3-0.1-1.2-0.7-0.9c-0.1,0.3-0.1,0.3-1.4,3.9c0,0.1,0,0.3,0,0.4c0.8,2.6,1.6,5.1,2,7.8
			C188.4,134,188.6,135.7,188.8,137.4"/>
		<path class="st1" d="M286.7,129.7c0.1,1.9,0.1,1.9,0.5,6.7c0.6,3.3,0.9,6.7,1.4,10.1c0.9,7,1.8,14,2.5,21c0.1,2.1,0,4.2,0,6.2
			c0,0,0,0.1,0,0.1c0.1-0.1,0.2-0.2,0.3-0.3c0.5-1.6,1-3.1,1.5-4.6c0.1-0.8,0.2-1.6,0.3-2.4c-0.2-9.7-1.7-19.3-3.1-28.9
			c0-0.6-0.1-1.1-0.2-1.6c-0.2-1.5-0.8-3.5-0.6-5c0.1,0,0.1,0.1,0.2,0.2c0.8,1,1.6,1.9,2.6,2.7c0.3-0.1,0.3-0.3,0.3-0.6
			c-0.5-1.6-1-3.2-1.4-4.8c-0.9-2.2-1.9-4.3-2.9-6.3l-0.4-0.3c-0.1,0-0.2,0-0.3,0.1c-0.8,1.2-1.5,2.6-2.1,3.9c0,0.8,0.8,1.8,1.1,2.5
			C286.6,128.8,286.6,129.2,286.7,129.7"/>
		<path class="st1" d="M151,164.3c-0.9,2.1-2.1,6.1,0.6,7.5c1.7-0.1,1.6-1.6,1.7-3.1c0-0.2,0-0.4,0-0.6c-0.1,0-0.3,0-0.4,0
			c-0.2,0.9-0.4,1.7-1.6,1.2c-0.8-0.7-0.8-1.8-0.8-2.8c0.6-2,0.6-2,0.6-2.3L151,164.3z"/>
		<path class="st1" d="M263,127.8c0.4,5.4,0.7,10.7,1.6,16.1c0.5,4.6,1.1,9.3,1.8,13.9c0.1,1.9,0.5,3.9,0.8,5.8
			c0.3,3.7,0.3,3.7,0.3,7.7l0.2,0.1c0,0,0.1-0.1,0.1-0.1c0.4-1.7,0.9-3.4,1.4-5.1c0.3-2.3,0.1-4.5,0-6.8c-1-9.7-2.4-19.2-3.3-28.9
			c0.2,0.2,2.6,4.1,2.8,2.3c-0.7-2.1-1.4-4.1-2.1-6.2c-0.8-1.8-1.6-3.5-2.6-5.2c-0.3-0.3-0.6-0.1-0.8,0.1c-0.6,1.2-1.1,2.3-1.7,3.5
			c0,0.1,0,0.3,0,0.3C262.3,126.1,262.7,126.9,263,127.8"/>
		<path class="st1" d="M275,167.5c0,0,0.1,0,0.2,0.1c0,0,0.1,0,0.2-0.1c0.9-1.2,1.8-2.3,2.7-3.5v-0.3c-3.6-3.1-3.6-3.1-4-3.5
			c0,0-0.1,0-0.2,0c-0.7,0.9-0.7,0.9-1.6,1.9c-0.3,0.6-1,1.3-1,1.9C274.3,166.8,274.3,166.8,275,167.5"/>
		<path class="st1" d="M243.1,159.2c0.4,1.3,0.7,1.6,2.1,2c1.7-0.3,1.9-3.1,1.7-4.4c0,0-0.1,0-0.1,0c-0.1,0.1-0.1,0.1-0.6,1.2
			c-0.2,0.3-0.5,0.6-0.8,0.8c-2.3,0.2-1.4-3-1.2-4.1c0.2-0.6,2.2-4.2,1.8-4.9c0,0-0.1,0-0.1,0c-1.6,2.2-2.7,4.9-3,7.9
			C243,158.1,243.1,158.7,243.1,159.2"/>
		<path class="st1" d="M160.2,138.1c0.1,0,0.2,0,0.3-0.1c0-0.1,0.1-0.2,0.1-0.3h0.1c0,0.1,0,0.1,0.6,1c0.3,0.7,1,1.7,1,2.5
			c-0.3,0.2-0.6,0.4-1,0.6c-0.3,0.6-0.6,1.3-0.6,2c0.1,0,0.1,0,0.6-0.5c0.5-0.3,0.9-0.1,1.5,0c0,0,0,0.1,0,0.1
			c-0.6,0.2-1.2,0.6-1.7,1c-2,2.5,0.2,5.8,1.2,8.1c0.3,0.8,0.6,1.7,1,2.6c1,3.5,1,3.5,1.2,4.2c0,0.4,0.1,0.8,0.3,1.1h0.1
			c0.3-2.2-0.6-4.4-1.1-6.6c-0.3-0.9-0.6-1.9-1-2.8c-0.6-1.3-1.2-2.5-1.7-3.9c-0.2-0.3-0.3-0.6-0.3-1c0.8-0.9,2.6-1.3,3.6-1.6
			c0.1-0.2,0.1-0.2,0.6-1.5c0-1.1-1.4-1.8-2.4-2c0.3-1.9,0.5-3.9,1-5.8c1-1.5,1.8-0.9,2.4,0.5c0,0,0.1,0,0.2,0
			c0.2-0.6,0.3-1.3,0.3-1.9c-0.5-0.8-0.9-1.7-2-1.5c-2,1.2-1.8,4.3-2.3,6.3c-0.6-1.4-1.9-4.8-3.9-4.8c-0.2,0.8-0.3,1.6-0.2,2.5
			C159,137.1,159.6,137.6,160.2,138.1"/>
		<path class="st1" d="M169,160.5c0.3,0,0.5-0.1,0.7-0.1c0.8-0.8,1-1.8,1-2.9c-0.2-0.1-0.6,0.7-0.7,0.8c-1.4,0.6-1.9-1-1.9-2
			c0.2-1,0.8-2,0.8-3c-1,0.2-1.3,3.5-1.4,4.5C167.6,159.1,167.8,159.8,169,160.5"/>
		<path class="st1" d="M238.8,148.6c-1.3-0.9-1.7-0.5-2.3,0.8c-0.5,1.7-1,3.9-1.4,5.6c0,0-0.1,0-0.1,0.1c-0.1-0.2-0.1-0.2-0.8-1.6
			c-0.2-0.3-0.4-0.6-0.6-0.9c-0.6-0.8-2.7-3.3-4-3c-0.2,1-0.2,2,0,3c0.7,0.3,1.6,1,2.4,1.1c0.1-0.1,0.2-0.2,0.3-0.3
			c0.4,0.5,0.9,1.1,1.3,1.6c0.5,0.9,1,2,1.5,3c0.1,0,0.2,0,0.3,0c0-0.1,0.1-0.1,0.1-0.2c0.9-3.9,1.1-5.2,1.5-6.5
			c0.1-0.3,0.3-0.5,0.5-0.7c0.8,0.3,1.6,1,1.9,1.9l0.2,0c0.2-0.9,0.5-2,0.2-2.9c-0.1,0-0.1,0-0.2,0
			C239.4,149.2,239.1,148.9,238.8,148.6"/>
		<path class="st1" d="M180,151.1l0.5-0.2c1,1.4,1.9,2.9,2.3,4.6c0,0,0.1,0.1,0.2,0.1c0,0,0.1,0,0.2-0.1c1-2.2,1.1-4.6,2.1-6.7
			c1-1.1,1.6-0.1,2.3,0.8c0.6-0.1,0.4-1.9,0.4-2.4c-0.6-0.7-1-1.2-1.9-1.3c-1.9,0.7-2.1,5.1-2.8,6.4c-0.4-0.6-0.4-0.6-1.5-2.8
			c-0.6-0.8-2.2-3.3-3.2-3.3c-0.3,0.8-0.8,1.9-0.7,2.7C178,149.4,179,150.2,180,151.1"/>
		<path class="st1" d="M200.1,155c1.5-0.3,1.8-2.7,1.6-3.9l-0.1,0c0,0-0.1,0-0.2,0.1c-0.2,0.7-0.5,1.4-1.3,1.4
			c-1.7-0.9-1.5-3-1.4-4.7c0.4-1.2,0.8-2.3,1.3-3.5c0-0.1-0.1-0.1-0.1-0.2c-0.1,0.1-0.3,0.1-0.4,0.2c-1,1.7-1.3,3.5-1.6,5.4
			C197.8,151.6,197.7,154.5,200.1,155"/>
		<path class="st1" d="M245.2,137.2c-1.2,0.6-2.4,1.2-3.6,1.8c-6.3,2.8-12.6,5.4-18.8,8.5c-2.6,1.4-5.2,2.7-7.4,4.6
			c-0.2,0.3-0.4,1.8-0.2,2c2.7-2.5,6.2-3.9,9.3-5.8c4.9-2.3,4.9-2.3,6.8-3.2c0.2,0,0.3,0,0.5-0.2c4.3-1.9,8.7-3.8,12.9-5.7
			C244.9,138.9,246,137.3,245.2,137.2"/>
		<path class="st1" d="M331.2,153c1.1-0.3,1.2-1,1.5-2c0-0.5,0.1-1.7-0.4-2c0,0-0.1,0.1-0.1,0.2c-0.1,0.9-0.5,2-1.6,1.6
			c-0.9-0.8-0.4-3-0.3-4.1c0.1-0.5,1-2.8,0.2-2.9c-0.7,1-0.9,3-1,4.2C329.5,149.9,329.3,152.1,331.2,153"/>
		<path class="st1" d="M300.8,150.4c-0.5-0.2-0.6-0.2-0.6-0.7c0.1-0.6,0.3-2.1,0.9-2.5c0.7,0.5,2,1,2,2
			C302.5,150,301.7,150.4,300.8,150.4 M301.1,144.6c-0.1,0-0.1,0-0.2,0c-0.3,0.5-0.2,1.3-0.3,1.9c-0.3,0.8-0.6,1.6-0.8,2.3
			c-0.3,1.6-0.7,2.9,1,3.6c1,0,2-0.4,2.7-1.3c0.8-1.5,0.7-2.8,0.2-4.3c-0.3-0.3-0.5-0.5-0.7-0.8
			C302.1,145.6,301.4,145.3,301.1,144.6"/>
		<path class="st1" d="M259.9,151.1c0.7-0.1,0.8-0.3,1.3-0.8c0.2-0.5,0.3-1.6-0.1-2.1c0,0-0.1,0-0.2,0c-0.2,0.3-0.3,0.5-0.4,0.7
			c-0.6,0.5-1.3-0.3-1.6-0.7c0-1.6,0.8-2.9,0.8-4.4c-0.1,0-0.1,0-0.2,0C258.4,145.6,256.9,150.1,259.9,151.1"/>
		<path class="st1" d="M317.4,142.4c0,0-0.1,0-0.1,0c-0.9,1.6-3.1,6.9-0.3,8c0.5-0.2,1-0.6,1.3-1.2c0.1-0.3,0.7-2.5,0.2-2.4
			c-0.3,0.6-0.6,1.4-1.3,1.6c-2-0.7-0.1-4.6,0.3-5.7C317.4,142.5,317.4,142.4,317.4,142.4"/>
		<path class="st1" d="M273.4,124.5c0.5,0.6,1.9,2.1,1.9,2.9c-0.8,0.3-1.5,1.8-1.5,2.6c0.5,0,0.6-0.3,0.8-0.7c0.4,0,1.5,0.1,1.6,0.6
			c-0.4,0.1-0.8,0.3-1.3,0.4c-1.5,0.8-1.5,1.7-1.9,3.3c0.8,4.3,3.5,8,4.8,12.1c0,0.5,0,1.1,0.4,1.5c1-2.4-0.7-6.1-1.9-8.3
			c-0.8-1.8-1.6-3.5-2.3-5.3c-0.1-0.3-0.1-0.7,0-1c1.3-0.7,2.6-0.9,4-1.3c0.3-0.5,0.6-1.1,0.7-1.7c-0.1-0.6-1.1-1-1.1-1.3
			c-0.6-0.3-1.1-0.5-1.6-0.8c0-0.5,0-0.5,0.5-4.4c0.3-0.7,0.4-1.4,1.3-1.4c0.5,0.3,1,0.6,1.3,1.1c0.3-0.1,0.4-1.7,0.4-1.9
			c-0.5-0.6-1.1-1-1.7-1.2c-1,0.2-1.3,0.9-1.6,1.8c-0.2,1.3-0.4,2.7-0.6,4c-0.4-0.1-1.2-1.7-1.4-2.1c-1-1.1-2-2-3.2-2.7
			c0,0-0.1,0-0.1,0c-0.1,0.7-0.2,1.5-0.3,2.3c0.6,0.6,1.4,1,2.3,1.1C273.1,124.3,273.3,124.4,273.4,124.5"/>
		<path class="st1" d="M219.8,143.2c-0.9-1.6-2.9-2.4-4.2-3.5c-1.2,0.2-2.4,2.7-3,3.6c0,0.1,0,0.3,0,0.4c1.2,1,2.6,1.9,3.8,2.9
			c0.9-0.1,1.6-1.2,2.2-1.8l0.1,0c0.1-0.1,0.2-0.2,0.1-0.3C219.1,144,219.7,143.7,219.8,143.2"/>
		<path class="st1" d="M299.2,141.2c6-3.2,12-6.2,18.2-8.9c0.5-0.3,2.6-1.5,3.1-1.4c0.4-0.6,0.6-1.3,0.6-2.1
			c-0.4-0.1-2.9,1.4-3.3,1.6c-3.8,1.5-7.4,3.5-11.2,5.1c-0.2,0.2-1,0.5-7.1,3.8c-2.3,1.4-3.6,2-3.8,4.7
			C296.6,142.7,297.9,142,299.2,141.2"/>
		<path class="st1" d="M319.2,135.1c-0.3,0.8-0.5,1.7-0.4,2.6c0.5,0.6,1.1,1.1,1.6,1.5c0.3,0,0.6-0.2,0.7-0.4c1,1.3,1.7,2.7,2.2,4.3
			l0.1,0c0-0.1,0.1-0.2,0.2-0.2c0.5-1.5,0.5-1.5,1.7-5.8c0.1-0.2,0.2-0.3,0.3-0.5c0.9-0.4,2,0.6,2.2,1.4c0.6-0.1,0.5-1.7,0.3-2.3
			c-0.6-0.6-1.6-1.7-2.6-1c-1,1.7-1.4,3.9-2.1,5.8c0,0-0.1,0-0.1,0c-0.4-1-0.9-1.9-1.4-2.9C321.5,137,320.3,135.1,319.2,135.1"/>
		<path class="st1" d="M210.7,137.6c-0.4,0.6-0.3,1.6-0.3,2.3c0.8-0.3,1.5-0.8,2.2-1.3c4.8-2.5,9.7-4.9,14.5-7.4
			c2.5-1.2,5-2.3,7.5-3.5c3-1.2,6.1-2.3,9-3.6c0.4-0.1,0.8-0.2,1.2-0.3c0.7-0.6,0.9-1.7,1-2.5c-0.8-0.3-2.5,0.7-3.2,1
			c-5.8,2.1-11.5,4.7-17,7.4c-4.8,2.5-9.6,5-14.4,7.4C211,137.3,210.8,137.5,210.7,137.6"/>
		<path class="st1" d="M232.2,136.1c0.2,1.5,0.3,2.1,1.5,2.9c1.3-0.2,2.1-1.9,1.6-3c-0.1,0-0.1,0-0.2,0c-0.1,0.1-0.2,0.3-0.3,0.4
			c-0.8,0.9-1.2,0.6-1.8-0.2c-0.5-1.9,1.2-3.5,1.2-5.3C233.1,131.3,232.4,135.1,232.2,136.1"/>
		<path class="st1" d="M181.7,138.6c0.9,0,0.9-0.1,1.4-0.8c0.3-0.7,0.7-2.7,0.2-3.3c0,0-0.1,0-0.2,0c-0.3,0.5-0.3,1.7-1.2,1.7
			c-1.6-0.6-1.6-2.4-1.6-3.8c0.1-0.6,0.8-2.8,0.8-3c-0.1,0-0.1,0-0.2,0C179.6,131.9,178.3,136.9,181.7,138.6"/>
		<path class="st1" d="M298.9,128.6c0.3,0.5,0.5,1,0.9,1.4c0.5,1.3,0.8,2.8,0.7,4.3c-0.1,0.4-0.6,1.3-0.1,1.6
			c1.8-0.5,1.3-4.8,1.1-6.1c-0.3-0.8-0.6-1.6-1-2.4c-0.5-0.7-1.1-1.4-1.6-2.1c-0.5-0.4-1.9-1.8-2.5-1.8c-0.4,0.5-0.4,1.4-0.4,2.1
			C297,126.5,298,127.5,298.9,128.6"/>
		<path class="st1" d="M193.6,123.5c0,0.1,0,0.1,0.8,0.9c1.6,2.1,3.1,4.2,3.5,6.8v1.7c-0.1,1.2-0.3,2.2-0.3,2.3h0.3v0.1
			c0.1-0.1,0.3-0.3,0.5-0.4c1-1.8,0.8-4.8,0.5-6.8c-0.9-2.8-2.4-5.2-4.4-7c-0.7-0.1-1.1,1.7-1.2,1.9
			C193.2,123.3,193.2,123.3,193.6,123.5"/>
		<path class="st1" d="M307.7,130.4c0.5,0.2,0.9,0.2,1,0.3c0.3-0.1,0.6-0.3,1-0.4c0.8-1,1.2-1.9,0.6-3.2c-0.1,0-0.2,0-0.3,0
			c-0.4,0.7-0.4,1.4-1.4,1.4c-1.3-0.6-1-0.9-0.8-2.3c0.3-1,1.2-2.3,0.7-3.3c-0.1,0-0.1,0-0.2,0c-1.5,1.7-2.3,5-1.3,7
			C307.3,130.1,307.5,130.2,307.7,130.4"/>
		<path class="st1" d="M211.8,125c0.2-0.1,0.4-0.2,0.6-0.3c0.8,1.1,1.2,2.7,1.9,3.9l0.4-0.2c0.3-1.8,0.7-3.5,1.2-5.2
			c0.5-0.8,1-1.9,1.9-1c0.2,0.3,0.6,1,0.9,1c0.4-0.6,0.3-1.4,0.3-2.1c-0.3-0.3-0.6-0.7-1-1c-2.4-1.5-3.5,5.3-3.7,6.3c0,0,0,0-0.1,0
			l-1-2.5c-0.5-0.8-1.1-2-2-2.4c-0.3-0.3-0.9-0.9-1.3-0.7c-0.3,0.6-0.2,1.6-0.3,2.3C209.8,123.5,211.2,125.1,211.8,125"/>
		<path class="st1" d="M257.5,128.2l0.7,0c0.9-0.8,0.9-1.9,0.9-3.1c-0.6,0.3-0.5,1-1.3,1.2c-2.3-0.7-0.8-3.5-0.4-5.1h-0.2
			c-0.6,1.2-1,2.6-1.2,3.9C256,126.7,256,127.2,257.5,128.2"/>
		<path class="st1" d="M227.3,126.9c0.1-0.1,0.3-0.1,0.4-0.2c0.4-0.7,1.1-2,0.6-2.8c-0.3,0.3-0.3,0.6-0.7,0.9
			c-1.9-0.2-0.5-2.9-0.3-4c0-0.1-0.1-0.1-0.1-0.2c0,0-0.1,0-0.1,0.1C226.2,122.4,224.8,126.1,227.3,126.9"/>
	</g>
</g>
</svg>
